<svg width="246" height="495" viewBox="0 0 246 495" fill="none" xmlns="http://www.w3.org/2000/svg">
<g filter="url(#filter0_d_2109_20224)">
<rect x="5.41895" y="5.41797" width="212.946" height="461.654" rx="27.0924" fill="#1F1F1F"/>
<path d="M86.1999 45.2518C85.7448 45.2518 85.3221 45.1673 84.932 44.9982C84.5419 44.8227 84.2103 44.5853 83.9372 44.2862C83.6641 43.9871 83.4625 43.6425 83.3325 43.2524L84.3078 42.8427C84.4833 43.2914 84.7402 43.636 85.0783 43.8766C85.4164 44.1172 85.8065 44.2375 86.2487 44.2375C86.5088 44.2375 86.7364 44.1985 86.9314 44.1204C87.1265 44.0359 87.276 43.9189 87.3801 43.7693C87.4906 43.6198 87.5459 43.4475 87.5459 43.2524C87.5459 42.9858 87.4711 42.7745 87.3215 42.6184C87.172 42.4624 86.9509 42.3388 86.6583 42.2478L85.2929 41.8187C84.7467 41.6496 84.3305 41.3928 84.0445 41.0481C83.7584 40.697 83.6153 40.2874 83.6153 39.8192C83.6153 39.4096 83.7161 39.052 83.9177 38.7464C84.1192 38.4343 84.3956 38.1904 84.7467 38.0149C85.1043 37.8393 85.5107 37.7515 85.9658 37.7515C86.4015 37.7515 86.7981 37.8296 87.1557 37.9856C87.5134 38.1352 87.819 38.3432 88.0725 38.6098C88.3326 38.8764 88.5212 39.1853 88.6382 39.5364L87.6824 39.9558C87.5394 39.5722 87.315 39.2763 87.0094 39.0682C86.7103 38.8602 86.3625 38.7561 85.9658 38.7561C85.7253 38.7561 85.5139 38.7984 85.3319 38.8829C85.1498 38.961 85.0068 39.078 84.9027 39.234C84.8052 39.3836 84.7564 39.5592 84.7564 39.7607C84.7564 39.9948 84.8312 40.2029 84.9808 40.3849C85.1303 40.567 85.3579 40.7035 85.6635 40.7946L86.9314 41.1944C87.5101 41.37 87.9458 41.6236 88.2384 41.9552C88.531 42.2803 88.6772 42.6867 88.6772 43.1744C88.6772 43.5775 88.57 43.9351 88.3554 44.2472C88.1473 44.5593 87.858 44.8064 87.4874 44.9885C87.1167 45.164 86.6876 45.2518 86.1999 45.2518ZM92.3392 45.2518C91.8125 45.2518 91.3444 45.1315 90.9347 44.8909C90.5316 44.6439 90.2163 44.3122 89.9887 43.8961C89.7611 43.4735 89.6473 43.0021 89.6473 42.4819C89.6473 41.9487 89.7611 41.4773 89.9887 41.0677C90.2228 40.658 90.5349 40.3362 90.925 40.1021C91.3151 39.8615 91.7573 39.7412 92.2514 39.7412C92.6481 39.7412 93.0024 39.8095 93.3145 39.946C93.6266 40.0826 93.89 40.2711 94.1046 40.5117C94.3191 40.7458 94.4817 41.0156 94.5922 41.3212C94.7093 41.6268 94.7678 41.952 94.7678 42.2966C94.7678 42.3811 94.7645 42.4689 94.758 42.5599C94.7515 42.6509 94.7385 42.7355 94.719 42.8135H90.5154V41.9357H94.0948L93.5681 42.3356C93.6331 42.017 93.6104 41.7341 93.4999 41.487C93.3958 41.2335 93.2333 41.0351 93.0122 40.8921C92.7976 40.7425 92.544 40.6678 92.2514 40.6678C91.9588 40.6678 91.6988 40.7425 91.4712 40.8921C91.2436 41.0351 91.068 41.2432 90.9445 41.5163C90.821 41.7829 90.7722 42.108 90.7982 42.4916C90.7657 42.8493 90.8145 43.1614 90.9445 43.4279C91.081 43.6945 91.2696 43.9026 91.5102 44.0522C91.7573 44.2017 92.0369 44.2765 92.349 44.2765C92.6676 44.2765 92.9374 44.205 93.1585 44.0619C93.3861 43.9189 93.5649 43.7335 93.6949 43.506L94.5922 43.9449C94.4882 44.192 94.3256 44.4163 94.1046 44.6178C93.89 44.8129 93.6299 44.969 93.3243 45.086C93.0252 45.1965 92.6968 45.2518 92.3392 45.2518ZM95.8434 45.1348V39.8583H96.8967V40.8921L96.7699 40.7556C96.9 40.4239 97.1081 40.1736 97.3941 40.0046C97.6802 39.829 98.0119 39.7412 98.389 39.7412C98.7791 39.7412 99.1237 39.8257 99.4228 39.9948C99.7219 40.1639 99.956 40.3979 100.125 40.697C100.294 40.9961 100.379 41.3407 100.379 41.7309V45.1348H99.2863V42.0235C99.2863 41.7569 99.2375 41.5326 99.14 41.3505C99.0424 41.1619 98.9027 41.0189 98.7206 40.9214C98.545 40.8173 98.3435 40.7653 98.1159 40.7653C97.8883 40.7653 97.6835 40.8173 97.5014 40.9214C97.3259 41.0189 97.1893 41.1619 97.0918 41.3505C96.9943 41.5391 96.9455 41.7634 96.9455 42.0235V45.1348H95.8434ZM103.996 45.2518C103.489 45.2518 103.034 45.1315 102.631 44.8909C102.234 44.6439 101.919 44.3122 101.685 43.8961C101.457 43.48 101.344 43.0118 101.344 42.4916C101.344 41.9715 101.461 41.5033 101.695 41.0872C101.929 40.671 102.244 40.3427 102.641 40.1021C103.037 39.8615 103.486 39.7412 103.987 39.7412C104.409 39.7412 104.783 39.8257 105.108 39.9948C105.433 40.1639 105.69 40.3979 105.879 40.697L105.713 40.9506V37.7515H106.805V45.1348H105.762V44.0619L105.889 44.2667C105.707 44.5853 105.446 44.8292 105.108 44.9982C104.77 45.1673 104.4 45.2518 103.996 45.2518ZM104.104 44.2277C104.409 44.2277 104.682 44.1529 104.923 44.0034C105.17 43.8538 105.362 43.649 105.498 43.3889C105.642 43.1223 105.713 42.8232 105.713 42.4916C105.713 42.16 105.642 41.8642 105.498 41.6041C105.362 41.344 105.17 41.1392 104.923 40.9896C104.682 40.8401 104.409 40.7653 104.104 40.7653C103.798 40.7653 103.522 40.8401 103.275 40.9896C103.028 41.1392 102.836 41.344 102.699 41.6041C102.563 41.8642 102.494 42.16 102.494 42.4916C102.494 42.8232 102.563 43.1223 102.699 43.3889C102.836 43.649 103.024 43.8538 103.265 44.0034C103.512 44.1529 103.792 44.2277 104.104 44.2277ZM109.904 45.1348V37.8686H110.977L113.708 41.6529H113.172L115.854 37.8686H116.927V45.1348H115.786V39.2243L116.215 39.3413L113.474 43.0866H113.357L110.675 39.3413L111.055 39.2243V45.1348H109.904ZM120.867 45.2518C120.36 45.2518 119.895 45.1315 119.472 44.8909C119.056 44.6504 118.725 44.322 118.478 43.9059C118.231 43.4897 118.107 43.0183 118.107 42.4916C118.107 41.9585 118.231 41.487 118.478 41.0774C118.725 40.6613 119.056 40.3362 119.472 40.1021C119.889 39.8615 120.354 39.7412 120.867 39.7412C121.387 39.7412 121.852 39.8615 122.262 40.1021C122.678 40.3362 123.006 40.6613 123.247 41.0774C123.494 41.487 123.618 41.9585 123.618 42.4916C123.618 43.0248 123.494 43.4995 123.247 43.9156C123 44.3317 122.668 44.6601 122.252 44.9007C121.836 45.1348 121.374 45.2518 120.867 45.2518ZM120.867 44.2277C121.179 44.2277 121.456 44.1529 121.696 44.0034C121.937 43.8538 122.125 43.649 122.262 43.3889C122.405 43.1223 122.476 42.8232 122.476 42.4916C122.476 42.16 122.405 41.8642 122.262 41.6041C122.125 41.344 121.937 41.1392 121.696 40.9896C121.456 40.8401 121.179 40.7653 120.867 40.7653C120.562 40.7653 120.285 40.8401 120.038 40.9896C119.798 41.1392 119.606 41.344 119.463 41.6041C119.326 41.8642 119.258 42.16 119.258 42.4916C119.258 42.8232 119.326 43.1223 119.463 43.3889C119.606 43.649 119.798 43.8538 120.038 44.0034C120.285 44.1529 120.562 44.2277 120.867 44.2277ZM124.694 45.1348V39.8583H125.747V40.8921L125.62 40.7556C125.75 40.4239 125.958 40.1736 126.244 40.0046C126.53 39.829 126.862 39.7412 127.239 39.7412C127.629 39.7412 127.974 39.8257 128.273 39.9948C128.572 40.1639 128.806 40.3979 128.975 40.697C129.144 40.9961 129.229 41.3407 129.229 41.7309V45.1348H128.136V42.0235C128.136 41.7569 128.088 41.5326 127.99 41.3505C127.893 41.1619 127.753 41.0189 127.571 40.9214C127.395 40.8173 127.194 40.7653 126.966 40.7653C126.739 40.7653 126.534 40.8173 126.352 40.9214C126.176 41.0189 126.04 41.1619 125.942 41.3505C125.844 41.5391 125.796 41.7634 125.796 42.0235V45.1348H124.694ZM132.886 45.2518C132.359 45.2518 131.891 45.1315 131.481 44.8909C131.078 44.6439 130.763 44.3122 130.535 43.8961C130.308 43.4735 130.194 43.0021 130.194 42.4819C130.194 41.9487 130.308 41.4773 130.535 41.0677C130.769 40.658 131.081 40.3362 131.471 40.1021C131.862 39.8615 132.304 39.7412 132.798 39.7412C133.195 39.7412 133.549 39.8095 133.861 39.946C134.173 40.0826 134.436 40.2711 134.651 40.5117C134.866 40.7458 135.028 41.0156 135.139 41.3212C135.256 41.6268 135.314 41.952 135.314 42.2966C135.314 42.3811 135.311 42.4689 135.305 42.5599C135.298 42.6509 135.285 42.7355 135.266 42.8135H131.062V41.9357H134.641L134.115 42.3356C134.18 42.017 134.157 41.7341 134.046 41.487C133.942 41.2335 133.78 41.0351 133.559 40.8921C133.344 40.7425 133.091 40.6678 132.798 40.6678C132.505 40.6678 132.245 40.7425 132.018 40.8921C131.79 41.0351 131.615 41.2432 131.491 41.5163C131.367 41.7829 131.319 42.108 131.345 42.4916C131.312 42.8493 131.361 43.1614 131.491 43.4279C131.628 43.6945 131.816 43.9026 132.057 44.0522C132.304 44.2017 132.583 44.2765 132.895 44.2765C133.214 44.2765 133.484 44.205 133.705 44.0619C133.933 43.9189 134.111 43.7335 134.241 43.506L135.139 43.9449C135.035 44.192 134.872 44.4163 134.651 44.6178C134.436 44.8129 134.176 44.969 133.871 45.086C133.572 45.1965 133.243 45.2518 132.886 45.2518ZM136.858 47.2902C136.728 47.2902 136.598 47.2772 136.468 47.2512C136.344 47.2317 136.231 47.1992 136.127 47.1537V46.2076C136.205 46.2271 136.299 46.2434 136.409 46.2564C136.52 46.2759 136.627 46.2857 136.731 46.2857C137.037 46.2857 137.261 46.2174 137.404 46.0808C137.554 45.9508 137.687 45.746 137.804 45.4664L138.155 44.6666L138.136 45.5932L135.853 39.8583H137.034L138.721 44.257H138.321L139.999 39.8583H141.188L138.857 45.7102C138.734 46.0223 138.578 46.2954 138.389 46.5295C138.207 46.7701 137.989 46.9554 137.736 47.0854C137.489 47.222 137.196 47.2902 136.858 47.2902Z" fill="white"/>
<circle cx="193.712" cy="41.9932" r="12.7334" fill="#404040"/>
<g clip-path="url(#clip0_2109_20224)">
<circle cx="193.983" cy="42.2664" r="11.6497" stroke="white" stroke-width="0.541848"/>
<path d="M193.983 42.8064C194.283 42.8064 194.525 42.5638 194.525 42.2645C194.525 41.9652 194.283 41.7227 193.983 41.7227C193.684 41.7227 193.441 41.9652 193.441 42.2645C193.441 42.5638 193.684 42.8064 193.983 42.8064Z" stroke="white" stroke-width="1.0837" stroke-linecap="round" stroke-linejoin="round"/>
<path d="M197.776 42.8083C198.075 42.8083 198.318 42.5657 198.318 42.2665C198.318 41.9672 198.075 41.7246 197.776 41.7246C197.477 41.7246 197.234 41.9672 197.234 42.2665C197.234 42.5657 197.477 42.8083 197.776 42.8083Z" stroke="white" stroke-width="1.0837" stroke-linecap="round" stroke-linejoin="round"/>
<path d="M190.19 42.8083C190.49 42.8083 190.732 42.5657 190.732 42.2665C190.732 41.9672 190.49 41.7246 190.19 41.7246C189.891 41.7246 189.648 41.9672 189.648 42.2665C189.648 42.5657 189.891 42.8083 190.19 42.8083Z" stroke="white" stroke-width="1.0837" stroke-linecap="round" stroke-linejoin="round"/>
</g>
<circle cx="27.9053" cy="41.9893" r="12.7334" fill="#404040"/>
<path d="M29.8016 46.9587C29.6986 46.9587 29.5957 46.9208 29.5144 46.8395L25.9816 43.3067C25.4072 42.7323 25.4072 41.7895 25.9816 41.2152L29.5144 37.6823C29.6715 37.5252 29.9316 37.5252 30.0888 37.6823C30.2459 37.8394 30.2459 38.0995 30.0888 38.2567L26.5559 41.7895C26.2958 42.0496 26.2958 42.4722 26.5559 42.7323L30.0888 46.2652C30.2459 46.4223 30.2459 46.6824 30.0888 46.8395C30.0075 46.9154 29.9045 46.9587 29.8016 46.9587Z" fill="white"/>
<path d="M71.7919 140.502V133.236H76.5223V134.114H72.7478V136.415H76.3272V137.293H72.7478V139.624H76.5223V140.502H71.7919ZM77.4044 140.502L77.4044 135.245H78.292V136.269L78.1457 136.181C78.2757 135.85 78.4838 135.593 78.7699 135.411C79.0625 135.222 79.4038 135.128 79.794 135.128C80.1711 135.128 80.5059 135.212 80.7985 135.381C81.0976 135.551 81.3317 135.785 81.5008 136.084C81.6763 136.383 81.7641 136.721 81.7641 137.098V140.502H80.8473V137.391C80.8473 137.098 80.7953 136.851 80.6913 136.649C80.5872 136.448 80.4377 136.292 80.2426 136.181C80.054 136.064 79.8362 136.006 79.5891 136.006C79.3421 136.006 79.121 136.064 78.9259 136.181C78.7374 136.292 78.5878 136.451 78.4773 136.659C78.3667 136.861 78.3115 137.105 78.3115 137.391V140.502H77.4044ZM85.003 140.56C84.4893 140.56 84.0927 140.414 83.8131 140.122C83.54 139.829 83.4034 139.416 83.4034 138.883V136.113H82.4476V135.245H82.6427C82.8767 135.245 83.0621 135.173 83.1986 135.03C83.3352 134.887 83.4034 134.699 83.4034 134.465V134.036H84.3105V135.245H85.4906V136.113H84.3105V138.854C84.3105 139.029 84.3365 139.182 84.3885 139.312C84.447 139.442 84.5413 139.546 84.6713 139.624C84.8014 139.696 84.9737 139.731 85.1883 139.731C85.2338 139.731 85.2891 139.728 85.3541 139.722C85.4256 139.715 85.4906 139.709 85.5491 139.702V140.502C85.4646 140.521 85.3703 140.534 85.2663 140.541C85.1623 140.554 85.0745 140.56 85.003 140.56ZM88.8149 140.619C88.3077 140.619 87.8558 140.499 87.4592 140.258C87.0625 140.018 86.7504 139.689 86.5229 139.273C86.2953 138.85 86.1815 138.379 86.1815 137.859C86.1815 137.332 86.292 136.864 86.5131 136.454C86.7407 136.045 87.0463 135.723 87.4299 135.489C87.8201 135.248 88.2557 135.128 88.7369 135.128C89.127 135.128 89.4716 135.199 89.7707 135.342C90.0763 135.479 90.3331 135.668 90.5412 135.908C90.7558 136.142 90.9183 136.412 91.0289 136.718C91.1459 137.017 91.2044 137.329 91.2044 137.654C91.2044 137.726 91.1979 137.807 91.1849 137.898C91.1784 137.982 91.1687 138.064 91.1557 138.142H86.8447V137.361H90.629L90.1998 137.713C90.2584 137.374 90.2259 137.072 90.1023 136.805C89.9788 136.539 89.7967 136.328 89.5561 136.172C89.3156 136.015 89.0425 135.937 88.7369 135.937C88.4313 135.937 88.1517 136.015 87.8981 136.172C87.6445 136.328 87.4462 136.552 87.3031 136.844C87.1666 137.131 87.1113 137.472 87.1373 137.869C87.1113 138.252 87.1698 138.59 87.3129 138.883C87.4624 139.169 87.6705 139.393 87.9371 139.556C88.2102 139.712 88.506 139.79 88.8246 139.79C89.1758 139.79 89.4716 139.709 89.7122 139.546C89.9528 139.384 90.1478 139.176 90.2974 138.922L91.0581 139.312C90.9541 139.553 90.7915 139.774 90.5705 139.975C90.3559 140.17 90.0991 140.326 89.8 140.443C89.5074 140.56 89.179 140.619 88.8149 140.619ZM92.192 140.502V135.245H93.0796V136.211L92.982 136.074C93.1056 135.775 93.2941 135.554 93.5477 135.411C93.8013 135.261 94.1102 135.186 94.4743 135.186H94.7961V136.045H94.3377C93.9671 136.045 93.668 136.162 93.4404 136.396C93.2129 136.623 93.0991 136.949 93.0991 137.371V140.502H92.192ZM97.1804 142.648C97.0634 142.648 96.9464 142.638 96.8293 142.618C96.7123 142.605 96.6017 142.576 96.4977 142.531V141.721C96.5692 141.728 96.657 141.741 96.761 141.76C96.8716 141.78 96.9789 141.789 97.0829 141.789C97.3885 141.789 97.6193 141.721 97.7754 141.585C97.9379 141.448 98.0907 141.217 98.2338 140.892L98.5654 140.102L98.5459 140.892L96.3026 135.245H97.2877L99.0336 139.731H98.741L100.477 135.245H101.482L99.1116 141.126C99.001 141.406 98.858 141.663 98.6824 141.897C98.5134 142.131 98.3053 142.313 98.0582 142.443C97.8111 142.579 97.5185 142.648 97.1804 142.648ZM104.495 140.619C103.988 140.619 103.53 140.502 103.12 140.268C102.71 140.027 102.385 139.699 102.145 139.283C101.904 138.867 101.784 138.395 101.784 137.869C101.784 137.342 101.901 136.874 102.135 136.464C102.375 136.054 102.7 135.729 103.11 135.489C103.52 135.248 103.981 135.128 104.495 135.128C105.002 135.128 105.461 135.248 105.87 135.489C106.28 135.723 106.602 136.045 106.836 136.454C107.076 136.864 107.197 137.335 107.197 137.869C107.197 138.402 107.073 138.876 106.826 139.293C106.579 139.702 106.251 140.027 105.841 140.268C105.438 140.502 104.989 140.619 104.495 140.619ZM104.495 139.741C104.82 139.741 105.113 139.66 105.373 139.497C105.639 139.335 105.848 139.11 105.997 138.824C106.153 138.538 106.231 138.22 106.231 137.869C106.231 137.511 106.153 137.196 105.997 136.923C105.848 136.643 105.639 136.422 105.373 136.259C105.113 136.09 104.82 136.006 104.495 136.006C104.163 136.006 103.864 136.09 103.598 136.259C103.338 136.422 103.13 136.643 102.974 136.923C102.818 137.196 102.739 137.511 102.739 137.869C102.739 138.22 102.818 138.538 102.974 138.824C103.13 139.11 103.338 139.335 103.598 139.497C103.864 139.66 104.163 139.741 104.495 139.741ZM110.048 140.619C109.67 140.619 109.329 140.531 109.023 140.356C108.724 140.18 108.49 139.936 108.321 139.624C108.159 139.306 108.077 138.941 108.077 138.532V135.245H108.984V138.434C108.984 138.694 109.036 138.922 109.141 139.117C109.251 139.312 109.401 139.465 109.589 139.575C109.784 139.686 110.005 139.741 110.252 139.741C110.499 139.741 110.717 139.686 110.906 139.575C111.101 139.465 111.25 139.306 111.355 139.097C111.465 138.889 111.52 138.642 111.52 138.356V135.245H112.437V140.502H111.55V139.478L111.696 139.566C111.572 139.897 111.361 140.157 111.062 140.346C110.769 140.528 110.431 140.619 110.048 140.619ZM113.647 140.502V135.245H114.535V136.211L114.437 136.074C114.561 135.775 114.749 135.554 115.003 135.411C115.257 135.261 115.565 135.186 115.93 135.186H116.251V136.045H115.793C115.422 136.045 115.123 136.162 114.896 136.396C114.668 136.623 114.554 136.949 114.554 137.371V140.502H113.647ZM119.894 140.619C119.549 140.619 119.244 140.557 118.977 140.434C118.717 140.304 118.512 140.128 118.363 139.907C118.213 139.679 118.138 139.419 118.138 139.127C118.138 138.847 118.197 138.597 118.314 138.376C118.437 138.148 118.626 137.956 118.88 137.8C119.14 137.644 119.465 137.534 119.855 137.469L121.806 137.147V137.908L120.06 138.2C119.722 138.259 119.474 138.366 119.318 138.522C119.169 138.678 119.094 138.87 119.094 139.097C119.094 139.312 119.179 139.491 119.348 139.634C119.523 139.777 119.741 139.848 120.001 139.848C120.333 139.848 120.619 139.78 120.859 139.644C121.107 139.501 121.298 139.309 121.435 139.068C121.578 138.828 121.649 138.561 121.649 138.268V136.932C121.649 136.646 121.542 136.415 121.328 136.24C121.12 136.058 120.843 135.967 120.499 135.967C120.199 135.967 119.933 136.045 119.699 136.201C119.471 136.35 119.302 136.552 119.192 136.805L118.402 136.396C118.499 136.155 118.655 135.941 118.87 135.752C119.084 135.557 119.335 135.404 119.621 135.294C119.907 135.183 120.206 135.128 120.518 135.128C120.921 135.128 121.276 135.206 121.581 135.362C121.887 135.512 122.124 135.723 122.293 135.996C122.469 136.263 122.557 136.575 122.557 136.932V140.502H121.669V139.507L121.835 139.566C121.724 139.774 121.575 139.956 121.386 140.112C121.198 140.268 120.976 140.391 120.723 140.482C120.469 140.573 120.193 140.619 119.894 140.619ZM123.768 140.502V135.245H124.655V136.318L124.529 136.152C124.659 135.82 124.867 135.567 125.153 135.391C125.439 135.216 125.761 135.128 126.118 135.128C126.528 135.128 126.895 135.242 127.22 135.469C127.552 135.697 127.78 135.996 127.903 136.367L127.65 136.376C127.786 135.967 128.017 135.658 128.342 135.45C128.667 135.235 129.028 135.128 129.425 135.128C129.789 135.128 130.117 135.212 130.41 135.381C130.709 135.551 130.946 135.785 131.122 136.084C131.297 136.383 131.385 136.721 131.385 137.098V140.502H130.468V137.391C130.468 137.098 130.416 136.851 130.312 136.649C130.208 136.448 130.065 136.292 129.883 136.181C129.708 136.064 129.499 136.006 129.259 136.006C129.025 136.006 128.814 136.064 128.625 136.181C128.443 136.292 128.297 136.451 128.186 136.659C128.082 136.861 128.03 137.105 128.03 137.391V140.502H127.113V137.391C127.113 137.098 127.061 136.851 126.957 136.649C126.853 136.448 126.71 136.292 126.528 136.181C126.352 136.064 126.144 136.006 125.904 136.006C125.67 136.006 125.458 136.064 125.27 136.181C125.088 136.292 124.941 136.451 124.831 136.659C124.727 136.861 124.675 137.105 124.675 137.391V140.502H123.768ZM134.975 140.619C134.468 140.619 134.01 140.502 133.6 140.268C133.19 140.027 132.865 139.699 132.625 139.283C132.384 138.867 132.264 138.395 132.264 137.869C132.264 137.342 132.381 136.874 132.615 136.464C132.855 136.054 133.181 135.729 133.59 135.489C134 135.248 134.461 135.128 134.975 135.128C135.482 135.128 135.941 135.248 136.35 135.489C136.76 135.723 137.082 136.045 137.316 136.454C137.557 136.864 137.677 137.335 137.677 137.869C137.677 138.402 137.553 138.876 137.306 139.293C137.059 139.702 136.731 140.027 136.321 140.268C135.918 140.502 135.469 140.619 134.975 140.619ZM134.975 139.741C135.3 139.741 135.593 139.66 135.853 139.497C136.12 139.335 136.328 139.11 136.477 138.824C136.633 138.538 136.711 138.22 136.711 137.869C136.711 137.511 136.633 137.196 136.477 136.923C136.328 136.643 136.12 136.422 135.853 136.259C135.593 136.09 135.3 136.006 134.975 136.006C134.644 136.006 134.344 136.09 134.078 136.259C133.818 136.422 133.61 136.643 133.454 136.923C133.298 137.196 133.22 137.511 133.22 137.869C133.22 138.22 133.298 138.538 133.454 138.824C133.61 139.11 133.818 139.335 134.078 139.497C134.344 139.66 134.644 139.741 134.975 139.741ZM140.528 140.619C140.151 140.619 139.809 140.531 139.504 140.356C139.204 140.18 138.97 139.936 138.801 139.624C138.639 139.306 138.557 138.941 138.557 138.532V135.245H139.465V138.434C139.465 138.694 139.517 138.922 139.621 139.117C139.731 139.312 139.881 139.465 140.069 139.575C140.264 139.686 140.485 139.741 140.732 139.741C140.98 139.741 141.197 139.686 141.386 139.575C141.581 139.465 141.731 139.306 141.835 139.097C141.945 138.889 142 138.642 142 138.356V135.245H142.917V140.502H142.03V139.478L142.176 139.566C142.052 139.897 141.841 140.157 141.542 140.346C141.249 140.528 140.911 140.619 140.528 140.619ZM144.127 140.502V135.245H145.015V136.269L144.869 136.181C144.999 135.85 145.207 135.593 145.493 135.411C145.785 135.222 146.127 135.128 146.517 135.128C146.894 135.128 147.229 135.212 147.522 135.381C147.821 135.551 148.055 135.785 148.224 136.084C148.399 136.383 148.487 136.721 148.487 137.098V140.502H147.57V137.391C147.57 137.098 147.518 136.851 147.414 136.649C147.31 136.448 147.161 136.292 146.966 136.181C146.777 136.064 146.559 136.006 146.312 136.006C146.065 136.006 145.844 136.064 145.649 136.181C145.46 136.292 145.311 136.451 145.2 136.659C145.09 136.861 145.034 137.105 145.034 137.391V140.502H144.127ZM151.726 140.56C151.212 140.56 150.816 140.414 150.536 140.122C150.263 139.829 150.126 139.416 150.126 138.883V136.113H149.171V135.245H149.366C149.6 135.245 149.785 135.173 149.922 135.03C150.058 134.887 150.126 134.699 150.126 134.465V134.036H151.033V135.245H152.214V136.113H151.033V138.854C151.033 139.029 151.059 139.182 151.111 139.312C151.17 139.442 151.264 139.546 151.394 139.624C151.524 139.696 151.697 139.731 151.911 139.731C151.957 139.731 152.012 139.728 152.077 139.722C152.149 139.715 152.214 139.709 152.272 139.702V140.502C152.188 140.521 152.093 140.534 151.989 140.541C151.885 140.554 151.797 140.56 151.726 140.56Z" fill="white" fill-opacity="0.5"/>
<rect x="18.4238" y="76.9414" width="188.021" height="39.013" rx="10.837" fill="#313131"/>
<circle cx="37.9301" cy="96.4477" r="13.0043" fill="#60DBE0"/>
<path d="M57.818 93.8633V92.9096H58.1908C58.4798 92.9096 58.7109 92.8258 58.8843 92.6582C59.0577 92.4848 59.1444 92.2536 59.1444 91.9646V87.4045H60.1588V91.93C60.1588 92.323 60.0779 92.664 59.916 92.953C59.76 93.242 59.5317 93.4674 59.2311 93.6292C58.9364 93.7853 58.5896 93.8633 58.1908 93.8633H57.818ZM62.8866 93.9673C62.5341 93.9673 62.2249 93.8893 61.959 93.7332C61.6931 93.5714 61.4851 93.3489 61.3348 93.0657C61.1903 92.7767 61.118 92.4444 61.118 92.0687V89.173H62.0977V91.982C62.0977 92.1958 62.141 92.3837 62.2277 92.5455C62.3144 92.7073 62.4358 92.8345 62.5919 92.927C62.7479 93.0137 62.9271 93.057 63.1294 93.057C63.3374 93.057 63.5195 93.0108 63.6756 92.9183C63.8316 92.8258 63.953 92.6958 64.0397 92.5282C64.1322 92.3606 64.1784 92.164 64.1784 91.9386V89.173H65.1494V93.8633H64.2217V92.9443L64.3258 93.0657C64.216 93.3547 64.0339 93.5772 63.7796 93.7332C63.5253 93.8893 63.2276 93.9673 62.8866 93.9673ZM66.1198 93.8633V87.3004H67.0995V93.8633H66.1198ZM68.0715 93.8633V89.173H69.0512V93.8633H68.0715ZM68.0715 88.5315V87.4045H69.0512V88.5315H68.0715ZM72.2252 93.9673C71.7571 93.9673 71.3409 93.8604 70.9768 93.6465C70.6185 93.4269 70.3382 93.1321 70.1359 92.7622C69.9336 92.3866 69.8324 91.9675 69.8324 91.5052C69.8324 91.0312 69.9336 90.6122 70.1359 90.2481C70.3439 89.884 70.6214 89.5979 70.9682 89.3898C71.3149 89.1759 71.708 89.069 72.1472 89.069C72.4998 89.069 72.8148 89.1297 73.0922 89.2511C73.3696 89.3724 73.6037 89.5401 73.7944 89.7539C73.9852 89.962 74.1297 90.2018 74.2279 90.4735C74.3319 90.7451 74.384 91.0341 74.384 91.3404C74.384 91.4156 74.3811 91.4936 74.3753 91.5745C74.3695 91.6554 74.358 91.7306 74.3406 91.7999H70.604V91.0197H73.7858L73.3176 91.3751C73.3754 91.0919 73.3552 90.8405 73.2569 90.6209C73.1644 90.3955 73.02 90.2192 72.8234 90.092C72.6327 89.9591 72.4073 89.8926 72.1472 89.8926C71.8871 89.8926 71.6559 89.9591 71.4536 90.092C71.2514 90.2192 71.0953 90.4041 70.9855 90.6469C70.8757 90.8838 70.8323 91.1728 70.8554 91.5138C70.8266 91.8317 70.8699 92.1091 70.9855 92.3461C71.1069 92.5831 71.2745 92.768 71.4883 92.901C71.708 93.0339 71.9565 93.1004 72.2339 93.1004C72.5171 93.1004 72.757 93.0368 72.9535 92.9096C73.1558 92.7825 73.3147 92.6178 73.4303 92.4155L74.2279 92.8056C74.1354 93.0252 73.9909 93.2246 73.7944 93.4038C73.6037 93.5772 73.3725 93.7159 73.1009 93.8199C72.835 93.9182 72.5431 93.9673 72.2252 93.9673ZM77.1953 93.9153C76.7041 93.9153 76.3226 93.7766 76.051 93.4992C75.7793 93.2217 75.6435 92.8316 75.6435 92.3288V90.0573H74.8199V89.173H74.9499C75.1696 89.173 75.3401 89.1095 75.4614 88.9823C75.5828 88.8552 75.6435 88.6818 75.6435 88.4621V88.098H76.6231V89.173H77.6895V90.0573H76.6231V92.2854C76.6231 92.4473 76.6492 92.586 76.7012 92.7016C76.7532 92.8114 76.837 92.8981 76.9526 92.9616C77.0682 93.0194 77.2185 93.0483 77.4034 93.0483C77.4496 93.0483 77.5017 93.0455 77.5595 93.0397C77.6173 93.0339 77.6722 93.0281 77.7242 93.0223V93.8633C77.6433 93.8748 77.5537 93.8864 77.4554 93.898C77.3572 93.9095 77.2705 93.9153 77.1953 93.9153ZM81.1493 93.8633L79.3721 87.4045H80.4558L81.8949 92.9963H81.6262L83.1173 87.4045H84.1837L85.6748 92.9963H85.3974L86.8452 87.4045H87.9203L86.1517 93.8633H84.9986L83.4988 88.3581H83.8022L82.2937 93.8633H81.1493ZM88.4128 93.8633V89.173H89.3925V93.8633H88.4128ZM88.4128 88.5315V87.4045H89.3925V88.5315H88.4128ZM90.3645 93.8633V87.3004H91.3441V93.8633H90.3645ZM92.3161 93.8633V87.3004H93.2958V93.8633H92.3161ZM94.2678 93.8633V89.173H95.2475V93.8633H94.2678ZM94.2678 88.5315V87.4045H95.2475V88.5315H94.2678ZM97.6239 93.9673C97.3061 93.9673 97.0257 93.9124 96.783 93.8026C96.546 93.687 96.3611 93.5309 96.2281 93.3344C96.0952 93.1321 96.0287 92.8952 96.0287 92.6235C96.0287 92.3692 96.0837 92.1409 96.1935 91.9386C96.3091 91.7363 96.4853 91.5658 96.7223 91.4271C96.9593 91.2884 97.2569 91.1902 97.6153 91.1324L99.2452 90.8636V91.6352L97.806 91.8866C97.5459 91.9329 97.3552 92.0167 97.2338 92.138C97.1124 92.2536 97.0518 92.4039 97.0518 92.5889C97.0518 92.768 97.1182 92.9154 97.2512 93.031C97.3899 93.1408 97.5661 93.1957 97.78 93.1957C98.0459 93.1957 98.2771 93.1379 98.4736 93.0223C98.6759 92.9067 98.8319 92.7536 98.9417 92.5628C99.0515 92.3663 99.1064 92.1496 99.1064 91.9126V90.7076C99.1064 90.4764 99.0197 90.2885 98.8464 90.144C98.6787 89.9938 98.4533 89.9186 98.1701 89.9186C97.91 89.9186 97.6817 89.988 97.4852 90.1267C97.2945 90.2596 97.1529 90.433 97.0604 90.6469L96.2455 90.2394C96.3322 90.0082 96.4738 89.8059 96.6703 89.6325C96.8668 89.4534 97.0951 89.3147 97.3552 89.2164C97.6211 89.1181 97.9014 89.069 98.1961 89.069C98.566 89.069 98.8926 89.1384 99.1758 89.2771C99.4648 89.4158 99.6873 89.6094 99.8434 89.8579C100.005 90.1007 100.086 90.3839 100.086 90.7076V93.8633H99.1498V93.0137L99.3492 93.0397C99.2394 93.2304 99.0978 93.3951 98.9244 93.5338C98.7568 93.6726 98.5631 93.7795 98.3435 93.8546C98.1297 93.9297 97.8898 93.9673 97.6239 93.9673ZM101.058 93.8633V89.173H101.994V90.1874L101.873 90.0313C101.971 89.7135 102.151 89.4736 102.411 89.3118C102.671 89.1499 102.968 89.069 103.304 89.069C103.679 89.069 104.012 89.1702 104.301 89.3724C104.595 89.569 104.792 89.8319 104.89 90.1614L104.613 90.1874C104.751 89.8117 104.962 89.5314 105.246 89.3464C105.535 89.1615 105.864 89.069 106.234 89.069C106.558 89.069 106.849 89.1441 107.11 89.2944C107.375 89.4447 107.586 89.6528 107.742 89.9186C107.898 90.1845 107.976 90.4879 107.976 90.8289V93.8633H106.997V91.0977C106.997 90.8607 106.953 90.6613 106.867 90.4995C106.786 90.3319 106.67 90.2047 106.52 90.118C106.376 90.0256 106.205 89.9793 106.008 89.9793C105.812 89.9793 105.639 90.0256 105.488 90.118C105.338 90.2047 105.22 90.3319 105.133 90.4995C105.046 90.6671 105.003 90.8665 105.003 91.0977V93.8633H104.032V91.0977C104.032 90.8607 103.988 90.6613 103.902 90.4995C103.821 90.3319 103.705 90.2047 103.555 90.118C103.411 90.0256 103.237 89.9793 103.035 89.9793C102.838 89.9793 102.665 90.0256 102.515 90.118C102.364 90.2047 102.246 90.3319 102.159 90.4995C102.078 90.6671 102.038 90.8665 102.038 91.0977V93.8633H101.058ZM110.586 93.9673C110.106 93.9673 109.684 93.8488 109.32 93.6119C108.961 93.3749 108.71 93.057 108.566 92.6582L109.32 92.3028C109.447 92.5686 109.62 92.7796 109.84 92.9356C110.065 93.0917 110.314 93.1697 110.586 93.1697C110.817 93.1697 111.005 93.1177 111.149 93.0137C111.294 92.9096 111.366 92.768 111.366 92.5889C111.366 92.4733 111.334 92.3808 111.27 92.3114C111.207 92.2363 111.126 92.1756 111.028 92.1294C110.935 92.0831 110.84 92.0485 110.742 92.0253L110.005 91.8173C109.6 91.7017 109.297 91.5283 109.094 91.2971C108.898 91.0601 108.8 90.7856 108.8 90.4735C108.8 90.1903 108.872 89.9446 109.016 89.7366C109.161 89.5227 109.36 89.358 109.615 89.2424C109.869 89.1268 110.155 89.069 110.473 89.069C110.901 89.069 111.282 89.1759 111.617 89.3898C111.952 89.5979 112.189 89.8897 112.328 90.2654L111.574 90.6209C111.481 90.3955 111.334 90.2163 111.132 90.0834C110.935 89.9504 110.713 89.884 110.464 89.884C110.25 89.884 110.08 89.936 109.953 90.04C109.826 90.1383 109.762 90.2683 109.762 90.4301C109.762 90.5399 109.791 90.6324 109.849 90.7076C109.906 90.7769 109.982 90.8347 110.074 90.881C110.167 90.9214 110.262 90.9561 110.36 90.985L111.123 91.2104C111.51 91.3202 111.808 91.4936 112.016 91.7306C112.224 91.9618 112.328 92.2392 112.328 92.5628C112.328 92.8403 112.253 93.0859 112.103 93.2998C111.958 93.5078 111.756 93.6726 111.496 93.7939C111.236 93.9095 110.932 93.9673 110.586 93.9673Z" fill="white"/>
<path d="M59.2051 107.031V105.724H57.8982V105.074H59.2051V103.78H59.8553V105.074H61.1493V105.724H59.8553V107.031H59.2051ZM62.6227 107.031V102.837H61.6929V102.187H63.3834V107.031H62.6227ZM66.8452 107.109C66.5895 107.109 66.3489 107.064 66.1235 106.973C65.8981 106.877 65.703 106.745 65.5383 106.576C65.3736 106.407 65.2565 106.203 65.1872 105.965L65.8309 105.718C65.9132 105.948 66.0476 106.123 66.234 106.244C66.4204 106.366 66.6241 106.427 66.8452 106.427C67.0273 106.427 67.1877 106.385 67.3264 106.303C67.4651 106.221 67.5735 106.108 67.6515 105.965C67.7338 105.822 67.775 105.659 67.775 105.477C67.775 105.291 67.7338 105.128 67.6515 104.99C67.5735 104.847 67.4651 104.736 67.3264 104.658C67.1877 104.576 67.0273 104.534 66.8452 104.534C66.6632 104.534 66.4963 104.576 66.3446 104.658C66.1928 104.74 66.0823 104.851 66.0129 104.99L65.3952 104.853L65.7724 102.187H68.3537V102.837H66.0715L66.3641 102.519L66.0845 104.56L65.8439 104.398C65.9739 104.216 66.1321 104.084 66.3185 104.001C66.5049 103.919 66.7173 103.878 66.9558 103.878C67.2722 103.878 67.5475 103.949 67.7815 104.092C68.0199 104.231 68.2042 104.422 68.3342 104.664C68.4686 104.903 68.5358 105.174 68.5358 105.477C68.5358 105.785 68.4621 106.062 68.3147 106.31C68.1673 106.557 67.9658 106.752 67.71 106.895C67.4586 107.038 67.1703 107.109 66.8452 107.109ZM69.9158 107.031L69.9158 102.837H68.986V102.187H70.6765V107.031H69.9158ZM71.5127 107.031V106.479L72.8392 105.061C73.0992 104.784 73.303 104.56 73.4504 104.391C73.6021 104.218 73.7104 104.066 73.7755 103.936C73.8448 103.806 73.8795 103.67 73.8795 103.527C73.8795 103.293 73.808 103.113 73.6649 102.987C73.5219 102.857 73.3377 102.792 73.1122 102.792C72.8782 102.792 72.6766 102.859 72.5075 102.993C72.3385 103.123 72.2214 103.314 72.1564 103.566L71.4802 103.371C71.5322 103.115 71.6363 102.894 71.7923 102.707C71.9484 102.517 72.1391 102.369 72.3645 102.265C72.5942 102.161 72.8413 102.109 73.1057 102.109C73.4135 102.109 73.6823 102.168 73.912 102.285C74.1418 102.397 74.3195 102.556 74.4452 102.759C74.5752 102.963 74.6403 103.199 74.6403 103.468C74.6403 103.646 74.6056 103.819 74.5362 103.988C74.4712 104.153 74.3693 104.329 74.2306 104.515C74.0919 104.697 73.9142 104.903 73.6974 105.133L72.5271 106.381H74.7313V107.031H71.5127ZM77.8553 107.109C77.5952 107.109 77.3503 107.062 77.1206 106.966C76.8952 106.871 76.7001 106.736 76.5354 106.563C76.375 106.39 76.2601 106.186 76.1908 105.952L76.841 105.705C76.9277 105.935 77.0599 106.112 77.2376 106.238C77.4153 106.364 77.6213 106.427 77.8553 106.427C78.0461 106.427 78.2108 106.39 78.3495 106.316C78.4925 106.242 78.6031 106.138 78.6811 106.004C78.7635 105.87 78.8046 105.707 78.8046 105.516C78.8046 105.33 78.7635 105.169 78.6811 105.035C78.6031 104.901 78.4925 104.799 78.3495 104.729C78.2108 104.66 78.0461 104.625 77.8553 104.625C77.7773 104.625 77.6971 104.632 77.6147 104.645C77.5367 104.658 77.4674 104.675 77.4067 104.697L77.2376 104.339L78.512 102.837H76.4509V102.187H79.3703V102.805L78.1219 104.3L78.1024 104.053C78.3928 104.058 78.6486 104.123 78.8697 104.248C79.0907 104.37 79.262 104.539 79.3833 104.755C79.509 104.968 79.5719 105.215 79.5719 105.497C79.5719 105.8 79.4982 106.075 79.3508 106.323C79.2034 106.565 78.9997 106.758 78.7396 106.901C78.4839 107.04 78.1891 107.109 77.8553 107.109ZM80.1202 107.031V106.479L81.4467 105.061C81.7067 104.784 81.9105 104.56 82.0579 104.391C82.2096 104.218 82.318 104.066 82.383 103.936C82.4523 103.806 82.487 103.67 82.487 103.527C82.487 103.293 82.4155 103.113 82.2724 102.987C82.1294 102.857 81.9452 102.792 81.7198 102.792C81.4857 102.792 81.2841 102.859 81.115 102.993C80.946 103.123 80.829 103.314 80.7639 103.566L80.0877 103.371C80.1397 103.115 80.2438 102.894 80.3998 102.707C80.5559 102.517 80.7466 102.369 80.972 102.265C81.2017 102.161 81.4488 102.109 81.7132 102.109C82.021 102.109 82.2898 102.168 82.5195 102.285C82.7493 102.397 82.927 102.556 83.0527 102.759C83.1827 102.963 83.2478 103.199 83.2478 103.468C83.2478 103.646 83.2131 103.819 83.1437 103.988C83.0787 104.153 82.9768 104.329 82.8381 104.515C82.6994 104.697 82.5217 104.903 82.3049 105.133L81.1346 106.381H83.3388V107.031H80.1202ZM85.4563 107.109C85.1962 107.109 84.9513 107.062 84.7215 106.966C84.4961 106.871 84.301 106.736 84.1363 106.563C83.9759 106.39 83.8611 106.186 83.7917 105.952L84.4419 105.705C84.5286 105.935 84.6608 106.112 84.8386 106.238C85.0163 106.364 85.2222 106.427 85.4563 106.427C85.647 106.427 85.8117 106.39 85.9504 106.316C86.0935 106.242 86.204 106.138 86.282 106.004C86.3644 105.87 86.4056 105.707 86.4056 105.516C86.4056 105.33 86.3644 105.169 86.282 105.035C86.204 104.901 86.0935 104.799 85.9504 104.729C85.8117 104.66 85.647 104.625 85.4563 104.625C85.3782 104.625 85.298 104.632 85.2157 104.645C85.1377 104.658 85.0683 104.675 85.0076 104.697L84.8386 104.339L86.113 102.837H84.0518V102.187H86.9713V102.805L85.7229 104.3L85.7033 104.053C85.9938 104.058 86.2495 104.123 86.4706 104.248C86.6917 104.37 86.8629 104.539 86.9843 104.755C87.11 104.968 87.1728 105.215 87.1728 105.497C87.1728 105.8 87.0991 106.075 86.9518 106.323C86.8044 106.565 86.6006 106.758 86.3406 106.901C86.0848 107.04 85.79 107.109 85.4563 107.109ZM90.3468 107.109C90.091 107.109 89.8504 107.064 89.625 106.973C89.3996 106.877 89.2045 106.745 89.0398 106.576C88.8751 106.407 88.7581 106.203 88.6887 105.965L89.3324 105.718C89.4148 105.948 89.5492 106.123 89.7356 106.244C89.922 106.366 90.1257 106.427 90.3468 106.427C90.5288 106.427 90.6892 106.385 90.8279 106.303C90.9666 106.221 91.075 106.108 91.153 105.965C91.2354 105.822 91.2766 105.659 91.2766 105.477C91.2766 105.291 91.2354 105.128 91.153 104.99C91.075 104.847 90.9666 104.736 90.8279 104.658C90.6892 104.576 90.5288 104.534 90.3468 104.534C90.1647 104.534 89.9978 104.576 89.8461 104.658C89.6944 104.74 89.5838 104.851 89.5145 104.99L88.8968 104.853L89.2739 102.187H91.8553V102.837H89.573L89.8656 102.519L89.586 104.56L89.3454 104.398C89.4755 104.216 89.6337 104.084 89.8201 104.001C90.0065 103.919 90.2189 103.878 90.4573 103.878C90.7737 103.878 91.049 103.949 91.2831 104.092C91.5215 104.231 91.7057 104.422 91.8358 104.664C91.9701 104.903 92.0373 105.174 92.0373 105.477C92.0373 105.785 91.9636 106.062 91.8163 106.31C91.6689 106.557 91.4673 106.752 91.2116 106.895C90.9601 107.038 90.6719 107.109 90.3468 107.109ZM94.2301 107.109C93.9136 107.109 93.6319 107.04 93.3848 106.901C93.1377 106.762 92.9427 106.572 92.7996 106.329C92.6609 106.086 92.5915 105.811 92.5915 105.503C92.5915 105.343 92.6089 105.182 92.6436 105.022C92.6782 104.862 92.7389 104.695 92.8256 104.521C92.9166 104.348 93.038 104.162 93.1897 103.962L94.5422 102.187H95.459L93.8009 104.333L93.6709 104.248C93.7316 104.179 93.7966 104.125 93.866 104.086C93.9397 104.047 94.0155 104.019 94.0935 104.001C94.1759 103.984 94.2626 103.975 94.3536 103.975C94.6441 103.975 94.9041 104.042 95.1339 104.177C95.3636 104.311 95.5435 104.493 95.6736 104.723C95.8079 104.953 95.8751 105.217 95.8751 105.516C95.8751 105.82 95.8036 106.093 95.6606 106.336C95.5175 106.574 95.3224 106.762 95.0754 106.901C94.8326 107.04 94.5509 107.109 94.2301 107.109ZM94.2301 106.427C94.3991 106.427 94.5487 106.388 94.6787 106.31C94.8088 106.231 94.9128 106.125 94.9908 105.991C95.0689 105.852 95.1079 105.696 95.1079 105.523C95.1079 105.345 95.0689 105.189 94.9908 105.055C94.9171 104.92 94.8131 104.816 94.6787 104.742C94.5487 104.664 94.3991 104.625 94.2301 104.625C94.0654 104.625 93.9158 104.664 93.7814 104.742C93.6514 104.816 93.5474 104.92 93.4693 105.055C93.3913 105.189 93.3523 105.345 93.3523 105.523C93.3523 105.696 93.3913 105.852 93.4693 105.991C93.5474 106.125 93.6514 106.231 93.7814 106.31C93.9158 106.388 94.0654 106.427 94.2301 106.427ZM97.9531 107.109C97.6931 107.109 97.4481 107.062 97.2184 106.966C96.993 106.871 96.7979 106.736 96.6332 106.563C96.4728 106.39 96.3579 106.186 96.2886 105.952L96.9388 105.705C97.0255 105.935 97.1577 106.112 97.3354 106.238C97.5132 106.364 97.7191 106.427 97.9531 106.427C98.1439 106.427 98.3086 106.39 98.4473 106.316C98.5904 106.242 98.7009 106.138 98.7789 106.004C98.8613 105.87 98.9025 105.707 98.9025 105.516C98.9025 105.33 98.8613 105.169 98.7789 105.035C98.7009 104.901 98.5904 104.799 98.4473 104.729C98.3086 104.66 98.1439 104.625 97.9531 104.625C97.8751 104.625 97.7949 104.632 97.7126 104.645C97.6345 104.658 97.5652 104.675 97.5045 104.697L97.3354 104.339L98.6099 102.837H96.5487V102.187H99.4681V102.805L98.2197 104.3L98.2002 104.053C98.4907 104.058 98.7464 104.123 98.9675 104.248C99.1885 104.37 99.3598 104.539 99.4811 104.755C99.6069 104.968 99.6697 105.215 99.6697 105.497C99.6697 105.8 99.596 106.075 99.4486 106.323C99.3013 106.565 99.0975 106.758 98.8374 106.901C98.5817 107.04 98.2869 107.109 97.9531 107.109ZM100.615 107.031L102.273 104.886L102.403 104.97C102.342 105.035 102.275 105.087 102.201 105.126C102.132 105.165 102.056 105.193 101.974 105.211C101.896 105.228 101.811 105.237 101.72 105.237C101.43 105.237 101.17 105.172 100.94 105.042C100.71 104.907 100.528 104.725 100.394 104.495C100.264 104.261 100.199 103.997 100.199 103.702C100.199 103.394 100.27 103.121 100.413 102.883C100.556 102.644 100.751 102.456 100.998 102.317C101.245 102.178 101.527 102.109 101.844 102.109C102.164 102.109 102.446 102.178 102.689 102.317C102.936 102.456 103.129 102.647 103.268 102.889C103.411 103.128 103.482 103.401 103.482 103.709C103.482 103.873 103.465 104.036 103.43 104.196C103.395 104.357 103.335 104.524 103.248 104.697C103.161 104.866 103.04 105.052 102.884 105.256L101.531 107.031H100.615ZM101.844 104.593C102.013 104.593 102.162 104.554 102.292 104.476C102.422 104.398 102.526 104.292 102.604 104.157C102.682 104.023 102.721 103.869 102.721 103.696C102.721 103.518 102.682 103.362 102.604 103.227C102.526 103.089 102.42 102.983 102.286 102.909C102.156 102.831 102.008 102.792 101.844 102.792C101.679 102.792 101.529 102.831 101.395 102.909C101.265 102.983 101.161 103.089 101.083 103.227C101.005 103.362 100.966 103.518 100.966 103.696C100.966 103.869 101.003 104.023 101.076 104.157C101.154 104.292 101.261 104.398 101.395 104.476C101.529 104.554 101.679 104.593 101.844 104.593Z" fill="#B9B9B9"/>
<rect x="23.2998" y="410.719" width="177.184" height="29.2554" rx="14.6277" fill="#404040"/>
<path d="M89.3306 428.409C88.9202 428.409 88.5445 428.334 88.2035 428.183C87.8625 428.027 87.5736 427.816 87.3366 427.55C87.0996 427.285 86.9291 426.987 86.8251 426.657L87.562 426.354C87.718 426.77 87.9492 427.091 88.2556 427.316C88.5677 427.536 88.9318 427.646 89.3479 427.646C89.6022 427.646 89.8247 427.605 90.0155 427.524C90.2062 427.444 90.3536 427.331 90.4576 427.186C90.5674 427.036 90.6223 426.863 90.6223 426.666C90.6223 426.394 90.5443 426.181 90.3883 426.025C90.238 425.863 90.0155 425.741 89.7207 425.66L88.533 425.296C88.0648 425.152 87.7065 424.924 87.458 424.611C87.2094 424.299 87.0852 423.941 87.0852 423.536C87.0852 423.184 87.169 422.875 87.3366 422.609C87.51 422.337 87.7469 422.126 88.0475 421.976C88.3538 421.82 88.7006 421.742 89.0878 421.742C89.4751 421.742 89.8247 421.811 90.1369 421.95C90.4547 422.089 90.7235 422.276 90.9431 422.513C91.1628 422.745 91.3246 423.01 91.4286 423.311L90.7004 423.614C90.5617 423.25 90.3536 422.976 90.0762 422.791C89.7987 422.6 89.4722 422.505 89.0965 422.505C88.8653 422.505 88.6601 422.545 88.481 422.626C88.3076 422.701 88.1718 422.814 88.0735 422.964C87.981 423.109 87.9348 423.282 87.9348 423.484C87.9348 423.721 88.0099 423.932 88.1602 424.117C88.3105 424.302 88.5388 424.444 88.8451 424.542L89.9288 424.863C90.4374 425.019 90.8217 425.241 91.0818 425.53C91.3419 425.819 91.472 426.178 91.472 426.605C91.472 426.958 91.3795 427.27 91.1945 427.542C91.0154 427.813 90.764 428.027 90.4403 428.183C90.1224 428.334 89.7525 428.409 89.3306 428.409ZM94.5972 428.409C94.1464 428.409 93.7447 428.302 93.3921 428.088C93.0396 427.874 92.7622 427.582 92.5599 427.212C92.3576 426.837 92.2564 426.418 92.2564 425.955C92.2564 425.487 92.3547 425.071 92.5512 424.707C92.7535 424.343 93.0251 424.057 93.3661 423.849C93.7129 423.635 94.1002 423.528 94.5279 423.528C94.8746 423.528 95.181 423.591 95.4468 423.718C95.7185 423.84 95.9468 424.007 96.1317 424.221C96.3225 424.429 96.4669 424.669 96.5652 424.941C96.6692 425.207 96.7213 425.484 96.7213 425.773C96.7213 425.837 96.7155 425.909 96.7039 425.99C96.6981 426.065 96.6895 426.137 96.6779 426.207H92.846V425.513H96.2097L95.8283 425.825C95.8803 425.525 95.8514 425.256 95.7416 425.019C95.6318 424.782 95.4699 424.594 95.2561 424.455C95.0422 424.317 94.7995 424.247 94.5279 424.247C94.2562 424.247 94.0077 424.317 93.7823 424.455C93.5569 424.594 93.3806 424.794 93.2534 425.054C93.1321 425.308 93.0829 425.611 93.106 425.964C93.0829 426.305 93.1349 426.605 93.2621 426.866C93.395 427.12 93.58 427.319 93.8169 427.464C94.0597 427.602 94.3227 427.672 94.6059 427.672C94.918 427.672 95.181 427.6 95.3948 427.455C95.6087 427.311 95.782 427.126 95.915 426.9L96.5912 427.247C96.4987 427.461 96.3542 427.657 96.1577 427.837C95.967 428.01 95.7387 428.149 95.4728 428.253C95.2127 428.357 94.9209 428.409 94.5972 428.409ZM97.5991 428.305V423.632H98.388V424.542L98.258 424.464C98.3736 424.169 98.5585 423.941 98.8129 423.779C99.0729 423.612 99.3764 423.528 99.7232 423.528C100.058 423.528 100.356 423.603 100.616 423.753C100.882 423.903 101.09 424.112 101.24 424.377C101.396 424.643 101.474 424.944 101.474 425.279V428.305H100.659V425.539C100.659 425.279 100.613 425.059 100.521 424.88C100.428 424.701 100.295 424.562 100.122 424.464C99.9543 424.36 99.7607 424.308 99.5411 424.308C99.3215 424.308 99.125 424.36 98.9516 424.464C98.784 424.562 98.651 424.704 98.5528 424.889C98.4545 425.068 98.4054 425.285 98.4054 425.539V428.305H97.5991ZM104.579 428.409C104.14 428.409 103.744 428.302 103.391 428.088C103.044 427.874 102.77 427.582 102.567 427.212C102.365 426.842 102.264 426.429 102.264 425.973C102.264 425.504 102.365 425.088 102.567 424.724C102.77 424.354 103.044 424.062 103.391 423.849C103.744 423.635 104.14 423.528 104.579 423.528C104.966 423.528 105.31 423.612 105.61 423.779C105.911 423.941 106.148 424.161 106.321 424.438L106.191 424.637V421.742H107.006V428.305H106.217V427.308L106.321 427.446C106.16 427.753 105.923 427.99 105.61 428.157C105.304 428.325 104.96 428.409 104.579 428.409ZM104.648 427.628C104.943 427.628 105.206 427.556 105.437 427.412C105.668 427.267 105.85 427.071 105.983 426.822C106.122 426.568 106.191 426.285 106.191 425.973C106.191 425.655 106.122 425.371 105.983 425.123C105.85 424.869 105.668 424.669 105.437 424.525C105.206 424.38 104.943 424.308 104.648 424.308C104.359 424.308 104.096 424.383 103.859 424.533C103.628 424.678 103.446 424.874 103.313 425.123C103.18 425.366 103.114 425.649 103.114 425.973C103.114 426.285 103.18 426.568 103.313 426.822C103.446 427.071 103.628 427.267 103.859 427.412C104.09 427.556 104.353 427.628 104.648 427.628ZM109.406 428.305V423.632H110.195V424.585L110.082 424.438C110.198 424.143 110.383 423.918 110.637 423.762C110.891 423.606 111.177 423.528 111.495 423.528C111.859 423.528 112.186 423.629 112.475 423.831C112.77 424.033 112.972 424.299 113.082 424.629L112.856 424.637C112.978 424.273 113.183 423.999 113.472 423.814C113.761 423.623 114.082 423.528 114.434 423.528C114.758 423.528 115.05 423.603 115.31 423.753C115.576 423.903 115.787 424.112 115.943 424.377C116.099 424.643 116.177 424.944 116.177 425.279V428.305H115.362V425.539C115.362 425.279 115.316 425.059 115.223 424.88C115.131 424.701 115.004 424.562 114.842 424.464C114.686 424.36 114.501 424.308 114.287 424.308C114.079 424.308 113.891 424.36 113.723 424.464C113.562 424.562 113.432 424.704 113.333 424.889C113.241 425.068 113.195 425.285 113.195 425.539V428.305H112.38V425.539C112.38 425.279 112.333 425.059 112.241 424.88C112.148 424.701 112.021 424.562 111.859 424.464C111.703 424.36 111.518 424.308 111.305 424.308C111.097 424.308 110.909 424.36 110.741 424.464C110.579 424.562 110.449 424.704 110.351 424.889C110.258 425.068 110.212 425.285 110.212 425.539V428.305H109.406ZM119.368 428.409C118.917 428.409 118.51 428.305 118.146 428.097C117.782 427.883 117.493 427.591 117.279 427.221C117.065 426.851 116.958 426.432 116.958 425.964C116.958 425.496 117.062 425.08 117.27 424.715C117.484 424.351 117.773 424.062 118.137 423.849C118.501 423.635 118.911 423.528 119.368 423.528C119.819 423.528 120.226 423.635 120.59 423.849C120.955 424.057 121.241 424.343 121.449 424.707C121.663 425.071 121.77 425.49 121.77 425.964C121.77 426.438 121.66 426.86 121.44 427.23C121.22 427.594 120.929 427.883 120.564 428.097C120.206 428.305 119.807 428.409 119.368 428.409ZM119.368 427.628C119.657 427.628 119.917 427.556 120.148 427.412C120.385 427.267 120.57 427.068 120.703 426.814C120.842 426.559 120.911 426.276 120.911 425.964C120.911 425.646 120.842 425.366 120.703 425.123C120.57 424.874 120.385 424.678 120.148 424.533C119.917 424.383 119.657 424.308 119.368 424.308C119.073 424.308 118.807 424.383 118.57 424.533C118.339 424.678 118.154 424.874 118.016 425.123C117.877 425.366 117.808 425.646 117.808 425.964C117.808 426.276 117.877 426.559 118.016 426.814C118.154 427.068 118.339 427.267 118.57 427.412C118.807 427.556 119.073 427.628 119.368 427.628ZM122.648 428.305V423.632H123.437V424.542L123.307 424.464C123.422 424.169 123.607 423.941 123.861 423.779C124.122 423.612 124.425 423.528 124.772 423.528C125.107 423.528 125.405 423.603 125.665 423.753C125.931 423.903 126.139 424.112 126.289 424.377C126.445 424.643 126.523 424.944 126.523 425.279V428.305H125.708V425.539C125.708 425.279 125.662 425.059 125.569 424.88C125.477 424.701 125.344 424.562 125.171 424.464C125.003 424.36 124.809 424.308 124.59 424.308C124.37 424.308 124.174 424.36 124 424.464C123.833 424.562 123.7 424.704 123.601 424.889C123.503 425.068 123.454 425.285 123.454 425.539V428.305H122.648ZM129.653 428.409C129.203 428.409 128.801 428.302 128.448 428.088C128.096 427.874 127.818 427.582 127.616 427.212C127.414 426.837 127.313 426.418 127.313 425.955C127.313 425.487 127.411 425.071 127.607 424.707C127.81 424.343 128.081 424.057 128.422 423.849C128.769 423.635 129.156 423.528 129.584 423.528C129.931 423.528 130.237 423.591 130.503 423.718C130.775 423.84 131.003 424.007 131.188 424.221C131.379 424.429 131.523 424.669 131.621 424.941C131.725 425.207 131.777 425.484 131.777 425.773C131.777 425.837 131.772 425.909 131.76 425.99C131.754 426.065 131.746 426.137 131.734 426.207H127.902V425.513H131.266L130.884 425.825C130.936 425.525 130.908 425.256 130.798 425.019C130.688 424.782 130.526 424.594 130.312 424.455C130.098 424.317 129.856 424.247 129.584 424.247C129.312 424.247 129.064 424.317 128.838 424.455C128.613 424.594 128.437 424.794 128.31 425.054C128.188 425.308 128.139 425.611 128.162 425.964C128.139 426.305 128.191 426.605 128.318 426.866C128.451 427.12 128.636 427.319 128.873 427.464C129.116 427.602 129.379 427.672 129.662 427.672C129.974 427.672 130.237 427.6 130.451 427.455C130.665 427.311 130.838 427.126 130.971 426.9L131.647 427.247C131.555 427.461 131.41 427.657 131.214 427.837C131.023 428.01 130.795 428.149 130.529 428.253C130.269 428.357 129.977 428.409 129.653 428.409ZM132.907 430.212C132.803 430.212 132.699 430.203 132.595 430.186C132.491 430.174 132.392 430.148 132.3 430.108V429.388C132.363 429.394 132.441 429.406 132.534 429.423C132.632 429.44 132.728 429.449 132.82 429.449C133.092 429.449 133.297 429.388 133.436 429.267C133.58 429.146 133.716 428.94 133.843 428.651L134.138 427.949L134.12 428.651L132.126 423.632H133.002L134.554 427.62H134.294L135.837 423.632H136.73L134.623 428.86C134.525 429.108 134.398 429.336 134.242 429.544C134.092 429.753 133.907 429.914 133.687 430.03C133.467 430.151 133.207 430.212 132.907 430.212Z" fill="white"/>
<path d="M53.6342 226.068V216.055H51.4949V214.765H55.1362V226.068H53.6342Z" fill="white"/>
<circle cx="53.6434" cy="220.531" r="18.6937" stroke="white" stroke-opacity="0.1" stroke-width="0.541848"/>
<path d="M54.9738 274.838V272.228H49.4209V270.999L54.9435 263.535H56.3696V270.999H57.8413V272.228H56.3696V274.838H54.9738ZM50.5436 271.53L50.3312 270.999H54.9738V264.779L55.4138 264.9L50.5436 271.53Z" fill="white"/>
<circle cx="53.6444" cy="269.299" r="18.6937" stroke="white" stroke-opacity="0.1" stroke-width="0.541848"/>
<path d="M51.0188 323.602L55.98 313.588H50.4423V312.299H57.5427V313.588L52.627 323.602H51.0188Z" fill="white"/>
<circle cx="53.6434" cy="318.064" r="18.6937" stroke="white" stroke-opacity="0.1" stroke-width="0.541848"/>
<path d="M108.106 226.072V225.041L111.232 221.657C111.849 221 112.339 220.459 112.703 220.034C113.078 219.609 113.351 219.23 113.523 218.896C113.695 218.562 113.781 218.208 113.781 217.834C113.781 217.217 113.599 216.742 113.234 216.408C112.87 216.074 112.39 215.907 111.793 215.907C111.186 215.907 110.67 216.084 110.246 216.438C109.821 216.782 109.527 217.273 109.366 217.91L108.015 217.561C108.147 216.954 108.39 216.428 108.744 215.983C109.098 215.538 109.538 215.194 110.064 214.951C110.589 214.709 111.166 214.587 111.793 214.587C112.481 214.587 113.083 214.724 113.599 214.997C114.125 215.26 114.534 215.629 114.827 216.104C115.131 216.58 115.283 217.131 115.283 217.758C115.283 218.173 115.197 218.577 115.025 218.972C114.853 219.366 114.6 219.786 114.266 220.231C113.932 220.666 113.497 221.172 112.961 221.748L110.17 224.783H115.525V226.072H108.106Z" fill="white"/>
<circle cx="111.621" cy="220.533" r="18.6937" stroke="white" stroke-opacity="0.1" stroke-width="0.541848"/>
<path d="M111.839 275.018C111.252 275.018 110.701 274.917 110.185 274.715C109.669 274.502 109.219 274.204 108.835 273.819C108.46 273.425 108.187 272.965 108.015 272.439L109.229 271.923C109.441 272.479 109.785 272.914 110.261 273.228C110.746 273.531 111.272 273.683 111.839 273.683C112.304 273.683 112.714 273.582 113.068 273.379C113.432 273.167 113.715 272.879 113.917 272.515C114.119 272.14 114.221 271.726 114.221 271.271C114.221 270.795 114.114 270.375 113.902 270.011C113.7 269.647 113.422 269.364 113.068 269.162C112.714 268.949 112.309 268.843 111.854 268.843C111.389 268.843 110.964 268.949 110.579 269.162C110.195 269.374 109.917 269.642 109.745 269.966L108.546 269.708L109.411 263.533H115.267V264.823H109.973L110.549 264.246L109.881 269.04L109.366 268.737C109.699 268.312 110.089 268.009 110.534 267.827C110.989 267.634 111.48 267.538 112.006 267.538C112.744 267.538 113.391 267.705 113.948 268.039C114.504 268.373 114.939 268.818 115.252 269.374C115.566 269.93 115.723 270.563 115.723 271.271C115.723 271.979 115.551 272.616 115.207 273.182C114.873 273.749 114.413 274.199 113.826 274.533C113.25 274.856 112.587 275.018 111.839 275.018Z" fill="white"/>
<circle cx="111.621" cy="269.297" r="18.6937" stroke="white" stroke-opacity="0.1" stroke-width="0.541848"/>
<path d="M112.065 323.784C111.307 323.784 110.634 323.632 110.047 323.328C109.471 323.025 109.016 322.615 108.682 322.1C108.358 321.574 108.196 320.987 108.196 320.34C108.196 319.611 108.399 318.974 108.803 318.428C109.208 317.882 109.764 317.492 110.472 317.26L110.442 317.639C109.906 317.427 109.486 317.088 109.183 316.623C108.889 316.147 108.743 315.636 108.743 315.09C108.743 314.514 108.884 314.003 109.167 313.558C109.461 313.113 109.855 312.764 110.351 312.511C110.857 312.248 111.428 312.117 112.065 312.117C112.702 312.117 113.269 312.243 113.764 312.496C114.26 312.749 114.649 313.103 114.933 313.558C115.226 314.003 115.373 314.514 115.373 315.09C115.373 315.667 115.216 316.183 114.902 316.638C114.599 317.093 114.194 317.432 113.689 317.654L113.643 317.26C114.361 317.492 114.923 317.887 115.327 318.443C115.732 318.989 115.934 319.622 115.934 320.34C115.934 320.987 115.767 321.574 115.433 322.1C115.11 322.615 114.655 323.025 114.068 323.328C113.491 323.632 112.824 323.784 112.065 323.784ZM112.065 322.494C112.541 322.494 112.955 322.403 113.309 322.221C113.663 322.039 113.936 321.786 114.129 321.462C114.331 321.129 114.432 320.749 114.432 320.324C114.432 319.89 114.331 319.51 114.129 319.187C113.936 318.853 113.663 318.6 113.309 318.428C112.955 318.246 112.541 318.155 112.065 318.155C111.59 318.155 111.17 318.246 110.806 318.428C110.452 318.6 110.179 318.853 109.987 319.187C109.795 319.51 109.698 319.89 109.698 320.324C109.698 320.749 109.795 321.129 109.987 321.462C110.179 321.786 110.452 322.039 110.806 322.221C111.17 322.403 111.59 322.494 112.065 322.494ZM112.065 316.865C112.409 316.865 112.713 316.789 112.976 316.638C113.249 316.486 113.466 316.284 113.628 316.031C113.79 315.768 113.871 315.464 113.871 315.121C113.871 314.777 113.79 314.478 113.628 314.225C113.466 313.973 113.249 313.775 112.976 313.634C112.713 313.482 112.409 313.406 112.065 313.406C111.711 313.406 111.398 313.482 111.125 313.634C110.851 313.775 110.634 313.973 110.472 314.225C110.31 314.478 110.229 314.777 110.229 315.121C110.229 315.464 110.31 315.768 110.472 316.031C110.634 316.284 110.851 316.486 111.125 316.638C111.398 316.789 111.711 316.865 112.065 316.865Z" fill="white"/>
<circle cx="111.621" cy="318.062" r="18.6937" stroke="white" stroke-opacity="0.1" stroke-width="0.541848"/>
<path d="M111.71 372.553C110.81 372.553 110.021 372.31 109.344 371.825C108.676 371.329 108.155 370.647 107.781 369.777C107.407 368.897 107.22 367.875 107.22 366.712C107.22 365.549 107.407 364.532 107.781 363.663C108.155 362.783 108.676 362.1 109.344 361.614C110.011 361.129 110.795 360.886 111.695 360.886C112.595 360.886 113.379 361.129 114.047 361.614C114.714 362.1 115.235 362.783 115.61 363.663C115.994 364.532 116.186 365.549 116.186 366.712C116.186 367.875 115.999 368.897 115.625 369.777C115.251 370.657 114.725 371.339 114.047 371.825C113.379 372.31 112.601 372.553 111.71 372.553ZM111.71 371.173C112.317 371.173 112.843 370.99 113.288 370.626C113.733 370.252 114.077 369.731 114.32 369.064C114.573 368.396 114.699 367.612 114.699 366.712C114.699 365.812 114.573 365.028 114.32 364.36C114.077 363.693 113.728 363.177 113.273 362.813C112.828 362.449 112.302 362.267 111.695 362.267C111.088 362.267 110.562 362.449 110.117 362.813C109.672 363.177 109.323 363.693 109.071 364.36C108.828 365.028 108.706 365.812 108.706 366.712C108.706 367.602 108.828 368.381 109.071 369.048C109.323 369.716 109.672 370.237 110.117 370.611C110.573 370.985 111.104 371.173 111.71 371.173Z" fill="white"/>
<circle cx="111.622" cy="366.834" r="18.6937" stroke="white" stroke-opacity="0.1" stroke-width="0.541848"/>
<path d="M169.726 226.25C169.129 226.25 168.573 226.144 168.057 225.932C167.541 225.719 167.096 225.421 166.722 225.037C166.348 224.642 166.07 224.177 165.888 223.641L167.147 223.125C167.359 223.691 167.693 224.131 168.148 224.445C168.603 224.759 169.129 224.915 169.726 224.915C170.191 224.915 170.606 224.824 170.97 224.642C171.334 224.46 171.618 224.197 171.82 223.853C172.032 223.509 172.138 223.095 172.138 222.609C172.138 222.114 172.032 221.699 171.82 221.365C171.618 221.021 171.334 220.758 170.97 220.576C170.606 220.394 170.186 220.303 169.711 220.303C169.559 220.303 169.392 220.313 169.21 220.333C169.038 220.354 168.892 220.384 168.77 220.424L168.452 219.742L171.471 216.055H166.464V214.765H173.155V216.009L170.272 219.56L170.181 219.165C170.859 219.185 171.456 219.342 171.972 219.636C172.487 219.929 172.892 220.328 173.185 220.834C173.479 221.33 173.625 221.911 173.625 222.579C173.625 223.267 173.458 223.889 173.125 224.445C172.791 225.001 172.331 225.441 171.744 225.765C171.157 226.089 170.485 226.25 169.726 226.25Z" fill="white"/>
<circle cx="169.599" cy="220.531" r="18.6937" stroke="white" stroke-opacity="0.1" stroke-width="0.541848"/>
<path d="M169.829 275.016C169.101 275.016 168.454 274.854 167.887 274.531C167.331 274.207 166.891 273.767 166.567 273.211C166.244 272.644 166.082 272.002 166.082 271.284C166.082 270.889 166.127 270.5 166.219 270.116C166.31 269.731 166.456 269.342 166.658 268.947C166.861 268.553 167.119 268.143 167.432 267.718L170.618 263.531H172.409L168.509 268.598L168.236 268.568C168.388 268.366 168.555 268.209 168.737 268.098C168.929 267.986 169.131 267.906 169.344 267.855C169.566 267.804 169.799 267.779 170.042 267.779C170.709 267.779 171.306 267.936 171.832 268.249C172.368 268.553 172.788 268.973 173.091 269.509C173.405 270.045 173.562 270.662 173.562 271.36C173.562 272.058 173.4 272.685 173.076 273.241C172.752 273.787 172.307 274.222 171.741 274.546C171.185 274.859 170.548 275.016 169.829 275.016ZM169.829 273.681C170.254 273.681 170.633 273.585 170.967 273.393C171.301 273.19 171.564 272.912 171.756 272.558C171.958 272.204 172.06 271.81 172.06 271.375C172.06 270.92 171.964 270.525 171.771 270.191C171.579 269.848 171.316 269.574 170.982 269.372C170.649 269.17 170.264 269.069 169.829 269.069C169.405 269.069 169.02 269.17 168.676 269.372C168.332 269.574 168.064 269.848 167.872 270.191C167.68 270.525 167.584 270.92 167.584 271.375C167.584 271.81 167.68 272.204 167.872 272.558C168.075 272.912 168.343 273.19 168.676 273.393C169.02 273.585 169.405 273.681 169.829 273.681Z" fill="white"/>
<circle cx="169.597" cy="269.295" r="18.6937" stroke="white" stroke-opacity="0.1" stroke-width="0.541848"/>
<path d="M167.206 323.604L171.105 318.521L171.378 318.551C171.226 318.754 171.059 318.915 170.877 319.037C170.695 319.148 170.493 319.229 170.27 319.28C170.058 319.33 169.825 319.355 169.572 319.355C168.905 319.355 168.303 319.204 167.767 318.9C167.241 318.587 166.821 318.162 166.508 317.626C166.204 317.08 166.053 316.458 166.053 315.76C166.053 315.062 166.214 314.44 166.538 313.894C166.862 313.347 167.307 312.918 167.873 312.604C168.44 312.28 169.077 312.119 169.785 312.119C170.513 312.119 171.155 312.28 171.712 312.604C172.278 312.918 172.723 313.358 173.047 313.924C173.37 314.48 173.532 315.123 173.532 315.851C173.532 316.245 173.487 316.635 173.396 317.019C173.305 317.403 173.158 317.793 172.956 318.187C172.764 318.582 172.506 318.991 172.182 319.416L168.996 323.604H167.206ZM169.785 318.051C170.22 318.051 170.604 317.955 170.938 317.762C171.282 317.56 171.55 317.287 171.742 316.943C171.934 316.589 172.03 316.195 172.03 315.76C172.03 315.305 171.929 314.905 171.727 314.561C171.535 314.217 171.272 313.944 170.938 313.742C170.604 313.54 170.22 313.438 169.785 313.438C169.36 313.438 168.981 313.54 168.647 313.742C168.313 313.944 168.045 314.217 167.843 314.561C167.651 314.905 167.555 315.305 167.555 315.76C167.555 316.195 167.651 316.589 167.843 316.943C168.035 317.287 168.298 317.56 168.632 317.762C168.976 317.955 169.36 318.051 169.785 318.051Z" fill="white"/>
<circle cx="169.598" cy="318.064" r="18.6937" stroke="white" stroke-opacity="0.1" stroke-width="0.541848"/>
<path d="M163.422 361.414H177.727V372.251H163.422L159.846 366.547L163.422 361.414Z" fill="white" fill-opacity="0.1"/>
<path d="M172.153 369.403L167.555 364.805C167.398 364.648 167.398 364.388 167.555 364.231C167.713 364.074 167.973 364.074 168.13 364.231L172.728 368.828C172.885 368.986 172.885 369.246 172.728 369.403C172.571 369.56 172.31 369.56 172.153 369.403Z" fill="white"/>
<path d="M167.555 369.403C167.398 369.246 167.398 368.986 167.555 368.828L172.153 364.231C172.31 364.074 172.571 364.074 172.728 364.231C172.885 364.388 172.885 364.648 172.728 364.805L168.13 369.403C167.973 369.56 167.712 369.56 167.555 369.403Z" fill="white"/>
<path d="M80.2856 177.203C79.3753 177.203 78.53 177.034 77.7497 176.696C76.9695 176.345 76.3063 175.87 75.7601 175.272C75.2139 174.673 74.8108 173.984 74.5507 173.204L76.5013 172.385C76.8524 173.282 77.3661 173.971 78.0423 174.452C78.7186 174.934 79.4988 175.174 80.3831 175.174C80.9033 175.174 81.3584 175.096 81.7486 174.94C82.1387 174.771 82.4378 174.537 82.6459 174.238C82.8669 173.939 82.9775 173.594 82.9775 173.204C82.9775 172.671 82.8279 172.248 82.5288 171.936C82.2297 171.624 81.7876 171.377 81.2024 171.195L78.4715 170.337C77.3791 169.998 76.5468 169.485 75.9746 168.796C75.4025 168.093 75.1164 167.274 75.1164 166.338C75.1164 165.518 75.3179 164.803 75.7211 164.192C76.1242 163.568 76.6769 163.08 77.3791 162.729C78.0944 162.378 78.9071 162.202 79.8174 162.202C80.6887 162.202 81.482 162.358 82.1972 162.67C82.9125 162.97 83.5237 163.386 84.0308 163.919C84.551 164.452 84.9281 165.07 85.1622 165.772L83.2506 166.611C82.9645 165.844 82.5158 165.252 81.9046 164.836C81.3064 164.42 80.6107 164.211 79.8174 164.211C79.3363 164.211 78.9136 164.296 78.5495 164.465C78.1854 164.621 77.8993 164.855 77.6912 165.167C77.4962 165.466 77.3986 165.818 77.3986 166.221C77.3986 166.689 77.5482 167.105 77.8473 167.469C78.1464 167.833 78.6015 168.106 79.2127 168.288L81.7486 169.088C82.906 169.439 83.7773 169.946 84.3624 170.61C84.9476 171.26 85.2402 172.073 85.2402 173.048C85.2402 173.854 85.0257 174.569 84.5965 175.194C84.1804 175.818 83.6017 176.312 82.8604 176.676C82.1192 177.027 81.2609 177.203 80.2856 177.203ZM79.3883 178.919V160.486H80.9488V178.919H79.3883ZM95.0962 177.203C94.0819 177.203 93.1911 177.008 92.4238 176.618C91.6696 176.214 91.0844 175.681 90.6682 175.018C90.2521 174.342 90.044 173.594 90.044 172.775C90.044 171.839 90.2976 171.032 90.8048 170.356C91.325 169.667 92.0532 169.166 92.9895 168.854L92.892 169.439C92.2027 169.179 91.6566 168.744 91.2534 168.132C90.8633 167.508 90.6682 166.825 90.6682 166.084C90.6682 165.343 90.8568 164.68 91.2339 164.094C91.6241 163.509 92.1507 163.048 92.814 162.709C93.4902 162.371 94.2509 162.202 95.0962 162.202C95.9545 162.202 96.7153 162.371 97.3785 162.709C98.0417 163.035 98.5619 163.49 98.939 164.075C99.3291 164.66 99.5242 165.33 99.5242 166.084C99.5242 166.851 99.3226 167.541 98.9195 168.152C98.5294 168.75 97.9962 169.179 97.32 169.439L97.2224 168.854C98.1587 169.179 98.887 169.68 99.4072 170.356C99.9273 171.032 100.187 171.839 100.187 172.775C100.187 173.594 99.9728 174.342 99.5437 175.018C99.1276 175.681 98.5359 176.214 97.7686 176.618C97.0014 177.008 96.1106 177.203 95.0962 177.203ZM95.0962 175.252C95.6554 175.252 96.1431 175.148 96.5592 174.94C96.9753 174.719 97.3005 174.42 97.5345 174.043C97.7686 173.666 97.8856 173.223 97.8856 172.716C97.8856 172.209 97.7686 171.767 97.5345 171.39C97.3005 171.013 96.9753 170.72 96.5592 170.512C96.1431 170.304 95.6554 170.2 95.0962 170.2C94.55 170.2 94.0689 170.304 93.6527 170.512C93.2366 170.72 92.9115 171.013 92.6774 171.39C92.4433 171.767 92.3263 172.209 92.3263 172.716C92.3263 173.223 92.4433 173.666 92.6774 174.043C92.9115 174.42 93.2366 174.719 93.6527 174.94C94.0689 175.148 94.55 175.252 95.0962 175.252ZM95.0962 168.249C95.5124 168.249 95.8765 168.165 96.1886 167.996C96.5137 167.814 96.7673 167.567 96.9493 167.255C97.1314 166.942 97.2224 166.591 97.2224 166.201C97.2224 165.798 97.1314 165.447 96.9493 165.148C96.7673 164.836 96.5137 164.595 96.1886 164.426C95.8765 164.244 95.5124 164.153 95.0962 164.153C94.6931 164.153 94.329 164.244 94.0038 164.426C93.6787 164.595 93.4252 164.836 93.2431 165.148C93.061 165.447 92.97 165.798 92.97 166.201C92.97 166.591 93.061 166.942 93.2431 167.255C93.4252 167.567 93.6787 167.814 94.0038 167.996C94.329 168.165 94.6931 168.249 95.0962 168.249ZM103.033 176.969L108.007 170.532L108.397 170.785C108.215 170.98 108.013 171.136 107.792 171.253C107.584 171.37 107.357 171.455 107.109 171.507C106.875 171.559 106.622 171.585 106.349 171.585C105.477 171.585 104.697 171.39 104.008 171C103.319 170.597 102.773 170.05 102.369 169.361C101.979 168.659 101.784 167.866 101.784 166.981C101.784 166.058 101.999 165.239 102.428 164.524C102.857 163.808 103.442 163.243 104.184 162.827C104.925 162.41 105.77 162.202 106.719 162.202C107.682 162.202 108.527 162.41 109.255 162.827C109.996 163.243 110.575 163.815 110.991 164.543C111.42 165.258 111.635 166.078 111.635 167.001C111.635 167.495 111.583 167.983 111.479 168.464C111.375 168.945 111.193 169.446 110.933 169.966C110.673 170.473 110.309 171.032 109.84 171.643L105.783 176.969H103.033ZM106.719 169.654C107.227 169.654 107.675 169.537 108.065 169.303C108.455 169.069 108.768 168.75 109.002 168.347C109.236 167.944 109.353 167.482 109.353 166.962C109.353 166.429 109.236 165.961 109.002 165.557C108.768 165.141 108.449 164.823 108.046 164.602C107.656 164.368 107.214 164.251 106.719 164.251C106.225 164.251 105.777 164.368 105.373 164.602C104.983 164.823 104.671 165.141 104.437 165.557C104.203 165.961 104.086 166.429 104.086 166.962C104.086 167.482 104.197 167.944 104.418 168.347C104.652 168.75 104.97 169.069 105.373 169.303C105.777 169.537 106.225 169.654 106.719 169.654ZM113.474 179.836V178.763C113.903 178.659 114.235 178.458 114.469 178.159C114.703 177.873 114.846 177.476 114.898 176.969H113.864V174.433H116.108V176.091C116.108 177.131 115.887 177.97 115.444 178.607C115.002 179.245 114.346 179.654 113.474 179.836ZM124.634 177.203C123.477 177.203 122.463 176.891 121.591 176.267C120.72 175.629 120.037 174.752 119.543 173.633C119.062 172.502 118.821 171.188 118.821 169.693C118.821 168.184 119.062 166.871 119.543 165.753C120.037 164.634 120.714 163.763 121.572 163.139C122.443 162.514 123.458 162.202 124.615 162.202C125.772 162.202 126.78 162.514 127.638 163.139C128.51 163.763 129.186 164.641 129.667 165.772C130.161 166.89 130.408 168.197 130.408 169.693C130.408 171.188 130.168 172.502 129.687 173.633C129.205 174.752 128.529 175.629 127.658 176.267C126.8 176.891 125.792 177.203 124.634 177.203ZM124.634 175.096C125.35 175.096 125.967 174.875 126.488 174.433C127.008 173.991 127.411 173.367 127.697 172.56C127.983 171.754 128.126 170.798 128.126 169.693C128.126 168.587 127.983 167.632 127.697 166.825C127.411 166.019 127.008 165.395 126.488 164.953C125.967 164.511 125.343 164.29 124.615 164.29C123.9 164.29 123.282 164.511 122.762 164.953C122.242 165.395 121.838 166.019 121.552 166.825C121.266 167.632 121.123 168.587 121.123 169.693C121.123 170.785 121.266 171.741 121.552 172.56C121.838 173.367 122.242 173.991 122.762 174.433C123.295 174.875 123.919 175.096 124.634 175.096ZM138.207 177.203C137.05 177.203 136.036 176.891 135.164 176.267C134.293 175.629 133.61 174.752 133.116 173.633C132.635 172.502 132.395 171.188 132.395 169.693C132.395 168.184 132.635 166.871 133.116 165.753C133.61 164.634 134.287 163.763 135.145 163.139C136.016 162.514 137.031 162.202 138.188 162.202C139.345 162.202 140.353 162.514 141.211 163.139C142.083 163.763 142.759 164.641 143.24 165.772C143.734 166.89 143.981 168.197 143.981 169.693C143.981 171.188 143.741 172.502 143.26 173.633C142.778 174.752 142.102 175.629 141.231 176.267C140.373 176.891 139.365 177.203 138.207 177.203ZM138.207 175.096C138.923 175.096 139.54 174.875 140.061 174.433C140.581 173.991 140.984 173.367 141.27 172.56C141.556 171.754 141.699 170.798 141.699 169.693C141.699 168.587 141.556 167.632 141.27 166.825C140.984 166.019 140.581 165.395 140.061 164.953C139.54 164.511 138.916 164.29 138.188 164.29C137.473 164.29 136.855 164.511 136.335 164.953C135.815 165.395 135.412 166.019 135.125 166.825C134.839 167.632 134.696 168.587 134.696 169.693C134.696 170.785 134.839 171.741 135.125 172.56C135.412 173.367 135.815 173.991 136.335 174.433C136.868 174.875 137.492 175.096 138.207 175.096Z" fill="white"/>
<path d="M149.009 158.627V180.572" stroke="white" stroke-width="0.541848"/>
<path d="M32.7621 100.029V98.9673H33.1034C33.331 98.9673 33.5131 98.9041 33.6496 98.7776C33.7912 98.6461 33.862 98.4742 33.862 98.2618V94.3778H35.0378V98.2087C35.0378 98.5728 34.9594 98.8914 34.8027 99.1645C34.6459 99.4376 34.4208 99.65 34.1275 99.8017C33.8392 99.9534 33.4979 100.029 33.1034 100.029H32.7621ZM37.3855 100.029L35.9063 94.3778H37.1807L38.2958 99.1114H37.9545L39.1303 94.3778H40.344L41.5198 99.1114H41.1785L42.2936 94.3778H43.568L42.0888 100.029H40.7233L39.5399 95.4778H39.9344L38.751 100.029H37.3855Z" fill="#158D9B"/>
</g>
<defs>
<filter id="filter0_d_2109_20224" x="0.000468254" y="-0.000508308" width="245.457" height="494.165" filterUnits="userSpaceOnUse" color-interpolation-filters="sRGB">
<feFlood flood-opacity="0" result="BackgroundImageFix"/>
<feColorMatrix in="SourceAlpha" type="matrix" values="0 0 0 0 0 0 0 0 0 0 0 0 0 0 0 0 0 0 127 0" result="hardAlpha"/>
<feOffset dx="10.837" dy="10.837"/>
<feGaussianBlur stdDeviation="8.12772"/>
<feComposite in2="hardAlpha" operator="out"/>
<feColorMatrix type="matrix" values="0 0 0 0 0 0 0 0 0 0 0 0 0 0 0 0 0 0 0.25 0"/>
<feBlend mode="normal" in2="BackgroundImageFix" result="effect1_dropShadow_2109_20224"/>
<feBlend mode="normal" in="SourceGraphic" in2="effect1_dropShadow_2109_20224" result="shape"/>
</filter>
<clipPath id="clip0_2109_20224">
<rect width="13.0043" height="13.0043" fill="white" transform="translate(187.48 35.7617)"/>
</clipPath>
</defs>
</svg>
