<svg width="461" height="812" viewBox="0 0 461 812" fill="none" xmlns="http://www.w3.org/2000/svg">
<rect width="375" height="812" transform="translate(42)" fill="#F5F7FA"/>
<rect width="375" height="316" transform="translate(43 92)" fill="#F5F7FA"/>
<rect x="59" y="108" width="85" height="26" rx="13" fill="#CAD4E2"/>
<path d="M72.9801 126V125.02H75.2341V117.516L73.4561 118.636L72.9661 117.782L75.5561 116.13H76.3821V125.02H78.4961V126H72.9801ZM80.8987 126V125.132L84.2727 121.492C84.7487 120.969 85.0893 120.493 85.2947 120.064C85.5093 119.635 85.6167 119.196 85.6167 118.748C85.6167 117.6 84.9493 117.026 83.6147 117.026C82.616 117.026 81.734 117.399 80.9687 118.146L80.5347 117.25C80.8987 116.877 81.3607 116.578 81.9207 116.354C82.49 116.121 83.0873 116.004 83.7127 116.004C84.702 116.004 85.458 116.237 85.9807 116.704C86.5127 117.161 86.7787 117.815 86.7787 118.664C86.7787 119.252 86.634 119.831 86.3447 120.4C86.0553 120.96 85.612 121.557 85.0147 122.192L82.3687 125.02H87.1847V126H80.8987ZM88.9152 120.624V119.196H90.3432V120.624H88.9152ZM88.9152 126V124.572H90.3432V126H88.9152ZM95.4188 126.126C94.2894 126.126 93.4308 125.692 92.8428 124.824C92.2548 123.956 91.9608 122.701 91.9608 121.058C91.9608 119.406 92.2548 118.151 92.8428 117.292C93.4308 116.433 94.2894 116.004 95.4188 116.004C96.5574 116.004 97.4161 116.433 97.9948 117.292C98.5828 118.141 98.8768 119.392 98.8768 121.044C98.8768 122.696 98.5781 123.956 97.9808 124.824C97.3928 125.692 96.5388 126.126 95.4188 126.126ZM95.4188 125.132C96.2028 125.132 96.7814 124.801 97.1548 124.138C97.5374 123.475 97.7288 122.444 97.7288 121.044C97.7288 119.644 97.5421 118.622 97.1688 117.978C96.7954 117.325 96.2121 116.998 95.4188 116.998C94.6348 116.998 94.0514 117.325 93.6688 117.978C93.2954 118.631 93.1088 119.653 93.1088 121.044C93.1088 122.444 93.2954 123.475 93.6688 124.138C94.0514 124.801 94.6348 125.132 95.4188 125.132ZM104.023 126.126C103.389 126.126 102.782 126.023 102.203 125.818C101.625 125.613 101.135 125.323 100.733 124.95L101.167 124.04C102.035 124.749 102.983 125.104 104.009 125.104C104.691 125.104 105.227 124.913 105.619 124.53C106.011 124.147 106.207 123.643 106.207 123.018C106.207 122.374 106.021 121.847 105.647 121.436C105.274 121.025 104.761 120.82 104.107 120.82C103.165 120.82 102.423 121.212 101.881 121.996H101.041V116.13H106.767V117.11H102.175V120.638C102.717 120.097 103.431 119.826 104.317 119.826C104.933 119.826 105.47 119.957 105.927 120.218C106.385 120.479 106.735 120.848 106.977 121.324C107.229 121.791 107.355 122.337 107.355 122.962C107.355 123.578 107.22 124.124 106.949 124.6C106.679 125.076 106.291 125.449 105.787 125.72C105.293 125.991 104.705 126.126 104.023 126.126ZM112.668 128.52V119.196H113.774V120.414C113.979 119.994 114.282 119.667 114.684 119.434C115.094 119.191 115.57 119.07 116.112 119.07C116.718 119.07 117.246 119.215 117.694 119.504C118.151 119.784 118.501 120.19 118.744 120.722C118.996 121.245 119.122 121.87 119.122 122.598C119.122 123.317 118.996 123.942 118.744 124.474C118.501 124.997 118.151 125.403 117.694 125.692C117.246 125.981 116.718 126.126 116.112 126.126C115.589 126.126 115.122 126.009 114.712 125.776C114.301 125.543 113.998 125.221 113.802 124.81V128.52H112.668ZM115.874 125.216C116.508 125.216 117.017 124.992 117.4 124.544C117.782 124.087 117.974 123.438 117.974 122.598C117.974 121.749 117.782 121.1 117.4 120.652C117.017 120.204 116.508 119.98 115.874 119.98C115.239 119.98 114.73 120.204 114.348 120.652C113.965 121.1 113.774 121.749 113.774 122.598C113.774 123.438 113.965 124.087 114.348 124.544C114.73 124.992 115.239 125.216 115.874 125.216ZM120.858 126V119.196H121.964V120.344C122.169 119.933 122.454 119.621 122.818 119.406C123.182 119.182 123.606 119.07 124.092 119.07C125.156 119.07 125.837 119.532 126.136 120.456C126.341 120.027 126.644 119.691 127.046 119.448C127.447 119.196 127.909 119.07 128.432 119.07C129.944 119.07 130.7 119.966 130.7 121.758V126H129.566V121.814C129.566 121.189 129.454 120.731 129.23 120.442C129.015 120.143 128.656 119.994 128.152 119.994C127.601 119.994 127.162 120.19 126.836 120.582C126.509 120.974 126.346 121.497 126.346 122.15V126H125.212V121.814C125.212 121.189 125.1 120.731 124.876 120.442C124.661 120.143 124.302 119.994 123.798 119.994C123.238 119.994 122.794 120.19 122.468 120.582C122.15 120.974 121.992 121.497 121.992 122.15V126H120.858Z" fill="#0E131B"/>
<g filter="url(#filter0_d_2_9165)">
<rect x="59" y="142" width="343" height="78" rx="14" fill="white"/>
<path d="M75.994 174V164.13H80.502C81.6033 164.13 82.4527 164.41 83.05 164.97C83.6473 165.521 83.946 166.291 83.946 167.28C83.946 168.269 83.6473 169.044 83.05 169.604C82.4527 170.164 81.6033 170.444 80.502 170.444H78.164V174H75.994ZM78.164 168.764H80.138C81.286 168.764 81.86 168.269 81.86 167.28C81.86 166.309 81.286 165.824 80.138 165.824H78.164V168.764ZM88.0301 174.154C87.2927 174.154 86.6487 174.009 86.0981 173.72C85.5567 173.421 85.1367 173.006 84.8381 172.474C84.5394 171.933 84.3901 171.293 84.3901 170.556C84.3901 169.828 84.5394 169.198 84.8381 168.666C85.1367 168.125 85.5567 167.709 86.0981 167.42C86.6487 167.131 87.2927 166.986 88.0301 166.986C88.7674 166.986 89.4067 167.131 89.9481 167.42C90.4987 167.709 90.9234 168.125 91.2221 168.666C91.5301 169.198 91.6841 169.828 91.6841 170.556C91.6841 171.293 91.5301 171.933 91.2221 172.474C90.9234 173.006 90.4987 173.421 89.9481 173.72C89.4067 174.009 88.7674 174.154 88.0301 174.154ZM88.0301 172.572C88.4781 172.572 88.8421 172.409 89.1221 172.082C89.4114 171.755 89.5561 171.247 89.5561 170.556C89.5561 169.875 89.4114 169.375 89.1221 169.058C88.8421 168.731 88.4781 168.568 88.0301 168.568C87.5821 168.568 87.2181 168.731 86.9381 169.058C86.6581 169.375 86.5181 169.875 86.5181 170.556C86.5181 171.247 86.6581 171.755 86.9381 172.082C87.2181 172.409 87.5821 172.572 88.0301 172.572ZM95.6022 174.154C94.9955 174.154 94.4309 174.084 93.9082 173.944C93.3855 173.804 92.9515 173.613 92.6062 173.37L93.1102 171.998C93.4555 172.213 93.8475 172.385 94.2862 172.516C94.7342 172.637 95.1775 172.698 95.6162 172.698C96.0082 172.698 96.2975 172.637 96.4842 172.516C96.6709 172.385 96.7642 172.217 96.7642 172.012C96.7642 171.685 96.5262 171.48 96.0502 171.396L94.5802 171.13C93.9922 171.027 93.5442 170.817 93.2362 170.5C92.9282 170.183 92.7742 169.767 92.7742 169.254C92.7742 168.787 92.9049 168.386 93.1662 168.05C93.4275 167.714 93.7869 167.453 94.2442 167.266C94.7015 167.079 95.2289 166.986 95.8262 166.986C96.3209 166.986 96.8015 167.051 97.2682 167.182C97.7349 167.303 98.1362 167.499 98.4722 167.77L97.9402 169.128C97.6602 168.923 97.3242 168.755 96.9322 168.624C96.5495 168.493 96.1902 168.428 95.8542 168.428C95.4342 168.428 95.1309 168.498 94.9442 168.638C94.7575 168.769 94.6642 168.937 94.6642 169.142C94.6642 169.469 94.8835 169.674 95.3222 169.758L96.7922 170.024C97.3989 170.127 97.8609 170.332 98.1782 170.64C98.4955 170.939 98.6542 171.349 98.6542 171.872C98.6542 172.591 98.3742 173.151 97.8142 173.552C97.2542 173.953 96.5169 174.154 95.6022 174.154ZM99.7768 165.796V163.822H102.059V165.796H99.7768ZM99.8608 174V167.126H101.975V174H99.8608ZM106.953 174.154C106.206 174.154 105.553 174.009 104.993 173.72C104.442 173.421 104.018 173.001 103.719 172.46C103.42 171.919 103.271 171.279 103.271 170.542C103.271 169.805 103.42 169.17 103.719 168.638C104.018 168.106 104.442 167.7 104.993 167.42C105.553 167.131 106.206 166.986 106.953 166.986C107.392 166.986 107.835 167.051 108.283 167.182C108.731 167.313 109.095 167.499 109.375 167.742L108.787 169.198C108.554 169.011 108.292 168.867 108.003 168.764C107.714 168.652 107.434 168.596 107.163 168.596C106.612 168.596 106.183 168.769 105.875 169.114C105.576 169.45 105.427 169.931 105.427 170.556C105.427 171.172 105.576 171.657 105.875 172.012C106.183 172.357 106.612 172.53 107.163 172.53C107.424 172.53 107.7 172.479 107.989 172.376C108.288 172.273 108.554 172.124 108.787 171.928L109.375 173.384C109.095 173.627 108.731 173.818 108.283 173.958C107.835 174.089 107.392 174.154 106.953 174.154ZM110.208 165.796V163.822H112.49V165.796H110.208ZM110.292 174V167.126H112.406V174H110.292ZM117.343 174.154C116.605 174.154 115.961 174.009 115.411 173.72C114.869 173.421 114.449 173.006 114.151 172.474C113.852 171.933 113.703 171.293 113.703 170.556C113.703 169.828 113.852 169.198 114.151 168.666C114.449 168.125 114.869 167.709 115.411 167.42C115.961 167.131 116.605 166.986 117.343 166.986C118.08 166.986 118.719 167.131 119.261 167.42C119.811 167.709 120.236 168.125 120.535 168.666C120.843 169.198 120.997 169.828 120.997 170.556C120.997 171.293 120.843 171.933 120.535 172.474C120.236 173.006 119.811 173.421 119.261 173.72C118.719 174.009 118.08 174.154 117.343 174.154ZM117.343 172.572C117.791 172.572 118.155 172.409 118.435 172.082C118.724 171.755 118.869 171.247 118.869 170.556C118.869 169.875 118.724 169.375 118.435 169.058C118.155 168.731 117.791 168.568 117.343 168.568C116.895 168.568 116.531 168.731 116.251 169.058C115.971 169.375 115.831 169.875 115.831 170.556C115.831 171.247 115.971 171.755 116.251 172.082C116.531 172.409 116.895 172.572 117.343 172.572ZM116.643 166.23L118.085 163.36H120.101L118.043 166.23H116.643ZM122.283 174V167.126H124.355V168.134C124.588 167.761 124.901 167.476 125.293 167.28C125.685 167.084 126.123 166.986 126.609 166.986C127.421 166.986 128.027 167.224 128.429 167.7C128.83 168.167 129.031 168.89 129.031 169.87V174H126.917V169.968C126.917 169.492 126.828 169.151 126.651 168.946C126.473 168.731 126.212 168.624 125.867 168.624C125.419 168.624 125.059 168.764 124.789 169.044C124.527 169.324 124.397 169.697 124.397 170.164V174H122.283ZM137.179 174.154C136.582 174.154 136.055 174.009 135.597 173.72C135.149 173.421 134.799 173.006 134.547 172.474C134.295 171.933 134.169 171.293 134.169 170.556C134.169 169.819 134.295 169.184 134.547 168.652C134.799 168.12 135.149 167.709 135.597 167.42C136.055 167.131 136.582 166.986 137.179 166.986C137.637 166.986 138.057 167.084 138.439 167.28C138.822 167.476 139.111 167.737 139.307 168.064V164.13H141.421V174H139.349V172.964C139.163 173.328 138.873 173.617 138.481 173.832C138.099 174.047 137.665 174.154 137.179 174.154ZM137.809 172.572C138.257 172.572 138.621 172.409 138.901 172.082C139.191 171.755 139.335 171.247 139.335 170.556C139.335 169.875 139.191 169.375 138.901 169.058C138.621 168.731 138.257 168.568 137.809 168.568C137.361 168.568 136.997 168.731 136.717 169.058C136.437 169.375 136.297 169.875 136.297 170.556C136.297 171.247 136.437 171.755 136.717 172.082C136.997 172.409 137.361 172.572 137.809 172.572ZM146.62 174.154C145.808 174.154 145.108 174.009 144.52 173.72C143.942 173.421 143.494 173.006 143.176 172.474C142.868 171.933 142.714 171.298 142.714 170.57C142.714 169.861 142.864 169.24 143.162 168.708C143.47 168.167 143.886 167.747 144.408 167.448C144.94 167.14 145.552 166.986 146.242 166.986C147.241 166.986 148.034 167.303 148.622 167.938C149.21 168.563 149.504 169.413 149.504 170.486V171.018H144.73C144.805 171.559 145.001 171.956 145.318 172.208C145.645 172.451 146.093 172.572 146.662 172.572C147.036 172.572 147.414 172.516 147.796 172.404C148.179 172.292 148.524 172.119 148.832 171.886L149.392 173.3C149.047 173.561 148.622 173.771 148.118 173.93C147.624 174.079 147.124 174.154 146.62 174.154ZM146.326 168.386C145.878 168.386 145.514 168.521 145.234 168.792C144.964 169.063 144.796 169.441 144.73 169.926H147.754C147.698 168.899 147.222 168.386 146.326 168.386ZM157.192 174.154C156.306 174.154 155.657 173.925 155.246 173.468C154.836 173.001 154.63 172.311 154.63 171.396V164.13H156.744V171.312C156.744 172.059 157.076 172.432 157.738 172.432C157.841 172.432 157.939 172.427 158.032 172.418C158.135 172.409 158.233 172.39 158.326 172.362L158.298 174C157.944 174.103 157.575 174.154 157.192 174.154ZM161.616 174.154C161.103 174.154 160.65 174.056 160.258 173.86C159.866 173.664 159.554 173.398 159.32 173.062C159.096 172.726 158.984 172.348 158.984 171.928C158.984 171.433 159.115 171.037 159.376 170.738C159.638 170.439 160.062 170.229 160.65 170.108C161.238 169.977 162.018 169.912 162.988 169.912H163.492V169.674C163.492 169.263 163.399 168.974 163.212 168.806C163.026 168.629 162.708 168.54 162.26 168.54C161.887 168.54 161.49 168.601 161.07 168.722C160.66 168.834 160.249 169.007 159.838 169.24L159.264 167.826C159.507 167.667 159.801 167.523 160.146 167.392C160.501 167.261 160.87 167.163 161.252 167.098C161.635 167.023 161.999 166.986 162.344 166.986C163.408 166.986 164.202 167.229 164.724 167.714C165.247 168.19 165.508 168.932 165.508 169.94V174H163.534V172.964C163.394 173.328 163.156 173.617 162.82 173.832C162.494 174.047 162.092 174.154 161.616 174.154ZM162.092 172.74C162.484 172.74 162.816 172.605 163.086 172.334C163.357 172.063 163.492 171.713 163.492 171.284V171.004H163.002C162.284 171.004 161.775 171.069 161.476 171.2C161.178 171.321 161.028 171.536 161.028 171.844C161.028 172.105 161.117 172.32 161.294 172.488C161.481 172.656 161.747 172.74 162.092 172.74ZM171.01 174V167.126H173.082V168.12C173.287 167.765 173.567 167.49 173.922 167.294C174.286 167.089 174.706 166.986 175.182 166.986C175.667 166.986 176.078 167.093 176.414 167.308C176.759 167.523 177.021 167.849 177.198 168.288C177.413 167.877 177.721 167.56 178.122 167.336C178.533 167.103 178.985 166.986 179.48 166.986C180.264 166.986 180.847 167.224 181.23 167.7C181.613 168.167 181.804 168.89 181.804 169.87V174H179.69V169.94C179.69 169.483 179.615 169.151 179.466 168.946C179.326 168.731 179.083 168.624 178.738 168.624C178.337 168.624 178.024 168.764 177.8 169.044C177.576 169.324 177.464 169.721 177.464 170.234V174H175.35V169.94C175.35 169.483 175.275 169.151 175.126 168.946C174.977 168.731 174.734 168.624 174.398 168.624C173.997 168.624 173.684 168.764 173.46 169.044C173.236 169.324 173.124 169.721 173.124 170.234V174H171.01ZM185.747 174.154C185.234 174.154 184.781 174.056 184.389 173.86C183.997 173.664 183.685 173.398 183.451 173.062C183.227 172.726 183.115 172.348 183.115 171.928C183.115 171.433 183.246 171.037 183.507 170.738C183.769 170.439 184.193 170.229 184.781 170.108C185.369 169.977 186.149 169.912 187.119 169.912H187.623V169.674C187.623 169.263 187.53 168.974 187.343 168.806C187.157 168.629 186.839 168.54 186.391 168.54C186.018 168.54 185.621 168.601 185.201 168.722C184.791 168.834 184.38 169.007 183.969 169.24L183.395 167.826C183.638 167.667 183.932 167.523 184.277 167.392C184.632 167.261 185.001 167.163 185.383 167.098C185.766 167.023 186.13 166.986 186.475 166.986C187.539 166.986 188.333 167.229 188.855 167.714C189.378 168.19 189.639 168.932 189.639 169.94V174H187.665V172.964C187.525 173.328 187.287 173.617 186.951 173.832C186.625 174.047 186.223 174.154 185.747 174.154ZM186.223 172.74C186.615 172.74 186.947 172.605 187.217 172.334C187.488 172.063 187.623 171.713 187.623 171.284V171.004H187.133C186.415 171.004 185.906 171.069 185.607 171.2C185.309 171.321 185.159 171.536 185.159 171.844C185.159 172.105 185.248 172.32 185.425 172.488C185.612 172.656 185.878 172.74 186.223 172.74ZM193.89 174.154C193.293 174.154 192.766 174.009 192.308 173.72C191.86 173.421 191.51 173.006 191.258 172.474C191.006 171.933 190.88 171.293 190.88 170.556C190.88 169.819 191.006 169.184 191.258 168.652C191.51 168.12 191.86 167.709 192.308 167.42C192.766 167.131 193.293 166.986 193.89 166.986C194.348 166.986 194.768 167.084 195.15 167.28C195.533 167.476 195.822 167.737 196.018 168.064V164.13H198.132V174H196.06V172.964C195.874 173.328 195.584 173.617 195.192 173.832C194.81 174.047 194.376 174.154 193.89 174.154ZM194.52 172.572C194.968 172.572 195.332 172.409 195.612 172.082C195.902 171.755 196.046 171.247 196.046 170.556C196.046 169.875 195.902 169.375 195.612 169.058C195.332 168.731 194.968 168.568 194.52 168.568C194.072 168.568 193.708 168.731 193.428 169.058C193.148 169.375 193.008 169.875 193.008 170.556C193.008 171.247 193.148 171.755 193.428 172.082C193.708 172.409 194.072 172.572 194.52 172.572ZM199.761 174V167.126H201.833V168.316C202.16 167.513 202.86 167.07 203.933 166.986L204.549 166.944L204.675 168.722L203.485 168.848C202.44 168.951 201.917 169.483 201.917 170.444V174H199.761ZM208.978 174.154C208.166 174.154 207.466 174.009 206.878 173.72C206.299 173.421 205.851 173.006 205.534 172.474C205.226 171.933 205.072 171.298 205.072 170.57C205.072 169.861 205.221 169.24 205.52 168.708C205.828 168.167 206.243 167.747 206.766 167.448C207.298 167.14 207.909 166.986 208.6 166.986C209.598 166.986 210.392 167.303 210.98 167.938C211.568 168.563 211.862 169.413 211.862 170.486V171.018H207.088C207.162 171.559 207.358 171.956 207.676 172.208C208.002 172.451 208.45 172.572 209.02 172.572C209.393 172.572 209.771 172.516 210.154 172.404C210.536 172.292 210.882 172.119 211.19 171.886L211.75 173.3C211.404 173.561 210.98 173.771 210.476 173.93C209.981 174.079 209.482 174.154 208.978 174.154ZM208.684 168.386C208.236 168.386 207.872 168.521 207.592 168.792C207.321 169.063 207.153 169.441 207.088 169.926H210.112C210.056 168.899 209.58 168.386 208.684 168.386Z" fill="#3D5171"/>
<path d="M76.044 200V191.54H78.9C80.268 191.54 81.324 191.904 82.068 192.632C82.812 193.352 83.184 194.396 83.184 195.764C83.184 197.132 82.812 198.18 82.068 198.908C81.324 199.636 80.268 200 78.9 200H76.044ZM77.028 199.16H78.828C81.036 199.16 82.14 198.028 82.14 195.764C82.14 193.508 81.036 192.38 78.828 192.38H77.028V199.16ZM84.6982 192.716V191.624H85.8983V192.716H84.6982ZM84.8183 200V194.168H85.7903V200H84.8183ZM89.3953 200.108C88.8033 200.108 88.3553 199.936 88.0513 199.592C87.7553 199.24 87.6073 198.732 87.6073 198.068V191.54H88.5793V197.996C88.5793 198.852 88.9193 199.28 89.5993 199.28C89.7993 199.28 89.9793 199.256 90.1393 199.208L90.1153 200.024C89.8673 200.08 89.6273 200.108 89.3953 200.108ZM92.9941 200.108C92.5941 200.108 92.2341 200.032 91.9141 199.88C91.6021 199.72 91.3541 199.504 91.1701 199.232C90.9861 198.96 90.8941 198.656 90.8941 198.32C90.8941 197.896 91.0021 197.56 91.2181 197.312C91.4421 197.064 91.8061 196.888 92.3101 196.784C92.8221 196.672 93.5181 196.616 94.3981 196.616H94.7821V196.244C94.7821 195.748 94.6781 195.392 94.4701 195.176C94.2701 194.952 93.9461 194.84 93.4981 194.84C93.1461 194.84 92.8061 194.892 92.4781 194.996C92.1501 195.092 91.8141 195.252 91.4701 195.476L91.1341 194.768C91.4381 194.552 91.8061 194.38 92.2381 194.252C92.6781 194.124 93.0981 194.06 93.4981 194.06C94.2501 194.06 94.8061 194.244 95.1661 194.612C95.5341 194.98 95.7181 195.552 95.7181 196.328V200H94.8061V198.992C94.6541 199.336 94.4181 199.608 94.0981 199.808C93.7861 200.008 93.4181 200.108 92.9941 200.108ZM93.1501 199.376C93.6301 199.376 94.0221 199.212 94.3261 198.884C94.6301 198.548 94.7821 198.124 94.7821 197.612V197.252H94.4101C93.7621 197.252 93.2501 197.284 92.8741 197.348C92.5061 197.404 92.2461 197.508 92.0941 197.66C91.9501 197.804 91.8781 198.004 91.8781 198.26C91.8781 198.588 91.9901 198.856 92.2141 199.064C92.4461 199.272 92.7581 199.376 93.1501 199.376ZM99.8614 200.108C99.1734 200.108 98.6574 199.928 98.3134 199.568C97.9694 199.2 97.7974 198.672 97.7974 197.984V194.924H96.6574V194.168H97.7974V192.38H98.7694V194.168H100.617V194.924H98.7694V197.888C98.7694 198.344 98.8654 198.692 99.0574 198.932C99.2494 199.164 99.5614 199.28 99.9934 199.28C100.121 199.28 100.249 199.264 100.377 199.232C100.505 199.2 100.621 199.168 100.725 199.136L100.893 199.88C100.789 199.936 100.637 199.988 100.437 200.036C100.237 200.084 100.045 200.108 99.8614 200.108ZM103.553 200.108C103.153 200.108 102.793 200.032 102.473 199.88C102.161 199.72 101.913 199.504 101.729 199.232C101.545 198.96 101.453 198.656 101.453 198.32C101.453 197.896 101.561 197.56 101.777 197.312C102.001 197.064 102.365 196.888 102.869 196.784C103.381 196.672 104.077 196.616 104.957 196.616H105.341V196.244C105.341 195.748 105.237 195.392 105.029 195.176C104.829 194.952 104.505 194.84 104.057 194.84C103.705 194.84 103.365 194.892 103.037 194.996C102.709 195.092 102.373 195.252 102.029 195.476L101.693 194.768C101.997 194.552 102.365 194.38 102.797 194.252C103.237 194.124 103.657 194.06 104.057 194.06C104.809 194.06 105.365 194.244 105.725 194.612C106.093 194.98 106.277 195.552 106.277 196.328V200H105.365V198.992C105.213 199.336 104.977 199.608 104.657 199.808C104.345 200.008 103.977 200.108 103.553 200.108ZM103.709 199.376C104.189 199.376 104.581 199.212 104.885 198.884C105.189 198.548 105.341 198.124 105.341 197.612V197.252H104.969C104.321 197.252 103.809 197.284 103.433 197.348C103.065 197.404 102.805 197.508 102.653 197.66C102.509 197.804 102.437 198.004 102.437 198.26C102.437 198.588 102.549 198.856 102.773 199.064C103.005 199.272 103.317 199.376 103.709 199.376ZM110.552 200.108C109.968 200.108 109.464 199.984 109.04 199.736C108.616 199.48 108.288 199.124 108.056 198.668C107.832 198.204 107.72 197.664 107.72 197.048C107.72 196.12 107.972 195.392 108.476 194.864C108.98 194.328 109.672 194.06 110.552 194.06C110.912 194.06 111.268 194.124 111.62 194.252C111.972 194.38 112.264 194.56 112.496 194.792L112.16 195.5C111.928 195.276 111.672 195.112 111.392 195.008C111.12 194.904 110.86 194.852 110.612 194.852C110.004 194.852 109.536 195.044 109.208 195.428C108.88 195.804 108.716 196.348 108.716 197.06C108.716 197.756 108.88 198.308 109.208 198.716C109.536 199.116 110.004 199.316 110.612 199.316C110.86 199.316 111.12 199.264 111.392 199.16C111.672 199.056 111.928 198.888 112.16 198.656L112.496 199.364C112.264 199.596 111.968 199.78 111.608 199.916C111.256 200.044 110.904 200.108 110.552 200.108ZM113.515 192.716V191.624H114.715V192.716H113.515ZM113.635 200V194.168H114.607V200H113.635ZM118.848 200.108C118.28 200.108 117.788 199.984 117.372 199.736C116.956 199.488 116.632 199.14 116.4 198.692C116.176 198.236 116.064 197.7 116.064 197.084C116.064 196.468 116.176 195.936 116.4 195.488C116.632 195.032 116.956 194.68 117.372 194.432C117.788 194.184 118.28 194.06 118.848 194.06C119.408 194.06 119.896 194.184 120.312 194.432C120.736 194.68 121.06 195.032 121.284 195.488C121.516 195.936 121.632 196.468 121.632 197.084C121.632 197.7 121.516 198.236 121.284 198.692C121.06 199.14 120.736 199.488 120.312 199.736C119.896 199.984 119.408 200.108 118.848 200.108ZM118.848 199.328C119.392 199.328 119.828 199.136 120.156 198.752C120.484 198.36 120.648 197.804 120.648 197.084C120.648 196.356 120.484 195.8 120.156 195.416C119.828 195.032 119.392 194.84 118.848 194.84C118.296 194.84 117.856 195.032 117.528 195.416C117.208 195.8 117.048 196.356 117.048 197.084C117.048 197.804 117.208 198.36 117.528 198.752C117.856 199.136 118.296 199.328 118.848 199.328ZM118.5 193.388L119.736 190.964H120.78L119.196 193.388H118.5ZM123.092 200V194.168H124.04V195.164C124.232 194.796 124.504 194.52 124.856 194.336C125.208 194.152 125.604 194.06 126.044 194.06C127.428 194.06 128.12 194.828 128.12 196.364V200H127.148V196.424C127.148 195.88 127.04 195.484 126.824 195.236C126.616 194.98 126.28 194.852 125.816 194.852C125.28 194.852 124.852 195.02 124.532 195.356C124.22 195.684 124.064 196.124 124.064 196.676V200H123.092ZM129.756 195.392V194.168H130.98V195.392H129.756ZM129.756 200V198.776H130.98V200H129.756Z" fill="#748DB4"/>
<path d="M139.672 200.12C139.12 200.12 138.584 200.036 138.064 199.868C137.544 199.692 137.12 199.456 136.792 199.16L137.296 197.984C138.024 198.544 138.808 198.824 139.648 198.824C140.152 198.824 140.544 198.696 140.824 198.44C141.112 198.176 141.256 197.824 141.256 197.384C141.256 196.936 141.12 196.576 140.848 196.304C140.576 196.024 140.204 195.884 139.732 195.884C139.06 195.884 138.504 196.152 138.064 196.688H137.032V191.54H142.228V192.812H138.532V195.104C138.956 194.784 139.476 194.624 140.092 194.624C140.628 194.624 141.092 194.74 141.484 194.972C141.884 195.196 142.192 195.512 142.408 195.92C142.632 196.32 142.744 196.788 142.744 197.324C142.744 197.876 142.62 198.364 142.372 198.788C142.124 199.204 141.768 199.532 141.304 199.772C140.848 200.004 140.304 200.12 139.672 200.12Z" fill="#748DB4"/>
<path d="M172.704 200.108C171.872 200.108 171.16 199.932 170.568 199.58C169.976 199.228 169.52 198.728 169.2 198.08C168.888 197.432 168.732 196.66 168.732 195.764C168.732 194.876 168.888 194.108 169.2 193.46C169.52 192.812 169.976 192.312 170.568 191.96C171.16 191.608 171.872 191.432 172.704 191.432C173.288 191.432 173.824 191.524 174.312 191.708C174.808 191.892 175.228 192.16 175.572 192.512L175.188 193.316C174.82 192.972 174.436 192.724 174.036 192.572C173.644 192.412 173.208 192.332 172.728 192.332C171.776 192.332 171.048 192.632 170.544 193.232C170.04 193.832 169.788 194.676 169.788 195.764C169.788 196.86 170.04 197.708 170.544 198.308C171.048 198.908 171.776 199.208 172.728 199.208C173.208 199.208 173.644 199.132 174.036 198.98C174.436 198.82 174.82 198.568 175.188 198.224L175.572 199.028C175.228 199.372 174.808 199.64 174.312 199.832C173.824 200.016 173.288 200.108 172.704 200.108ZM178.988 200.108C178.42 200.108 177.928 199.984 177.512 199.736C177.096 199.488 176.772 199.14 176.54 198.692C176.316 198.236 176.204 197.7 176.204 197.084C176.204 196.468 176.316 195.936 176.54 195.488C176.772 195.032 177.096 194.68 177.512 194.432C177.928 194.184 178.42 194.06 178.988 194.06C179.548 194.06 180.036 194.184 180.452 194.432C180.876 194.68 181.2 195.032 181.424 195.488C181.656 195.936 181.772 196.468 181.772 197.084C181.772 197.7 181.656 198.236 181.424 198.692C181.2 199.14 180.876 199.488 180.452 199.736C180.036 199.984 179.548 200.108 178.988 200.108ZM178.988 199.328C179.532 199.328 179.968 199.136 180.296 198.752C180.624 198.36 180.788 197.804 180.788 197.084C180.788 196.356 180.624 195.8 180.296 195.416C179.968 195.032 179.532 194.84 178.988 194.84C178.436 194.84 177.996 195.032 177.668 195.416C177.348 195.8 177.188 196.356 177.188 197.084C177.188 197.804 177.348 198.36 177.668 198.752C177.996 199.136 178.436 199.328 178.988 199.328ZM183.232 200V194.168H184.18V195.164C184.372 194.796 184.644 194.52 184.996 194.336C185.348 194.152 185.744 194.06 186.184 194.06C187.568 194.06 188.26 194.828 188.26 196.364V200H187.288V196.424C187.288 195.88 187.18 195.484 186.964 195.236C186.756 194.98 186.42 194.852 185.956 194.852C185.42 194.852 184.992 195.02 184.672 195.356C184.36 195.684 184.204 196.124 184.204 196.676V200H183.232ZM192.393 200.108C191.705 200.108 191.189 199.928 190.845 199.568C190.501 199.2 190.329 198.672 190.329 197.984V194.924H189.189V194.168H190.329V192.38H191.301V194.168H193.149V194.924H191.301V197.888C191.301 198.344 191.397 198.692 191.589 198.932C191.781 199.164 192.093 199.28 192.525 199.28C192.653 199.28 192.781 199.264 192.909 199.232C193.037 199.2 193.153 199.168 193.257 199.136L193.425 199.88C193.321 199.936 193.169 199.988 192.969 200.036C192.769 200.084 192.577 200.108 192.393 200.108ZM194.248 200V194.168H195.196V195.212C195.508 194.508 196.148 194.12 197.116 194.048L197.464 194.012L197.536 194.852L196.924 194.924C196.372 194.972 195.952 195.148 195.664 195.452C195.376 195.748 195.232 196.156 195.232 196.676V200H194.248ZM200.326 200.108C199.926 200.108 199.566 200.032 199.246 199.88C198.934 199.72 198.686 199.504 198.502 199.232C198.318 198.96 198.226 198.656 198.226 198.32C198.226 197.896 198.334 197.56 198.55 197.312C198.774 197.064 199.138 196.888 199.642 196.784C200.154 196.672 200.85 196.616 201.73 196.616H202.114V196.244C202.114 195.748 202.01 195.392 201.802 195.176C201.602 194.952 201.278 194.84 200.83 194.84C200.478 194.84 200.138 194.892 199.81 194.996C199.482 195.092 199.146 195.252 198.802 195.476L198.466 194.768C198.77 194.552 199.138 194.38 199.57 194.252C200.01 194.124 200.43 194.06 200.83 194.06C201.582 194.06 202.138 194.244 202.498 194.612C202.866 194.98 203.05 195.552 203.05 196.328V200H202.138V198.992C201.986 199.336 201.75 199.608 201.43 199.808C201.118 200.008 200.75 200.108 200.326 200.108ZM200.482 199.376C200.962 199.376 201.354 199.212 201.658 198.884C201.962 198.548 202.114 198.124 202.114 197.612V197.252H201.742C201.094 197.252 200.582 197.284 200.206 197.348C199.838 197.404 199.578 197.508 199.426 197.66C199.282 197.804 199.21 198.004 199.21 198.26C199.21 198.588 199.322 198.856 199.546 199.064C199.778 199.272 200.09 199.376 200.482 199.376ZM207.325 200.108C206.741 200.108 206.237 199.984 205.813 199.736C205.389 199.48 205.061 199.124 204.829 198.668C204.605 198.204 204.493 197.664 204.493 197.048C204.493 196.12 204.745 195.392 205.249 194.864C205.753 194.328 206.445 194.06 207.325 194.06C207.685 194.06 208.041 194.124 208.393 194.252C208.745 194.38 209.037 194.56 209.269 194.792L208.933 195.5C208.701 195.276 208.445 195.112 208.165 195.008C207.893 194.904 207.633 194.852 207.385 194.852C206.777 194.852 206.309 195.044 205.981 195.428C205.653 195.804 205.489 196.348 205.489 197.06C205.489 197.756 205.653 198.308 205.981 198.716C206.309 199.116 206.777 199.316 207.385 199.316C207.633 199.316 207.893 199.264 208.165 199.16C208.445 199.056 208.701 198.888 208.933 198.656L209.269 199.364C209.037 199.596 208.741 199.78 208.381 199.916C208.029 200.044 207.677 200.108 207.325 200.108ZM212.763 200.108C212.179 200.108 211.675 199.984 211.251 199.736C210.827 199.48 210.499 199.124 210.267 198.668C210.043 198.204 209.931 197.664 209.931 197.048C209.931 196.12 210.183 195.392 210.687 194.864C211.191 194.328 211.883 194.06 212.763 194.06C213.123 194.06 213.479 194.124 213.831 194.252C214.183 194.38 214.475 194.56 214.707 194.792L214.371 195.5C214.139 195.276 213.883 195.112 213.603 195.008C213.331 194.904 213.071 194.852 212.823 194.852C212.215 194.852 211.747 195.044 211.419 195.428C211.091 195.804 210.927 196.348 210.927 197.06C210.927 197.756 211.091 198.308 211.419 198.716C211.747 199.116 212.215 199.316 212.823 199.316C213.071 199.316 213.331 199.264 213.603 199.16C213.883 199.056 214.139 198.888 214.371 198.656L214.707 199.364C214.475 199.596 214.179 199.78 213.819 199.916C213.467 200.044 213.115 200.108 212.763 200.108ZM215.726 192.716V191.624H216.926V192.716H215.726ZM215.846 200V194.168H216.818V200H215.846ZM221.059 200.108C220.491 200.108 219.999 199.984 219.583 199.736C219.167 199.488 218.843 199.14 218.611 198.692C218.387 198.236 218.275 197.7 218.275 197.084C218.275 196.468 218.387 195.936 218.611 195.488C218.843 195.032 219.167 194.68 219.583 194.432C219.999 194.184 220.491 194.06 221.059 194.06C221.619 194.06 222.107 194.184 222.523 194.432C222.947 194.68 223.271 195.032 223.495 195.488C223.727 195.936 223.843 196.468 223.843 197.084C223.843 197.7 223.727 198.236 223.495 198.692C223.271 199.14 222.947 199.488 222.523 199.736C222.107 199.984 221.619 200.108 221.059 200.108ZM221.059 199.328C221.603 199.328 222.039 199.136 222.367 198.752C222.695 198.36 222.859 197.804 222.859 197.084C222.859 196.356 222.695 195.8 222.367 195.416C222.039 195.032 221.603 194.84 221.059 194.84C220.507 194.84 220.067 195.032 219.739 195.416C219.419 195.8 219.259 196.356 219.259 197.084C219.259 197.804 219.419 198.36 219.739 198.752C220.067 199.136 220.507 199.328 221.059 199.328ZM225.303 200V194.168H226.251V195.164C226.443 194.796 226.715 194.52 227.067 194.336C227.419 194.152 227.815 194.06 228.255 194.06C229.639 194.06 230.331 194.828 230.331 196.364V200H229.359V196.424C229.359 195.88 229.251 195.484 229.035 195.236C228.827 194.98 228.491 194.852 228.027 194.852C227.491 194.852 227.063 195.02 226.743 195.356C226.431 195.684 226.275 196.124 226.275 196.676V200H225.303ZM234.751 200.108C233.831 200.108 233.103 199.84 232.567 199.304C232.031 198.76 231.763 198.024 231.763 197.096C231.763 196.496 231.883 195.968 232.123 195.512C232.363 195.048 232.691 194.692 233.107 194.444C233.531 194.188 234.019 194.06 234.571 194.06C235.363 194.06 235.983 194.316 236.431 194.828C236.879 195.332 237.103 196.028 237.103 196.916V197.288H232.711C232.743 197.952 232.935 198.46 233.287 198.812C233.639 199.156 234.127 199.328 234.751 199.328C235.103 199.328 235.439 199.276 235.759 199.172C236.079 199.06 236.383 198.88 236.671 198.632L237.007 199.316C236.743 199.564 236.407 199.76 235.999 199.904C235.591 200.04 235.175 200.108 234.751 200.108ZM234.595 194.78C234.043 194.78 233.607 194.952 233.287 195.296C232.967 195.64 232.779 196.092 232.723 196.652H236.263C236.239 196.06 236.083 195.6 235.795 195.272C235.515 194.944 235.115 194.78 234.595 194.78ZM240.478 200.108C240.022 200.108 239.59 200.044 239.182 199.916C238.774 199.788 238.438 199.608 238.174 199.376L238.486 198.692C238.774 198.924 239.09 199.096 239.434 199.208C239.786 199.312 240.142 199.364 240.502 199.364C240.958 199.364 241.302 199.28 241.534 199.112C241.766 198.944 241.882 198.716 241.882 198.428C241.882 198.204 241.806 198.028 241.654 197.9C241.502 197.764 241.262 197.66 240.934 197.588L239.842 197.348C238.85 197.132 238.354 196.62 238.354 195.812C238.354 195.284 238.562 194.86 238.978 194.54C239.402 194.22 239.954 194.06 240.634 194.06C241.034 194.06 241.414 194.124 241.774 194.252C242.142 194.372 242.446 194.552 242.686 194.792L242.362 195.476C242.13 195.26 241.858 195.096 241.546 194.984C241.242 194.864 240.938 194.804 240.634 194.804C240.186 194.804 239.846 194.892 239.614 195.068C239.382 195.244 239.266 195.476 239.266 195.764C239.266 196.212 239.562 196.5 240.154 196.628L241.246 196.856C241.758 196.968 242.146 197.148 242.41 197.396C242.674 197.636 242.806 197.964 242.806 198.38C242.806 198.916 242.594 199.34 242.17 199.652C241.746 199.956 241.182 200.108 240.478 200.108ZM244.131 195.392V194.168H245.355V195.392H244.131ZM244.131 200V198.776H245.355V200H244.131Z" fill="#748DB4"/>
<path d="M254.432 200.12C253.856 200.12 253.304 200.036 252.776 199.868C252.256 199.692 251.824 199.456 251.48 199.16L251.984 197.984C252.704 198.544 253.504 198.824 254.384 198.824C255.464 198.824 256.004 198.4 256.004 197.552C256.004 197.152 255.868 196.856 255.596 196.664C255.332 196.464 254.944 196.364 254.432 196.364H253.076V195.092H254.288C254.736 195.092 255.092 194.984 255.356 194.768C255.62 194.544 255.752 194.236 255.752 193.844C255.752 193.476 255.628 193.196 255.38 193.004C255.14 192.812 254.788 192.716 254.324 192.716C253.492 192.716 252.76 193.004 252.128 193.58L251.624 192.428C251.96 192.108 252.38 191.86 252.884 191.684C253.388 191.508 253.912 191.42 254.456 191.42C255.336 191.42 256.02 191.62 256.508 192.02C256.996 192.412 257.24 192.96 257.24 193.664C257.24 194.12 257.124 194.52 256.892 194.864C256.66 195.208 256.344 195.456 255.944 195.608C256.432 195.744 256.812 195.996 257.084 196.364C257.356 196.724 257.492 197.164 257.492 197.684C257.492 198.436 257.22 199.032 256.676 199.472C256.132 199.904 255.384 200.12 254.432 200.12ZM261.795 200.12C260.795 200.12 260.031 199.744 259.503 198.992C258.975 198.232 258.711 197.152 258.711 195.752C258.711 194.336 258.975 193.26 259.503 192.524C260.031 191.788 260.795 191.42 261.795 191.42C262.803 191.42 263.567 191.788 264.087 192.524C264.615 193.26 264.879 194.332 264.879 195.74C264.879 197.148 264.615 198.232 264.087 198.992C263.559 199.744 262.795 200.12 261.795 200.12ZM261.795 198.86C262.339 198.86 262.739 198.612 262.995 198.116C263.259 197.612 263.391 196.82 263.391 195.74C263.391 194.668 263.259 193.892 262.995 193.412C262.739 192.924 262.339 192.68 261.795 192.68C261.259 192.68 260.859 192.924 260.595 193.412C260.331 193.892 260.199 194.668 260.199 195.74C260.199 196.82 260.331 197.612 260.595 198.116C260.859 198.612 261.259 198.86 261.795 198.86ZM266.279 200.852L265.151 200.516L268.259 190.88L269.387 191.216L266.279 200.852ZM270.46 200V198.728H272.368V193.292L270.892 194.18L270.292 193.052L272.812 191.54H273.904V198.728H275.692V200H270.46ZM279.948 200.12C278.948 200.12 278.184 199.744 277.656 198.992C277.128 198.232 276.864 197.152 276.864 195.752C276.864 194.336 277.128 193.26 277.656 192.524C278.184 191.788 278.948 191.42 279.948 191.42C280.956 191.42 281.72 191.788 282.24 192.524C282.768 193.26 283.032 194.332 283.032 195.74C283.032 197.148 282.768 198.232 282.24 198.992C281.712 199.744 280.948 200.12 279.948 200.12ZM279.948 198.86C280.492 198.86 280.892 198.612 281.148 198.116C281.412 197.612 281.544 196.82 281.544 195.74C281.544 194.668 281.412 193.892 281.148 193.412C280.892 192.924 280.492 192.68 279.948 192.68C279.412 192.68 279.012 192.924 278.748 193.412C278.484 193.892 278.352 194.668 278.352 195.74C278.352 196.82 278.484 197.612 278.748 198.116C279.012 198.612 279.412 198.86 279.948 198.86Z" fill="#748DB4"/>
</g>
<rect x="59" y="236" width="85" height="26" rx="13" fill="#CAD4E2"/>
<path d="M72.9801 254V253.02H75.2341V245.516L73.4561 246.636L72.9661 245.782L75.5561 244.13H76.3821V253.02H78.4961V254H72.9801ZM80.8987 254V253.132L84.2727 249.492C84.7487 248.969 85.0893 248.493 85.2947 248.064C85.5093 247.635 85.6167 247.196 85.6167 246.748C85.6167 245.6 84.9493 245.026 83.6147 245.026C82.616 245.026 81.734 245.399 80.9687 246.146L80.5347 245.25C80.8987 244.877 81.3607 244.578 81.9207 244.354C82.49 244.121 83.0873 244.004 83.7127 244.004C84.702 244.004 85.458 244.237 85.9807 244.704C86.5127 245.161 86.7787 245.815 86.7787 246.664C86.7787 247.252 86.634 247.831 86.3447 248.4C86.0553 248.96 85.612 249.557 85.0147 250.192L82.3687 253.02H87.1847V254H80.8987ZM88.9152 248.624V247.196H90.3432V248.624H88.9152ZM88.9152 254V252.572H90.3432V254H88.9152ZM95.3068 254.126C94.6534 254.126 94.0328 254.028 93.4448 253.832C92.8568 253.627 92.3621 253.333 91.9608 252.95L92.3808 252.04C92.8381 252.413 93.3001 252.684 93.7668 252.852C94.2334 253.02 94.7374 253.104 95.2788 253.104C95.9881 253.104 96.5294 252.95 96.9028 252.642C97.2854 252.325 97.4768 251.863 97.4768 251.256C97.4768 250.677 97.2854 250.239 96.9028 249.94C96.5201 249.641 95.9648 249.492 95.2368 249.492H93.7808V248.498H95.1388C95.7734 248.498 96.2728 248.335 96.6368 248.008C97.0101 247.672 97.1968 247.215 97.1968 246.636C97.1968 246.123 97.0241 245.726 96.6788 245.446C96.3428 245.166 95.8621 245.026 95.2368 245.026C94.2101 245.026 93.3141 245.399 92.5488 246.146L92.1288 245.25C92.4928 244.858 92.9548 244.555 93.5148 244.34C94.0841 244.116 94.6814 244.004 95.3068 244.004C96.2588 244.004 97.0008 244.228 97.5328 244.676C98.0741 245.124 98.3448 245.745 98.3448 246.538C98.3448 247.089 98.2048 247.574 97.9248 247.994C97.6448 248.405 97.2574 248.703 96.7628 248.89C97.3508 249.049 97.8081 249.343 98.1348 249.772C98.4614 250.192 98.6248 250.715 98.6248 251.34C98.6248 252.189 98.3261 252.866 97.7288 253.37C97.1408 253.874 96.3334 254.126 95.3068 254.126ZM104.023 254.126C103.389 254.126 102.782 254.023 102.203 253.818C101.625 253.613 101.135 253.323 100.733 252.95L101.167 252.04C102.035 252.749 102.983 253.104 104.009 253.104C104.691 253.104 105.227 252.913 105.619 252.53C106.011 252.147 106.207 251.643 106.207 251.018C106.207 250.374 106.021 249.847 105.647 249.436C105.274 249.025 104.761 248.82 104.107 248.82C103.165 248.82 102.423 249.212 101.881 249.996H101.041V244.13H106.767V245.11H102.175V248.638C102.717 248.097 103.431 247.826 104.317 247.826C104.933 247.826 105.47 247.957 105.927 248.218C106.385 248.479 106.735 248.848 106.977 249.324C107.229 249.791 107.355 250.337 107.355 250.962C107.355 251.578 107.22 252.124 106.949 252.6C106.679 253.076 106.291 253.449 105.787 253.72C105.293 253.991 104.705 254.126 104.023 254.126ZM112.668 256.52V247.196H113.774V248.414C113.979 247.994 114.282 247.667 114.684 247.434C115.094 247.191 115.57 247.07 116.112 247.07C116.718 247.07 117.246 247.215 117.694 247.504C118.151 247.784 118.501 248.19 118.744 248.722C118.996 249.245 119.122 249.87 119.122 250.598C119.122 251.317 118.996 251.942 118.744 252.474C118.501 252.997 118.151 253.403 117.694 253.692C117.246 253.981 116.718 254.126 116.112 254.126C115.589 254.126 115.122 254.009 114.712 253.776C114.301 253.543 113.998 253.221 113.802 252.81V256.52H112.668ZM115.874 253.216C116.508 253.216 117.017 252.992 117.4 252.544C117.782 252.087 117.974 251.438 117.974 250.598C117.974 249.749 117.782 249.1 117.4 248.652C117.017 248.204 116.508 247.98 115.874 247.98C115.239 247.98 114.73 248.204 114.348 248.652C113.965 249.1 113.774 249.749 113.774 250.598C113.774 251.438 113.965 252.087 114.348 252.544C114.73 252.992 115.239 253.216 115.874 253.216ZM120.858 254V247.196H121.964V248.344C122.169 247.933 122.454 247.621 122.818 247.406C123.182 247.182 123.606 247.07 124.092 247.07C125.156 247.07 125.837 247.532 126.136 248.456C126.341 248.027 126.644 247.691 127.046 247.448C127.447 247.196 127.909 247.07 128.432 247.07C129.944 247.07 130.7 247.966 130.7 249.758V254H129.566V249.814C129.566 249.189 129.454 248.731 129.23 248.442C129.015 248.143 128.656 247.994 128.152 247.994C127.601 247.994 127.162 248.19 126.836 248.582C126.509 248.974 126.346 249.497 126.346 250.15V254H125.212V249.814C125.212 249.189 125.1 248.731 124.876 248.442C124.661 248.143 124.302 247.994 123.798 247.994C123.238 247.994 122.794 248.19 122.468 248.582C122.15 248.974 121.992 249.497 121.992 250.15V254H120.858Z" fill="#0E131B"/>
<g filter="url(#filter1_d_2_9165)">
<rect x="59" y="270" width="343" height="78" rx="14" fill="white"/>
<path d="M75.994 302V292.13H80.502C81.6033 292.13 82.4527 292.41 83.05 292.97C83.6473 293.521 83.946 294.291 83.946 295.28C83.946 296.269 83.6473 297.044 83.05 297.604C82.4527 298.164 81.6033 298.444 80.502 298.444H78.164V302H75.994ZM78.164 296.764H80.138C81.286 296.764 81.86 296.269 81.86 295.28C81.86 294.309 81.286 293.824 80.138 293.824H78.164V296.764ZM88.0301 302.154C87.2927 302.154 86.6487 302.009 86.0981 301.72C85.5567 301.421 85.1367 301.006 84.8381 300.474C84.5394 299.933 84.3901 299.293 84.3901 298.556C84.3901 297.828 84.5394 297.198 84.8381 296.666C85.1367 296.125 85.5567 295.709 86.0981 295.42C86.6487 295.131 87.2927 294.986 88.0301 294.986C88.7674 294.986 89.4067 295.131 89.9481 295.42C90.4987 295.709 90.9234 296.125 91.2221 296.666C91.5301 297.198 91.6841 297.828 91.6841 298.556C91.6841 299.293 91.5301 299.933 91.2221 300.474C90.9234 301.006 90.4987 301.421 89.9481 301.72C89.4067 302.009 88.7674 302.154 88.0301 302.154ZM88.0301 300.572C88.4781 300.572 88.8421 300.409 89.1221 300.082C89.4114 299.755 89.5561 299.247 89.5561 298.556C89.5561 297.875 89.4114 297.375 89.1221 297.058C88.8421 296.731 88.4781 296.568 88.0301 296.568C87.5821 296.568 87.2181 296.731 86.9381 297.058C86.6581 297.375 86.5181 297.875 86.5181 298.556C86.5181 299.247 86.6581 299.755 86.9381 300.082C87.2181 300.409 87.5821 300.572 88.0301 300.572ZM95.6022 302.154C94.9955 302.154 94.4309 302.084 93.9082 301.944C93.3855 301.804 92.9515 301.613 92.6062 301.37L93.1102 299.998C93.4555 300.213 93.8475 300.385 94.2862 300.516C94.7342 300.637 95.1775 300.698 95.6162 300.698C96.0082 300.698 96.2975 300.637 96.4842 300.516C96.6709 300.385 96.7642 300.217 96.7642 300.012C96.7642 299.685 96.5262 299.48 96.0502 299.396L94.5802 299.13C93.9922 299.027 93.5442 298.817 93.2362 298.5C92.9282 298.183 92.7742 297.767 92.7742 297.254C92.7742 296.787 92.9049 296.386 93.1662 296.05C93.4275 295.714 93.7869 295.453 94.2442 295.266C94.7015 295.079 95.2289 294.986 95.8262 294.986C96.3209 294.986 96.8015 295.051 97.2682 295.182C97.7349 295.303 98.1362 295.499 98.4722 295.77L97.9402 297.128C97.6602 296.923 97.3242 296.755 96.9322 296.624C96.5495 296.493 96.1902 296.428 95.8542 296.428C95.4342 296.428 95.1309 296.498 94.9442 296.638C94.7575 296.769 94.6642 296.937 94.6642 297.142C94.6642 297.469 94.8835 297.674 95.3222 297.758L96.7922 298.024C97.3989 298.127 97.8609 298.332 98.1782 298.64C98.4955 298.939 98.6542 299.349 98.6542 299.872C98.6542 300.591 98.3742 301.151 97.8142 301.552C97.2542 301.953 96.5169 302.154 95.6022 302.154ZM99.7768 293.796V291.822H102.059V293.796H99.7768ZM99.8608 302V295.126H101.975V302H99.8608ZM106.953 302.154C106.206 302.154 105.553 302.009 104.993 301.72C104.442 301.421 104.018 301.001 103.719 300.46C103.42 299.919 103.271 299.279 103.271 298.542C103.271 297.805 103.42 297.17 103.719 296.638C104.018 296.106 104.442 295.7 104.993 295.42C105.553 295.131 106.206 294.986 106.953 294.986C107.392 294.986 107.835 295.051 108.283 295.182C108.731 295.313 109.095 295.499 109.375 295.742L108.787 297.198C108.554 297.011 108.292 296.867 108.003 296.764C107.714 296.652 107.434 296.596 107.163 296.596C106.612 296.596 106.183 296.769 105.875 297.114C105.576 297.45 105.427 297.931 105.427 298.556C105.427 299.172 105.576 299.657 105.875 300.012C106.183 300.357 106.612 300.53 107.163 300.53C107.424 300.53 107.7 300.479 107.989 300.376C108.288 300.273 108.554 300.124 108.787 299.928L109.375 301.384C109.095 301.627 108.731 301.818 108.283 301.958C107.835 302.089 107.392 302.154 106.953 302.154ZM110.208 293.796V291.822H112.49V293.796H110.208ZM110.292 302V295.126H112.406V302H110.292ZM117.343 302.154C116.605 302.154 115.961 302.009 115.411 301.72C114.869 301.421 114.449 301.006 114.151 300.474C113.852 299.933 113.703 299.293 113.703 298.556C113.703 297.828 113.852 297.198 114.151 296.666C114.449 296.125 114.869 295.709 115.411 295.42C115.961 295.131 116.605 294.986 117.343 294.986C118.08 294.986 118.719 295.131 119.261 295.42C119.811 295.709 120.236 296.125 120.535 296.666C120.843 297.198 120.997 297.828 120.997 298.556C120.997 299.293 120.843 299.933 120.535 300.474C120.236 301.006 119.811 301.421 119.261 301.72C118.719 302.009 118.08 302.154 117.343 302.154ZM117.343 300.572C117.791 300.572 118.155 300.409 118.435 300.082C118.724 299.755 118.869 299.247 118.869 298.556C118.869 297.875 118.724 297.375 118.435 297.058C118.155 296.731 117.791 296.568 117.343 296.568C116.895 296.568 116.531 296.731 116.251 297.058C115.971 297.375 115.831 297.875 115.831 298.556C115.831 299.247 115.971 299.755 116.251 300.082C116.531 300.409 116.895 300.572 117.343 300.572ZM116.643 294.23L118.085 291.36H120.101L118.043 294.23H116.643ZM122.283 302V295.126H124.355V296.134C124.588 295.761 124.901 295.476 125.293 295.28C125.685 295.084 126.123 294.986 126.609 294.986C127.421 294.986 128.027 295.224 128.429 295.7C128.83 296.167 129.031 296.89 129.031 297.87V302H126.917V297.968C126.917 297.492 126.828 297.151 126.651 296.946C126.473 296.731 126.212 296.624 125.867 296.624C125.419 296.624 125.059 296.764 124.789 297.044C124.527 297.324 124.397 297.697 124.397 298.164V302H122.283ZM137.179 302.154C136.582 302.154 136.055 302.009 135.597 301.72C135.149 301.421 134.799 301.006 134.547 300.474C134.295 299.933 134.169 299.293 134.169 298.556C134.169 297.819 134.295 297.184 134.547 296.652C134.799 296.12 135.149 295.709 135.597 295.42C136.055 295.131 136.582 294.986 137.179 294.986C137.637 294.986 138.057 295.084 138.439 295.28C138.822 295.476 139.111 295.737 139.307 296.064V292.13H141.421V302H139.349V300.964C139.163 301.328 138.873 301.617 138.481 301.832C138.099 302.047 137.665 302.154 137.179 302.154ZM137.809 300.572C138.257 300.572 138.621 300.409 138.901 300.082C139.191 299.755 139.335 299.247 139.335 298.556C139.335 297.875 139.191 297.375 138.901 297.058C138.621 296.731 138.257 296.568 137.809 296.568C137.361 296.568 136.997 296.731 136.717 297.058C136.437 297.375 136.297 297.875 136.297 298.556C136.297 299.247 136.437 299.755 136.717 300.082C136.997 300.409 137.361 300.572 137.809 300.572ZM146.62 302.154C145.808 302.154 145.108 302.009 144.52 301.72C143.942 301.421 143.494 301.006 143.176 300.474C142.868 299.933 142.714 299.298 142.714 298.57C142.714 297.861 142.864 297.24 143.162 296.708C143.47 296.167 143.886 295.747 144.408 295.448C144.94 295.14 145.552 294.986 146.242 294.986C147.241 294.986 148.034 295.303 148.622 295.938C149.21 296.563 149.504 297.413 149.504 298.486V299.018H144.73C144.805 299.559 145.001 299.956 145.318 300.208C145.645 300.451 146.093 300.572 146.662 300.572C147.036 300.572 147.414 300.516 147.796 300.404C148.179 300.292 148.524 300.119 148.832 299.886L149.392 301.3C149.047 301.561 148.622 301.771 148.118 301.93C147.624 302.079 147.124 302.154 146.62 302.154ZM146.326 296.386C145.878 296.386 145.514 296.521 145.234 296.792C144.964 297.063 144.796 297.441 144.73 297.926H147.754C147.698 296.899 147.222 296.386 146.326 296.386ZM157.192 302.154C156.306 302.154 155.657 301.925 155.246 301.468C154.836 301.001 154.63 300.311 154.63 299.396V292.13H156.744V299.312C156.744 300.059 157.076 300.432 157.738 300.432C157.841 300.432 157.939 300.427 158.032 300.418C158.135 300.409 158.233 300.39 158.326 300.362L158.298 302C157.944 302.103 157.575 302.154 157.192 302.154ZM161.616 302.154C161.103 302.154 160.65 302.056 160.258 301.86C159.866 301.664 159.554 301.398 159.32 301.062C159.096 300.726 158.984 300.348 158.984 299.928C158.984 299.433 159.115 299.037 159.376 298.738C159.638 298.439 160.062 298.229 160.65 298.108C161.238 297.977 162.018 297.912 162.988 297.912H163.492V297.674C163.492 297.263 163.399 296.974 163.212 296.806C163.026 296.629 162.708 296.54 162.26 296.54C161.887 296.54 161.49 296.601 161.07 296.722C160.66 296.834 160.249 297.007 159.838 297.24L159.264 295.826C159.507 295.667 159.801 295.523 160.146 295.392C160.501 295.261 160.87 295.163 161.252 295.098C161.635 295.023 161.999 294.986 162.344 294.986C163.408 294.986 164.202 295.229 164.724 295.714C165.247 296.19 165.508 296.932 165.508 297.94V302H163.534V300.964C163.394 301.328 163.156 301.617 162.82 301.832C162.494 302.047 162.092 302.154 161.616 302.154ZM162.092 300.74C162.484 300.74 162.816 300.605 163.086 300.334C163.357 300.063 163.492 299.713 163.492 299.284V299.004H163.002C162.284 299.004 161.775 299.069 161.476 299.2C161.178 299.321 161.028 299.536 161.028 299.844C161.028 300.105 161.117 300.32 161.294 300.488C161.481 300.656 161.747 300.74 162.092 300.74ZM171.01 302V295.126H173.082V296.12C173.287 295.765 173.567 295.49 173.922 295.294C174.286 295.089 174.706 294.986 175.182 294.986C175.667 294.986 176.078 295.093 176.414 295.308C176.759 295.523 177.021 295.849 177.198 296.288C177.413 295.877 177.721 295.56 178.122 295.336C178.533 295.103 178.985 294.986 179.48 294.986C180.264 294.986 180.847 295.224 181.23 295.7C181.613 296.167 181.804 296.89 181.804 297.87V302H179.69V297.94C179.69 297.483 179.615 297.151 179.466 296.946C179.326 296.731 179.083 296.624 178.738 296.624C178.337 296.624 178.024 296.764 177.8 297.044C177.576 297.324 177.464 297.721 177.464 298.234V302H175.35V297.94C175.35 297.483 175.275 297.151 175.126 296.946C174.977 296.731 174.734 296.624 174.398 296.624C173.997 296.624 173.684 296.764 173.46 297.044C173.236 297.324 173.124 297.721 173.124 298.234V302H171.01ZM185.747 302.154C185.234 302.154 184.781 302.056 184.389 301.86C183.997 301.664 183.685 301.398 183.451 301.062C183.227 300.726 183.115 300.348 183.115 299.928C183.115 299.433 183.246 299.037 183.507 298.738C183.769 298.439 184.193 298.229 184.781 298.108C185.369 297.977 186.149 297.912 187.119 297.912H187.623V297.674C187.623 297.263 187.53 296.974 187.343 296.806C187.157 296.629 186.839 296.54 186.391 296.54C186.018 296.54 185.621 296.601 185.201 296.722C184.791 296.834 184.38 297.007 183.969 297.24L183.395 295.826C183.638 295.667 183.932 295.523 184.277 295.392C184.632 295.261 185.001 295.163 185.383 295.098C185.766 295.023 186.13 294.986 186.475 294.986C187.539 294.986 188.333 295.229 188.855 295.714C189.378 296.19 189.639 296.932 189.639 297.94V302H187.665V300.964C187.525 301.328 187.287 301.617 186.951 301.832C186.625 302.047 186.223 302.154 185.747 302.154ZM186.223 300.74C186.615 300.74 186.947 300.605 187.217 300.334C187.488 300.063 187.623 299.713 187.623 299.284V299.004H187.133C186.415 299.004 185.906 299.069 185.607 299.2C185.309 299.321 185.159 299.536 185.159 299.844C185.159 300.105 185.248 300.32 185.425 300.488C185.612 300.656 185.878 300.74 186.223 300.74ZM193.89 302.154C193.293 302.154 192.766 302.009 192.308 301.72C191.86 301.421 191.51 301.006 191.258 300.474C191.006 299.933 190.88 299.293 190.88 298.556C190.88 297.819 191.006 297.184 191.258 296.652C191.51 296.12 191.86 295.709 192.308 295.42C192.766 295.131 193.293 294.986 193.89 294.986C194.348 294.986 194.768 295.084 195.15 295.28C195.533 295.476 195.822 295.737 196.018 296.064V292.13H198.132V302H196.06V300.964C195.874 301.328 195.584 301.617 195.192 301.832C194.81 302.047 194.376 302.154 193.89 302.154ZM194.52 300.572C194.968 300.572 195.332 300.409 195.612 300.082C195.902 299.755 196.046 299.247 196.046 298.556C196.046 297.875 195.902 297.375 195.612 297.058C195.332 296.731 194.968 296.568 194.52 296.568C194.072 296.568 193.708 296.731 193.428 297.058C193.148 297.375 193.008 297.875 193.008 298.556C193.008 299.247 193.148 299.755 193.428 300.082C193.708 300.409 194.072 300.572 194.52 300.572ZM199.761 302V295.126H201.833V296.316C202.16 295.513 202.86 295.07 203.933 294.986L204.549 294.944L204.675 296.722L203.485 296.848C202.44 296.951 201.917 297.483 201.917 298.444V302H199.761ZM208.978 302.154C208.166 302.154 207.466 302.009 206.878 301.72C206.299 301.421 205.851 301.006 205.534 300.474C205.226 299.933 205.072 299.298 205.072 298.57C205.072 297.861 205.221 297.24 205.52 296.708C205.828 296.167 206.243 295.747 206.766 295.448C207.298 295.14 207.909 294.986 208.6 294.986C209.598 294.986 210.392 295.303 210.98 295.938C211.568 296.563 211.862 297.413 211.862 298.486V299.018H207.088C207.162 299.559 207.358 299.956 207.676 300.208C208.002 300.451 208.45 300.572 209.02 300.572C209.393 300.572 209.771 300.516 210.154 300.404C210.536 300.292 210.882 300.119 211.19 299.886L211.75 301.3C211.404 301.561 210.98 301.771 210.476 301.93C209.981 302.079 209.482 302.154 208.978 302.154ZM208.684 296.386C208.236 296.386 207.872 296.521 207.592 296.792C207.321 297.063 207.153 297.441 207.088 297.926H210.112C210.056 296.899 209.58 296.386 208.684 296.386Z" fill="#3D5171"/>
<path d="M76.044 328V319.54H78.9C80.268 319.54 81.324 319.904 82.068 320.632C82.812 321.352 83.184 322.396 83.184 323.764C83.184 325.132 82.812 326.18 82.068 326.908C81.324 327.636 80.268 328 78.9 328H76.044ZM77.028 327.16H78.828C81.036 327.16 82.14 326.028 82.14 323.764C82.14 321.508 81.036 320.38 78.828 320.38H77.028V327.16ZM84.6982 320.716V319.624H85.8983V320.716H84.6982ZM84.8183 328V322.168H85.7903V328H84.8183ZM89.3953 328.108C88.8033 328.108 88.3553 327.936 88.0513 327.592C87.7553 327.24 87.6073 326.732 87.6073 326.068V319.54H88.5793V325.996C88.5793 326.852 88.9193 327.28 89.5993 327.28C89.7993 327.28 89.9793 327.256 90.1393 327.208L90.1153 328.024C89.8673 328.08 89.6273 328.108 89.3953 328.108ZM92.9941 328.108C92.5941 328.108 92.2341 328.032 91.9141 327.88C91.6021 327.72 91.3541 327.504 91.1701 327.232C90.9861 326.96 90.8941 326.656 90.8941 326.32C90.8941 325.896 91.0021 325.56 91.2181 325.312C91.4421 325.064 91.8061 324.888 92.3101 324.784C92.8221 324.672 93.5181 324.616 94.3981 324.616H94.7821V324.244C94.7821 323.748 94.6781 323.392 94.4701 323.176C94.2701 322.952 93.9461 322.84 93.4981 322.84C93.1461 322.84 92.8061 322.892 92.4781 322.996C92.1501 323.092 91.8141 323.252 91.4701 323.476L91.1341 322.768C91.4381 322.552 91.8061 322.38 92.2381 322.252C92.6781 322.124 93.0981 322.06 93.4981 322.06C94.2501 322.06 94.8061 322.244 95.1661 322.612C95.5341 322.98 95.7181 323.552 95.7181 324.328V328H94.8061V326.992C94.6541 327.336 94.4181 327.608 94.0981 327.808C93.7861 328.008 93.4181 328.108 92.9941 328.108ZM93.1501 327.376C93.6301 327.376 94.0221 327.212 94.3261 326.884C94.6301 326.548 94.7821 326.124 94.7821 325.612V325.252H94.4101C93.7621 325.252 93.2501 325.284 92.8741 325.348C92.5061 325.404 92.2461 325.508 92.0941 325.66C91.9501 325.804 91.8781 326.004 91.8781 326.26C91.8781 326.588 91.9901 326.856 92.2141 327.064C92.4461 327.272 92.7581 327.376 93.1501 327.376ZM99.8614 328.108C99.1734 328.108 98.6574 327.928 98.3134 327.568C97.9694 327.2 97.7974 326.672 97.7974 325.984V322.924H96.6574V322.168H97.7974V320.38H98.7694V322.168H100.617V322.924H98.7694V325.888C98.7694 326.344 98.8654 326.692 99.0574 326.932C99.2494 327.164 99.5614 327.28 99.9934 327.28C100.121 327.28 100.249 327.264 100.377 327.232C100.505 327.2 100.621 327.168 100.725 327.136L100.893 327.88C100.789 327.936 100.637 327.988 100.437 328.036C100.237 328.084 100.045 328.108 99.8614 328.108ZM103.553 328.108C103.153 328.108 102.793 328.032 102.473 327.88C102.161 327.72 101.913 327.504 101.729 327.232C101.545 326.96 101.453 326.656 101.453 326.32C101.453 325.896 101.561 325.56 101.777 325.312C102.001 325.064 102.365 324.888 102.869 324.784C103.381 324.672 104.077 324.616 104.957 324.616H105.341V324.244C105.341 323.748 105.237 323.392 105.029 323.176C104.829 322.952 104.505 322.84 104.057 322.84C103.705 322.84 103.365 322.892 103.037 322.996C102.709 323.092 102.373 323.252 102.029 323.476L101.693 322.768C101.997 322.552 102.365 322.38 102.797 322.252C103.237 322.124 103.657 322.06 104.057 322.06C104.809 322.06 105.365 322.244 105.725 322.612C106.093 322.98 106.277 323.552 106.277 324.328V328H105.365V326.992C105.213 327.336 104.977 327.608 104.657 327.808C104.345 328.008 103.977 328.108 103.553 328.108ZM103.709 327.376C104.189 327.376 104.581 327.212 104.885 326.884C105.189 326.548 105.341 326.124 105.341 325.612V325.252H104.969C104.321 325.252 103.809 325.284 103.433 325.348C103.065 325.404 102.805 325.508 102.653 325.66C102.509 325.804 102.437 326.004 102.437 326.26C102.437 326.588 102.549 326.856 102.773 327.064C103.005 327.272 103.317 327.376 103.709 327.376ZM110.552 328.108C109.968 328.108 109.464 327.984 109.04 327.736C108.616 327.48 108.288 327.124 108.056 326.668C107.832 326.204 107.72 325.664 107.72 325.048C107.72 324.12 107.972 323.392 108.476 322.864C108.98 322.328 109.672 322.06 110.552 322.06C110.912 322.06 111.268 322.124 111.62 322.252C111.972 322.38 112.264 322.56 112.496 322.792L112.16 323.5C111.928 323.276 111.672 323.112 111.392 323.008C111.12 322.904 110.86 322.852 110.612 322.852C110.004 322.852 109.536 323.044 109.208 323.428C108.88 323.804 108.716 324.348 108.716 325.06C108.716 325.756 108.88 326.308 109.208 326.716C109.536 327.116 110.004 327.316 110.612 327.316C110.86 327.316 111.12 327.264 111.392 327.16C111.672 327.056 111.928 326.888 112.16 326.656L112.496 327.364C112.264 327.596 111.968 327.78 111.608 327.916C111.256 328.044 110.904 328.108 110.552 328.108ZM113.515 320.716V319.624H114.715V320.716H113.515ZM113.635 328V322.168H114.607V328H113.635ZM118.848 328.108C118.28 328.108 117.788 327.984 117.372 327.736C116.956 327.488 116.632 327.14 116.4 326.692C116.176 326.236 116.064 325.7 116.064 325.084C116.064 324.468 116.176 323.936 116.4 323.488C116.632 323.032 116.956 322.68 117.372 322.432C117.788 322.184 118.28 322.06 118.848 322.06C119.408 322.06 119.896 322.184 120.312 322.432C120.736 322.68 121.06 323.032 121.284 323.488C121.516 323.936 121.632 324.468 121.632 325.084C121.632 325.7 121.516 326.236 121.284 326.692C121.06 327.14 120.736 327.488 120.312 327.736C119.896 327.984 119.408 328.108 118.848 328.108ZM118.848 327.328C119.392 327.328 119.828 327.136 120.156 326.752C120.484 326.36 120.648 325.804 120.648 325.084C120.648 324.356 120.484 323.8 120.156 323.416C119.828 323.032 119.392 322.84 118.848 322.84C118.296 322.84 117.856 323.032 117.528 323.416C117.208 323.8 117.048 324.356 117.048 325.084C117.048 325.804 117.208 326.36 117.528 326.752C117.856 327.136 118.296 327.328 118.848 327.328ZM118.5 321.388L119.736 318.964H120.78L119.196 321.388H118.5ZM123.092 328V322.168H124.04V323.164C124.232 322.796 124.504 322.52 124.856 322.336C125.208 322.152 125.604 322.06 126.044 322.06C127.428 322.06 128.12 322.828 128.12 324.364V328H127.148V324.424C127.148 323.88 127.04 323.484 126.824 323.236C126.616 322.98 126.28 322.852 125.816 322.852C125.28 322.852 124.852 323.02 124.532 323.356C124.22 323.684 124.064 324.124 124.064 324.676V328H123.092ZM129.756 323.392V322.168H130.98V323.392H129.756ZM129.756 328V326.776H130.98V328H129.756Z" fill="#748DB4"/>
<path d="M139.672 328.12C139.12 328.12 138.584 328.036 138.064 327.868C137.544 327.692 137.12 327.456 136.792 327.16L137.296 325.984C138.024 326.544 138.808 326.824 139.648 326.824C140.152 326.824 140.544 326.696 140.824 326.44C141.112 326.176 141.256 325.824 141.256 325.384C141.256 324.936 141.12 324.576 140.848 324.304C140.576 324.024 140.204 323.884 139.732 323.884C139.06 323.884 138.504 324.152 138.064 324.688H137.032V319.54H142.228V320.812H138.532V323.104C138.956 322.784 139.476 322.624 140.092 322.624C140.628 322.624 141.092 322.74 141.484 322.972C141.884 323.196 142.192 323.512 142.408 323.92C142.632 324.32 142.744 324.788 142.744 325.324C142.744 325.876 142.62 326.364 142.372 326.788C142.124 327.204 141.768 327.532 141.304 327.772C140.848 328.004 140.304 328.12 139.672 328.12Z" fill="#748DB4"/>
<path d="M172.704 328.108C171.872 328.108 171.16 327.932 170.568 327.58C169.976 327.228 169.52 326.728 169.2 326.08C168.888 325.432 168.732 324.66 168.732 323.764C168.732 322.876 168.888 322.108 169.2 321.46C169.52 320.812 169.976 320.312 170.568 319.96C171.16 319.608 171.872 319.432 172.704 319.432C173.288 319.432 173.824 319.524 174.312 319.708C174.808 319.892 175.228 320.16 175.572 320.512L175.188 321.316C174.82 320.972 174.436 320.724 174.036 320.572C173.644 320.412 173.208 320.332 172.728 320.332C171.776 320.332 171.048 320.632 170.544 321.232C170.04 321.832 169.788 322.676 169.788 323.764C169.788 324.86 170.04 325.708 170.544 326.308C171.048 326.908 171.776 327.208 172.728 327.208C173.208 327.208 173.644 327.132 174.036 326.98C174.436 326.82 174.82 326.568 175.188 326.224L175.572 327.028C175.228 327.372 174.808 327.64 174.312 327.832C173.824 328.016 173.288 328.108 172.704 328.108ZM178.988 328.108C178.42 328.108 177.928 327.984 177.512 327.736C177.096 327.488 176.772 327.14 176.54 326.692C176.316 326.236 176.204 325.7 176.204 325.084C176.204 324.468 176.316 323.936 176.54 323.488C176.772 323.032 177.096 322.68 177.512 322.432C177.928 322.184 178.42 322.06 178.988 322.06C179.548 322.06 180.036 322.184 180.452 322.432C180.876 322.68 181.2 323.032 181.424 323.488C181.656 323.936 181.772 324.468 181.772 325.084C181.772 325.7 181.656 326.236 181.424 326.692C181.2 327.14 180.876 327.488 180.452 327.736C180.036 327.984 179.548 328.108 178.988 328.108ZM178.988 327.328C179.532 327.328 179.968 327.136 180.296 326.752C180.624 326.36 180.788 325.804 180.788 325.084C180.788 324.356 180.624 323.8 180.296 323.416C179.968 323.032 179.532 322.84 178.988 322.84C178.436 322.84 177.996 323.032 177.668 323.416C177.348 323.8 177.188 324.356 177.188 325.084C177.188 325.804 177.348 326.36 177.668 326.752C177.996 327.136 178.436 327.328 178.988 327.328ZM183.232 328V322.168H184.18V323.164C184.372 322.796 184.644 322.52 184.996 322.336C185.348 322.152 185.744 322.06 186.184 322.06C187.568 322.06 188.26 322.828 188.26 324.364V328H187.288V324.424C187.288 323.88 187.18 323.484 186.964 323.236C186.756 322.98 186.42 322.852 185.956 322.852C185.42 322.852 184.992 323.02 184.672 323.356C184.36 323.684 184.204 324.124 184.204 324.676V328H183.232ZM192.393 328.108C191.705 328.108 191.189 327.928 190.845 327.568C190.501 327.2 190.329 326.672 190.329 325.984V322.924H189.189V322.168H190.329V320.38H191.301V322.168H193.149V322.924H191.301V325.888C191.301 326.344 191.397 326.692 191.589 326.932C191.781 327.164 192.093 327.28 192.525 327.28C192.653 327.28 192.781 327.264 192.909 327.232C193.037 327.2 193.153 327.168 193.257 327.136L193.425 327.88C193.321 327.936 193.169 327.988 192.969 328.036C192.769 328.084 192.577 328.108 192.393 328.108ZM194.248 328V322.168H195.196V323.212C195.508 322.508 196.148 322.12 197.116 322.048L197.464 322.012L197.536 322.852L196.924 322.924C196.372 322.972 195.952 323.148 195.664 323.452C195.376 323.748 195.232 324.156 195.232 324.676V328H194.248ZM200.326 328.108C199.926 328.108 199.566 328.032 199.246 327.88C198.934 327.72 198.686 327.504 198.502 327.232C198.318 326.96 198.226 326.656 198.226 326.32C198.226 325.896 198.334 325.56 198.55 325.312C198.774 325.064 199.138 324.888 199.642 324.784C200.154 324.672 200.85 324.616 201.73 324.616H202.114V324.244C202.114 323.748 202.01 323.392 201.802 323.176C201.602 322.952 201.278 322.84 200.83 322.84C200.478 322.84 200.138 322.892 199.81 322.996C199.482 323.092 199.146 323.252 198.802 323.476L198.466 322.768C198.77 322.552 199.138 322.38 199.57 322.252C200.01 322.124 200.43 322.06 200.83 322.06C201.582 322.06 202.138 322.244 202.498 322.612C202.866 322.98 203.05 323.552 203.05 324.328V328H202.138V326.992C201.986 327.336 201.75 327.608 201.43 327.808C201.118 328.008 200.75 328.108 200.326 328.108ZM200.482 327.376C200.962 327.376 201.354 327.212 201.658 326.884C201.962 326.548 202.114 326.124 202.114 325.612V325.252H201.742C201.094 325.252 200.582 325.284 200.206 325.348C199.838 325.404 199.578 325.508 199.426 325.66C199.282 325.804 199.21 326.004 199.21 326.26C199.21 326.588 199.322 326.856 199.546 327.064C199.778 327.272 200.09 327.376 200.482 327.376ZM207.325 328.108C206.741 328.108 206.237 327.984 205.813 327.736C205.389 327.48 205.061 327.124 204.829 326.668C204.605 326.204 204.493 325.664 204.493 325.048C204.493 324.12 204.745 323.392 205.249 322.864C205.753 322.328 206.445 322.06 207.325 322.06C207.685 322.06 208.041 322.124 208.393 322.252C208.745 322.38 209.037 322.56 209.269 322.792L208.933 323.5C208.701 323.276 208.445 323.112 208.165 323.008C207.893 322.904 207.633 322.852 207.385 322.852C206.777 322.852 206.309 323.044 205.981 323.428C205.653 323.804 205.489 324.348 205.489 325.06C205.489 325.756 205.653 326.308 205.981 326.716C206.309 327.116 206.777 327.316 207.385 327.316C207.633 327.316 207.893 327.264 208.165 327.16C208.445 327.056 208.701 326.888 208.933 326.656L209.269 327.364C209.037 327.596 208.741 327.78 208.381 327.916C208.029 328.044 207.677 328.108 207.325 328.108ZM212.763 328.108C212.179 328.108 211.675 327.984 211.251 327.736C210.827 327.48 210.499 327.124 210.267 326.668C210.043 326.204 209.931 325.664 209.931 325.048C209.931 324.12 210.183 323.392 210.687 322.864C211.191 322.328 211.883 322.06 212.763 322.06C213.123 322.06 213.479 322.124 213.831 322.252C214.183 322.38 214.475 322.56 214.707 322.792L214.371 323.5C214.139 323.276 213.883 323.112 213.603 323.008C213.331 322.904 213.071 322.852 212.823 322.852C212.215 322.852 211.747 323.044 211.419 323.428C211.091 323.804 210.927 324.348 210.927 325.06C210.927 325.756 211.091 326.308 211.419 326.716C211.747 327.116 212.215 327.316 212.823 327.316C213.071 327.316 213.331 327.264 213.603 327.16C213.883 327.056 214.139 326.888 214.371 326.656L214.707 327.364C214.475 327.596 214.179 327.78 213.819 327.916C213.467 328.044 213.115 328.108 212.763 328.108ZM215.726 320.716V319.624H216.926V320.716H215.726ZM215.846 328V322.168H216.818V328H215.846ZM221.059 328.108C220.491 328.108 219.999 327.984 219.583 327.736C219.167 327.488 218.843 327.14 218.611 326.692C218.387 326.236 218.275 325.7 218.275 325.084C218.275 324.468 218.387 323.936 218.611 323.488C218.843 323.032 219.167 322.68 219.583 322.432C219.999 322.184 220.491 322.06 221.059 322.06C221.619 322.06 222.107 322.184 222.523 322.432C222.947 322.68 223.271 323.032 223.495 323.488C223.727 323.936 223.843 324.468 223.843 325.084C223.843 325.7 223.727 326.236 223.495 326.692C223.271 327.14 222.947 327.488 222.523 327.736C222.107 327.984 221.619 328.108 221.059 328.108ZM221.059 327.328C221.603 327.328 222.039 327.136 222.367 326.752C222.695 326.36 222.859 325.804 222.859 325.084C222.859 324.356 222.695 323.8 222.367 323.416C222.039 323.032 221.603 322.84 221.059 322.84C220.507 322.84 220.067 323.032 219.739 323.416C219.419 323.8 219.259 324.356 219.259 325.084C219.259 325.804 219.419 326.36 219.739 326.752C220.067 327.136 220.507 327.328 221.059 327.328ZM225.303 328V322.168H226.251V323.164C226.443 322.796 226.715 322.52 227.067 322.336C227.419 322.152 227.815 322.06 228.255 322.06C229.639 322.06 230.331 322.828 230.331 324.364V328H229.359V324.424C229.359 323.88 229.251 323.484 229.035 323.236C228.827 322.98 228.491 322.852 228.027 322.852C227.491 322.852 227.063 323.02 226.743 323.356C226.431 323.684 226.275 324.124 226.275 324.676V328H225.303ZM234.751 328.108C233.831 328.108 233.103 327.84 232.567 327.304C232.031 326.76 231.763 326.024 231.763 325.096C231.763 324.496 231.883 323.968 232.123 323.512C232.363 323.048 232.691 322.692 233.107 322.444C233.531 322.188 234.019 322.06 234.571 322.06C235.363 322.06 235.983 322.316 236.431 322.828C236.879 323.332 237.103 324.028 237.103 324.916V325.288H232.711C232.743 325.952 232.935 326.46 233.287 326.812C233.639 327.156 234.127 327.328 234.751 327.328C235.103 327.328 235.439 327.276 235.759 327.172C236.079 327.06 236.383 326.88 236.671 326.632L237.007 327.316C236.743 327.564 236.407 327.76 235.999 327.904C235.591 328.04 235.175 328.108 234.751 328.108ZM234.595 322.78C234.043 322.78 233.607 322.952 233.287 323.296C232.967 323.64 232.779 324.092 232.723 324.652H236.263C236.239 324.06 236.083 323.6 235.795 323.272C235.515 322.944 235.115 322.78 234.595 322.78ZM240.478 328.108C240.022 328.108 239.59 328.044 239.182 327.916C238.774 327.788 238.438 327.608 238.174 327.376L238.486 326.692C238.774 326.924 239.09 327.096 239.434 327.208C239.786 327.312 240.142 327.364 240.502 327.364C240.958 327.364 241.302 327.28 241.534 327.112C241.766 326.944 241.882 326.716 241.882 326.428C241.882 326.204 241.806 326.028 241.654 325.9C241.502 325.764 241.262 325.66 240.934 325.588L239.842 325.348C238.85 325.132 238.354 324.62 238.354 323.812C238.354 323.284 238.562 322.86 238.978 322.54C239.402 322.22 239.954 322.06 240.634 322.06C241.034 322.06 241.414 322.124 241.774 322.252C242.142 322.372 242.446 322.552 242.686 322.792L242.362 323.476C242.13 323.26 241.858 323.096 241.546 322.984C241.242 322.864 240.938 322.804 240.634 322.804C240.186 322.804 239.846 322.892 239.614 323.068C239.382 323.244 239.266 323.476 239.266 323.764C239.266 324.212 239.562 324.5 240.154 324.628L241.246 324.856C241.758 324.968 242.146 325.148 242.41 325.396C242.674 325.636 242.806 325.964 242.806 326.38C242.806 326.916 242.594 327.34 242.17 327.652C241.746 327.956 241.182 328.108 240.478 328.108ZM244.131 323.392V322.168H245.355V323.392H244.131ZM244.131 328V326.776H245.355V328H244.131Z" fill="#748DB4"/>
<path d="M254.432 328.12C253.856 328.12 253.304 328.036 252.776 327.868C252.256 327.692 251.824 327.456 251.48 327.16L251.984 325.984C252.704 326.544 253.504 326.824 254.384 326.824C255.464 326.824 256.004 326.4 256.004 325.552C256.004 325.152 255.868 324.856 255.596 324.664C255.332 324.464 254.944 324.364 254.432 324.364H253.076V323.092H254.288C254.736 323.092 255.092 322.984 255.356 322.768C255.62 322.544 255.752 322.236 255.752 321.844C255.752 321.476 255.628 321.196 255.38 321.004C255.14 320.812 254.788 320.716 254.324 320.716C253.492 320.716 252.76 321.004 252.128 321.58L251.624 320.428C251.96 320.108 252.38 319.86 252.884 319.684C253.388 319.508 253.912 319.42 254.456 319.42C255.336 319.42 256.02 319.62 256.508 320.02C256.996 320.412 257.24 320.96 257.24 321.664C257.24 322.12 257.124 322.52 256.892 322.864C256.66 323.208 256.344 323.456 255.944 323.608C256.432 323.744 256.812 323.996 257.084 324.364C257.356 324.724 257.492 325.164 257.492 325.684C257.492 326.436 257.22 327.032 256.676 327.472C256.132 327.904 255.384 328.12 254.432 328.12ZM261.795 328.12C260.795 328.12 260.031 327.744 259.503 326.992C258.975 326.232 258.711 325.152 258.711 323.752C258.711 322.336 258.975 321.26 259.503 320.524C260.031 319.788 260.795 319.42 261.795 319.42C262.803 319.42 263.567 319.788 264.087 320.524C264.615 321.26 264.879 322.332 264.879 323.74C264.879 325.148 264.615 326.232 264.087 326.992C263.559 327.744 262.795 328.12 261.795 328.12ZM261.795 326.86C262.339 326.86 262.739 326.612 262.995 326.116C263.259 325.612 263.391 324.82 263.391 323.74C263.391 322.668 263.259 321.892 262.995 321.412C262.739 320.924 262.339 320.68 261.795 320.68C261.259 320.68 260.859 320.924 260.595 321.412C260.331 321.892 260.199 322.668 260.199 323.74C260.199 324.82 260.331 325.612 260.595 326.116C260.859 326.612 261.259 326.86 261.795 326.86ZM266.279 328.852L265.151 328.516L268.259 318.88L269.387 319.216L266.279 328.852ZM270.46 328V326.728H272.368V321.292L270.892 322.18L270.292 321.052L272.812 319.54H273.904V326.728H275.692V328H270.46ZM279.948 328.12C278.948 328.12 278.184 327.744 277.656 326.992C277.128 326.232 276.864 325.152 276.864 323.752C276.864 322.336 277.128 321.26 277.656 320.524C278.184 319.788 278.948 319.42 279.948 319.42C280.956 319.42 281.72 319.788 282.24 320.524C282.768 321.26 283.032 322.332 283.032 323.74C283.032 325.148 282.768 326.232 282.24 326.992C281.712 327.744 280.948 328.12 279.948 328.12ZM279.948 326.86C280.492 326.86 280.892 326.612 281.148 326.116C281.412 325.612 281.544 324.82 281.544 323.74C281.544 322.668 281.412 321.892 281.148 321.412C280.892 320.924 280.492 320.68 279.948 320.68C279.412 320.68 279.012 320.924 278.748 321.412C278.484 321.892 278.352 322.668 278.352 323.74C278.352 324.82 278.484 325.612 278.748 326.116C279.012 326.612 279.412 326.86 279.948 326.86Z" fill="#748DB4"/>
</g>
<g filter="url(#filter2_i_2_9165)">
<rect width="375" height="48" transform="translate(42 44)" fill="white"/>
<path d="M163.576 74V63.614H159.382V61.31H170.56V63.614H166.366V74H163.576ZM170.268 74V65.162H172.932V66.692C173.352 65.66 174.252 65.09 175.632 64.982L176.424 64.928L176.586 67.214L175.056 67.376C173.712 67.508 173.04 68.192 173.04 69.428V74H170.268ZM180.586 74.198C179.926 74.198 179.344 74.072 178.84 73.82C178.336 73.568 177.934 73.226 177.634 72.794C177.346 72.362 177.202 71.876 177.202 71.336C177.202 70.7 177.37 70.19 177.706 69.806C178.042 69.422 178.588 69.152 179.344 68.996C180.1 68.828 181.102 68.744 182.35 68.744H182.998V68.438C182.998 67.91 182.878 67.538 182.638 67.322C182.398 67.094 181.99 66.98 181.414 66.98C180.934 66.98 180.424 67.058 179.884 67.214C179.356 67.358 178.828 67.58 178.3 67.88L177.562 66.062C177.874 65.858 178.252 65.672 178.696 65.504C179.152 65.336 179.626 65.21 180.118 65.126C180.61 65.03 181.078 64.982 181.522 64.982C182.89 64.982 183.91 65.294 184.582 65.918C185.254 66.53 185.59 67.484 185.59 68.78V74H183.052V72.668C182.872 73.136 182.566 73.508 182.134 73.784C181.714 74.06 181.198 74.198 180.586 74.198ZM181.198 72.38C181.702 72.38 182.128 72.206 182.476 71.858C182.824 71.51 182.998 71.06 182.998 70.508V70.148H182.368C181.444 70.148 180.79 70.232 180.406 70.4C180.022 70.556 179.83 70.832 179.83 71.228C179.83 71.564 179.944 71.84 180.172 72.056C180.412 72.272 180.754 72.38 181.198 72.38ZM193.071 74.198C192.447 74.198 191.883 74.06 191.379 73.784C190.887 73.508 190.521 73.142 190.281 72.686V74H187.617V61.31H190.335V66.35C190.599 65.93 190.971 65.6 191.451 65.36C191.943 65.108 192.483 64.982 193.071 64.982C193.839 64.982 194.511 65.168 195.087 65.54C195.675 65.912 196.131 66.44 196.455 67.124C196.779 67.808 196.941 68.624 196.941 69.572C196.941 70.52 196.779 71.342 196.455 72.038C196.131 72.722 195.675 73.256 195.087 73.64C194.511 74.012 193.839 74.198 193.071 74.198ZM192.261 72.164C192.837 72.164 193.305 71.954 193.665 71.534C194.025 71.114 194.205 70.46 194.205 69.572C194.205 68.696 194.025 68.054 193.665 67.646C193.305 67.226 192.837 67.016 192.261 67.016C191.673 67.016 191.199 67.226 190.839 67.646C190.479 68.054 190.299 68.696 190.299 69.572C190.299 70.46 190.479 71.114 190.839 71.534C191.199 71.954 191.673 72.164 192.261 72.164ZM201.592 74.198C200.932 74.198 200.35 74.072 199.846 73.82C199.342 73.568 198.94 73.226 198.64 72.794C198.352 72.362 198.208 71.876 198.208 71.336C198.208 70.7 198.376 70.19 198.712 69.806C199.048 69.422 199.594 69.152 200.35 68.996C201.106 68.828 202.108 68.744 203.356 68.744H204.004V68.438C204.004 67.91 203.884 67.538 203.644 67.322C203.404 67.094 202.996 66.98 202.42 66.98C201.94 66.98 201.43 67.058 200.89 67.214C200.362 67.358 199.834 67.58 199.306 67.88L198.568 66.062C198.88 65.858 199.258 65.672 199.702 65.504C200.158 65.336 200.632 65.21 201.124 65.126C201.616 65.03 202.084 64.982 202.528 64.982C203.896 64.982 204.916 65.294 205.588 65.918C206.26 66.53 206.596 67.484 206.596 68.78V74H204.058V72.668C203.878 73.136 203.572 73.508 203.14 73.784C202.72 74.06 202.204 74.198 201.592 74.198ZM202.204 72.38C202.708 72.38 203.134 72.206 203.482 71.858C203.83 71.51 204.004 71.06 204.004 70.508V70.148H203.374C202.45 70.148 201.796 70.232 201.412 70.4C201.028 70.556 200.836 70.832 200.836 71.228C200.836 71.564 200.95 71.84 201.178 72.056C201.418 72.272 201.76 72.38 202.204 72.38ZM208.587 63.452V60.914H211.521V63.452H208.587ZM206.823 77.474L206.643 75.53L207.489 75.44C208.305 75.344 208.713 74.876 208.713 74.036V65.162H211.431V73.676C211.431 74.504 211.305 75.182 211.053 75.71C210.813 76.238 210.411 76.64 209.847 76.916C209.295 77.192 208.545 77.36 207.597 77.42L206.823 77.474ZM217.793 74.198C216.845 74.198 216.017 74.012 215.309 73.64C214.613 73.256 214.073 72.722 213.689 72.038C213.305 71.342 213.113 70.52 213.113 69.572C213.113 68.636 213.305 67.826 213.689 67.142C214.073 66.446 214.613 65.912 215.309 65.54C216.017 65.168 216.845 64.982 217.793 64.982C218.741 64.982 219.563 65.168 220.259 65.54C220.967 65.912 221.513 66.446 221.897 67.142C222.293 67.826 222.491 68.636 222.491 69.572C222.491 70.52 222.293 71.342 221.897 72.038C221.513 72.722 220.967 73.256 220.259 73.64C219.563 74.012 218.741 74.198 217.793 74.198ZM217.793 72.164C218.369 72.164 218.837 71.954 219.197 71.534C219.569 71.114 219.755 70.46 219.755 69.572C219.755 68.696 219.569 68.054 219.197 67.646C218.837 67.226 218.369 67.016 217.793 67.016C217.217 67.016 216.749 67.226 216.389 67.646C216.029 68.054 215.849 68.696 215.849 69.572C215.849 70.46 216.029 71.114 216.389 71.534C216.749 71.954 217.217 72.164 217.793 72.164ZM232.592 74.198C231.824 74.198 231.146 74.012 230.558 73.64C229.982 73.256 229.532 72.722 229.208 72.038C228.884 71.342 228.722 70.52 228.722 69.572C228.722 68.624 228.884 67.808 229.208 67.124C229.532 66.44 229.982 65.912 230.558 65.54C231.146 65.168 231.824 64.982 232.592 64.982C233.18 64.982 233.72 65.108 234.212 65.36C234.704 65.612 235.076 65.948 235.328 66.368V61.31H238.046V74H235.382V72.668C235.142 73.136 234.77 73.508 234.266 73.784C233.774 74.06 233.216 74.198 232.592 74.198ZM233.402 72.164C233.978 72.164 234.446 71.954 234.806 71.534C235.178 71.114 235.364 70.46 235.364 69.572C235.364 68.696 235.178 68.054 234.806 67.646C234.446 67.226 233.978 67.016 233.402 67.016C232.826 67.016 232.358 67.226 231.998 67.646C231.638 68.054 231.458 68.696 231.458 69.572C231.458 70.46 231.638 71.114 231.998 71.534C232.358 71.954 232.826 72.164 233.402 72.164ZM244.731 74.198C243.687 74.198 242.787 74.012 242.031 73.64C241.287 73.256 240.711 72.722 240.303 72.038C239.907 71.342 239.709 70.526 239.709 69.59C239.709 68.678 239.901 67.88 240.285 67.196C240.681 66.5 241.215 65.96 241.887 65.576C242.571 65.18 243.357 64.982 244.245 64.982C245.529 64.982 246.549 65.39 247.305 66.206C248.061 67.01 248.439 68.102 248.439 69.482V70.166H242.301C242.397 70.862 242.649 71.372 243.057 71.696C243.477 72.008 244.053 72.164 244.785 72.164C245.265 72.164 245.751 72.092 246.243 71.948C246.735 71.804 247.179 71.582 247.575 71.282L248.295 73.1C247.851 73.436 247.305 73.706 246.657 73.91C246.021 74.102 245.379 74.198 244.731 74.198ZM244.353 66.782C243.777 66.782 243.309 66.956 242.949 67.304C242.601 67.652 242.385 68.138 242.301 68.762H246.189C246.117 67.442 245.505 66.782 244.353 66.782ZM255.029 77.24V65.162H257.693V66.476C257.933 66.02 258.299 65.66 258.791 65.396C259.295 65.12 259.859 64.982 260.483 64.982C261.251 64.982 261.923 65.168 262.499 65.54C263.087 65.912 263.543 66.44 263.867 67.124C264.191 67.808 264.353 68.624 264.353 69.572C264.353 70.52 264.191 71.342 263.867 72.038C263.543 72.722 263.087 73.256 262.499 73.64C261.923 74.012 261.251 74.198 260.483 74.198C259.895 74.198 259.355 74.072 258.863 73.82C258.383 73.568 258.011 73.232 257.747 72.812V77.24H255.029ZM259.673 72.164C260.249 72.164 260.717 71.954 261.077 71.534C261.437 71.114 261.617 70.46 261.617 69.572C261.617 68.696 261.437 68.054 261.077 67.646C260.717 67.226 260.249 67.016 259.673 67.016C259.085 67.016 258.611 67.226 258.251 67.646C257.891 68.054 257.711 68.696 257.711 69.572C257.711 70.46 257.891 71.114 258.251 71.534C258.611 71.954 259.085 72.164 259.673 72.164ZM269.004 74.198C268.344 74.198 267.762 74.072 267.258 73.82C266.754 73.568 266.352 73.226 266.052 72.794C265.764 72.362 265.62 71.876 265.62 71.336C265.62 70.7 265.788 70.19 266.124 69.806C266.46 69.422 267.006 69.152 267.762 68.996C268.518 68.828 269.52 68.744 270.768 68.744H271.416V68.438C271.416 67.91 271.296 67.538 271.056 67.322C270.816 67.094 270.408 66.98 269.832 66.98C269.352 66.98 268.842 67.058 268.302 67.214C267.774 67.358 267.246 67.58 266.718 67.88L265.98 66.062C266.292 65.858 266.67 65.672 267.114 65.504C267.57 65.336 268.044 65.21 268.536 65.126C269.028 65.03 269.496 64.982 269.94 64.982C271.308 64.982 272.328 65.294 273 65.918C273.672 66.53 274.008 67.484 274.008 68.78V74H271.47V72.668C271.29 73.136 270.984 73.508 270.552 73.784C270.132 74.06 269.616 74.198 269.004 74.198ZM269.616 72.38C270.12 72.38 270.546 72.206 270.894 71.858C271.242 71.51 271.416 71.06 271.416 70.508V70.148H270.786C269.862 70.148 269.208 70.232 268.824 70.4C268.44 70.556 268.248 70.832 268.248 71.228C268.248 71.564 268.362 71.84 268.59 72.056C268.83 72.272 269.172 72.38 269.616 72.38ZM276.035 74V65.162H278.699V66.692C279.119 65.66 280.019 65.09 281.399 64.982L282.191 64.928L282.353 67.214L280.823 67.376C279.479 67.508 278.807 68.192 278.807 69.428V74H276.035ZM288.319 74.198C285.835 74.198 284.593 72.992 284.593 70.58V67.196H282.919V65.162H284.593V62.57H287.311V65.162H289.921V67.196H287.311V70.472C287.311 70.976 287.425 71.354 287.653 71.606C287.893 71.858 288.271 71.984 288.787 71.984C288.943 71.984 289.105 71.966 289.273 71.93C289.453 71.894 289.645 71.846 289.849 71.786L290.245 73.766C289.993 73.898 289.693 74 289.345 74.072C288.997 74.156 288.655 74.198 288.319 74.198ZM295.418 74.198C294.47 74.198 293.642 74.012 292.934 73.64C292.238 73.256 291.698 72.722 291.314 72.038C290.93 71.342 290.738 70.52 290.738 69.572C290.738 68.636 290.93 67.826 291.314 67.142C291.698 66.446 292.238 65.912 292.934 65.54C293.642 65.168 294.47 64.982 295.418 64.982C296.366 64.982 297.188 65.168 297.884 65.54C298.592 65.912 299.138 66.446 299.522 67.142C299.918 67.826 300.116 68.636 300.116 69.572C300.116 70.52 299.918 71.342 299.522 72.038C299.138 72.722 298.592 73.256 297.884 73.64C297.188 74.012 296.366 74.198 295.418 74.198ZM295.418 72.164C295.994 72.164 296.462 71.954 296.822 71.534C297.194 71.114 297.38 70.46 297.38 69.572C297.38 68.696 297.194 68.054 296.822 67.646C296.462 67.226 295.994 67.016 295.418 67.016C294.842 67.016 294.374 67.226 294.014 67.646C293.654 68.054 293.474 68.696 293.474 69.572C293.474 70.46 293.654 71.114 294.014 71.534C294.374 71.954 294.842 72.164 295.418 72.164Z" fill="#4073BF"/>
<path d="M65 75.5L57.5 68L65 60.5" stroke="#4073BF" stroke-width="2" stroke-linecap="round" stroke-linejoin="round"/>
</g>
<g clip-path="url(#clip0_2_9165)">
<rect width="375" height="44" transform="translate(42)" fill="white"/>
<path d="M120 -2H339C336.894 -1.39731 335.418 0.495246 335.345 2.68446L335.317 3.5618C335.317 17.0587 324.375 28 310.878 28H148.122C134.625 28 123.683 17.0587 123.683 3.5618L123.655 2.68447C123.582 0.49525 122.106 -1.39731 120 -2Z" fill="#020202"/>
<path d="M81.95 22.865C81.95 23.475 81.905 24.085 81.815 24.695C81.725 25.295 81.57 25.865 81.35 26.405C81.13 26.935 80.825 27.41 80.435 27.83C80.045 28.24 79.545 28.565 78.935 28.805C78.335 29.035 77.605 29.15 76.745 29.15C76.545 29.15 76.305 29.14 76.025 29.12C75.755 29.1 75.53 29.07 75.35 29.03V27.47C75.54 27.52 75.745 27.56 75.965 27.59C76.195 27.62 76.42 27.635 76.64 27.635C77.32 27.635 77.88 27.545 78.32 27.365C78.77 27.175 79.12 26.915 79.37 26.585C79.63 26.245 79.82 25.85 79.94 25.4C80.06 24.94 80.13 24.45 80.15 23.93H80.06C79.91 24.16 79.73 24.37 79.52 24.56C79.32 24.75 79.065 24.9 78.755 25.01C78.455 25.12 78.075 25.175 77.615 25.175C77.005 25.175 76.47 25.045 76.01 24.785C75.56 24.525 75.21 24.15 74.96 23.66C74.71 23.16 74.585 22.555 74.585 21.845C74.585 21.075 74.73 20.415 75.02 19.865C75.31 19.315 75.72 18.895 76.25 18.605C76.79 18.305 77.42 18.155 78.14 18.155C78.68 18.155 79.18 18.255 79.64 18.455C80.1 18.645 80.5 18.935 80.84 19.325C81.19 19.705 81.46 20.19 81.65 20.78C81.85 21.37 81.95 22.065 81.95 22.865ZM78.17 19.715C77.66 19.715 77.245 19.885 76.925 20.225C76.605 20.565 76.445 21.095 76.445 21.815C76.445 22.405 76.58 22.87 76.85 23.21C77.13 23.54 77.555 23.705 78.125 23.705C78.515 23.705 78.85 23.62 79.13 23.45C79.42 23.28 79.645 23.07 79.805 22.82C79.965 22.57 80.045 22.305 80.045 22.025C80.045 21.755 80.005 21.485 79.925 21.215C79.845 20.935 79.725 20.68 79.565 20.45C79.415 20.22 79.22 20.04 78.98 19.91C78.75 19.78 78.48 19.715 78.17 19.715ZM83.209 28.04C83.209 27.62 83.319 27.325 83.539 27.155C83.759 26.975 84.029 26.885 84.349 26.885C84.669 26.885 84.939 26.97 85.159 27.14C85.389 27.31 85.504 27.61 85.504 28.04C85.504 28.45 85.389 28.745 85.159 28.925C84.939 29.105 84.669 29.195 84.349 29.195C84.029 29.195 83.759 29.105 83.539 28.925C83.319 28.745 83.209 28.45 83.209 28.04ZM83.209 21.86C83.209 21.43 83.319 21.13 83.539 20.96C83.759 20.78 84.029 20.69 84.349 20.69C84.669 20.69 84.939 20.775 85.159 20.945C85.389 21.115 85.504 21.42 85.504 21.86C85.504 22.27 85.389 22.565 85.159 22.745C84.939 22.925 84.669 23.015 84.349 23.015C84.029 23.015 83.759 22.925 83.539 22.745C83.319 22.565 83.209 22.27 83.209 21.86ZM94.4434 26.705H93.0484V29H91.1884V26.705H86.4184V25.295L91.2334 18.26H93.0484V25.16H94.4434V26.705ZM91.1884 22.76C91.1884 22.55 91.1884 22.335 91.1884 22.115C91.1984 21.885 91.2084 21.66 91.2184 21.44C91.2284 21.22 91.2384 21.02 91.2484 20.84C91.2584 20.66 91.2684 20.52 91.2784 20.42H91.2184C91.1284 20.61 91.0284 20.81 90.9184 21.02C90.8184 21.22 90.7034 21.41 90.5734 21.59L88.1434 25.16H91.1884V22.76ZM100.262 29H98.3724V22.325C98.3724 22.105 98.3724 21.88 98.3724 21.65C98.3824 21.42 98.3924 21.19 98.4024 20.96C98.4124 20.72 98.4224 20.5 98.4324 20.3C98.3324 20.4 98.2074 20.52 98.0574 20.66C97.9074 20.79 97.7524 20.925 97.5924 21.065L96.3924 22.025L95.4474 20.855L98.6874 18.29H100.262V29Z" fill="#020202"/>
<path fill-rule="evenodd" clip-rule="evenodd" d="M354 18H353C352.448 18 352 18.4477 352 19V27.6667C352 28.219 352.448 28.6667 353 28.6667H354C354.552 28.6667 355 28.219 355 27.6667V19C355 18.4477 354.552 18 354 18ZM348.333 20.3333H349.333C349.886 20.3333 350.333 20.781 350.333 21.3333V27.6667C350.333 28.219 349.886 28.6667 349.333 28.6667H348.333C347.781 28.6667 347.333 28.219 347.333 27.6667V21.3333C347.333 20.781 347.781 20.3333 348.333 20.3333ZM344.667 22.6667H343.667C343.114 22.6667 342.667 23.1144 342.667 23.6667V27.6667C342.667 28.219 343.114 28.6667 343.667 28.6667H344.667C345.219 28.6667 345.667 28.219 345.667 27.6667V23.6667C345.667 23.1144 345.219 22.6667 344.667 22.6667ZM340 24.6667H339C338.448 24.6667 338 25.1144 338 25.6667V27.6667C338 28.219 338.448 28.6667 339 28.6667H340C340.552 28.6667 341 28.219 341 27.6667V25.6667C341 25.1144 340.552 24.6667 340 24.6667Z" fill="#020202"/>
<path fill-rule="evenodd" clip-rule="evenodd" d="M372.94 22.6557C371.334 21.1289 369.203 20.2774 366.987 20.2773C364.771 20.2773 362.639 21.1288 361.033 22.6557C360.912 22.7737 360.719 22.7722 360.6 22.6523L359.443 21.4857C359.383 21.4249 359.35 21.3426 359.35 21.257C359.351 21.1715 359.385 21.0896 359.446 21.0297C363.661 16.9901 370.311 16.9901 374.526 21.0297C374.587 21.0897 374.622 21.1715 374.622 21.2571C374.623 21.3427 374.589 21.4249 374.529 21.4857L373.373 22.6523C373.254 22.772 373.061 22.7735 372.94 22.6557ZM366.987 24.073C368.204 24.0729 369.378 24.5254 370.281 25.3427C370.403 25.4586 370.595 25.4561 370.714 25.337L371.869 24.1703C371.93 24.1091 371.963 24.0261 371.962 23.9398C371.962 23.8536 371.926 23.7713 371.864 23.7113C369.116 21.1549 364.86 21.1549 362.112 23.7113C362.05 23.7713 362.014 23.8536 362.013 23.9399C362.013 24.0262 362.046 24.1092 362.107 24.1703L363.262 25.337C363.381 25.4561 363.573 25.4586 363.695 25.3427C364.597 24.526 365.77 24.0735 366.987 24.073ZM369.206 26.8573C369.267 26.7967 369.301 26.7133 369.3 26.6268C369.298 26.5403 369.261 26.4584 369.196 26.4003C367.921 25.3214 366.053 25.3214 364.777 26.4003C364.713 26.4583 364.675 26.5402 364.674 26.6267C364.672 26.7132 364.706 26.7967 364.767 26.8573L366.765 28.873C366.824 28.9322 366.903 28.9656 366.987 28.9656C367.07 28.9656 367.15 28.9322 367.208 28.873L369.206 26.8573Z" fill="#020202"/>
<g clip-path="url(#clip1_2_9165)">
<path opacity="0.35" d="M380.667 17.5H397.333C398.53 17.5 399.5 18.4704 399.5 19.667V25.667C399.5 26.8635 398.53 27.833 397.333 27.833H380.667C379.47 27.833 378.5 26.8635 378.5 25.667V19.667L378.511 19.4453C378.622 18.3527 379.545 17.5 380.667 17.5Z" stroke="#020202"/>
<path opacity="0.4" d="M401 20.6665V24.6665C401.805 24.3277 402.328 23.5396 402.328 22.6665C402.328 21.7934 401.805 21.0053 401 20.6665Z" fill="#020202"/>
<path d="M380 20.3333C380 19.597 380.597 19 381.333 19H396.667C397.403 19 398 19.597 398 20.3333V25C398 25.7364 397.403 26.3333 396.667 26.3333H381.333C380.597 26.3333 380 25.7364 380 25V20.3333Z" fill="#020202"/>
</g>
</g>
<defs>
<filter id="filter0_d_2_9165" x="0" y="99" width="461" height="196" filterUnits="userSpaceOnUse" color-interpolation-filters="sRGB">
<feFlood flood-opacity="0" result="BackgroundImageFix"/>
<feColorMatrix in="SourceAlpha" type="matrix" values="0 0 0 0 0 0 0 0 0 0 0 0 0 0 0 0 0 0 127 0" result="hardAlpha"/>
<feOffset dy="16"/>
<feGaussianBlur stdDeviation="29.5"/>
<feColorMatrix type="matrix" values="0 0 0 0 0.15 0 0 0 0 0.27 0 0 0 0 0.45 0 0 0 0.08 0"/>
<feBlend mode="normal" in2="BackgroundImageFix" result="effect1_dropShadow_2_9165"/>
<feBlend mode="normal" in="SourceGraphic" in2="effect1_dropShadow_2_9165" result="shape"/>
</filter>
<filter id="filter1_d_2_9165" x="0" y="227" width="461" height="196" filterUnits="userSpaceOnUse" color-interpolation-filters="sRGB">
<feFlood flood-opacity="0" result="BackgroundImageFix"/>
<feColorMatrix in="SourceAlpha" type="matrix" values="0 0 0 0 0 0 0 0 0 0 0 0 0 0 0 0 0 0 127 0" result="hardAlpha"/>
<feOffset dy="16"/>
<feGaussianBlur stdDeviation="29.5"/>
<feColorMatrix type="matrix" values="0 0 0 0 0.15 0 0 0 0 0.27 0 0 0 0 0.45 0 0 0 0.08 0"/>
<feBlend mode="normal" in2="BackgroundImageFix" result="effect1_dropShadow_2_9165"/>
<feBlend mode="normal" in="SourceGraphic" in2="effect1_dropShadow_2_9165" result="shape"/>
</filter>
<filter id="filter2_i_2_9165" x="42" y="44" width="375" height="48" filterUnits="userSpaceOnUse" color-interpolation-filters="sRGB">
<feFlood flood-opacity="0" result="BackgroundImageFix"/>
<feBlend mode="normal" in="SourceGraphic" in2="BackgroundImageFix" result="shape"/>
<feColorMatrix in="SourceAlpha" type="matrix" values="0 0 0 0 0 0 0 0 0 0 0 0 0 0 0 0 0 0 127 0" result="hardAlpha"/>
<feOffset dy="-1"/>
<feComposite in2="hardAlpha" operator="arithmetic" k2="-1" k3="1"/>
<feColorMatrix type="matrix" values="0 0 0 0 0.934 0 0 0 0 0.9388 0 0 0 0 0.946 0 0 0 1 0"/>
<feBlend mode="normal" in2="shape" result="effect1_innerShadow_2_9165"/>
</filter>
<clipPath id="clip0_2_9165">
<rect width="375" height="44" fill="white" transform="translate(42)"/>
</clipPath>
<clipPath id="clip1_2_9165">
<rect width="25" height="16" fill="white" transform="translate(377 15)"/>
</clipPath>
</defs>
</svg>
